<svg xmlns="http://www.w3.org/2000/svg" width="66" height="66" viewBox="0 0 66 66">
    <defs>
        <filter id="0i7khx956a" width="66" height="66" x="0" y="0" filterUnits="userSpaceOnUse">
            <feOffset dy="3"/>
            <feGaussianBlur result="blur" stdDeviation="3"/>
            <feFlood flood-opacity=".161"/>
            <feComposite in2="blur" operator="in"/>
            <feComposite in="SourceGraphic"/>
        </filter>
    </defs>
    <g>
        <g filter="url(#0i7khx956a)" transform="translate(-23 -278) translate(23 278)">
            <circle cx="24" cy="24" r="24" fill="#43e6c5" transform="translate(9 6)"/>
        </g>
        <g>
            <path fill="#fff" d="M221.729 251.491l-.9-.52.609-.355a1.46 1.46 0 0 0-1.468-2.521l-1.638.952c-.128.074-.271.149-.423.229l-.582-.335v-2.794l.582-.337c.147.078.293.153.423.229l1.638.952a1.459 1.459 0 0 0 1.468-2.521l-.609-.355.582-.333.363-.209a1.484 1.484 0 0 0-.572-2.715 1.266 1.266 0 0 0-.3 0 1.485 1.485 0 0 0-.6.194l-.925.535v-.83a1.454 1.454 0 0 0-2.9.14v1.894c0 .143 0 .3-.014.469v.019l-.745.431-1.2-.692c-.194-.118-.434-.273-.681-.434-.124-.081-.254-.165-.388-.244v-.8c.147-.093.291-.184.423-.26l1.642-.942a1.585 1.585 0 0 0 .281-.2 1.465 1.465 0 0 0-1.745-2.307l-.6.343v-1.014a1.455 1.455 0 0 0-2.909 0v1.031l-.6-.351a1.48 1.48 0 0 0-1.972 2.046 1.441 1.441 0 0 0 .5.467l1.642.942c.132.076.275.167.423.26v.824c-.343.213-.669.442-.944.6l-1.3.752-.764-.442c0-.17-.014-.335-.014-.489v-1.894a1.455 1.455 0 0 0-2.909 0v.7l-.925-.535a1.459 1.459 0 0 0-1.468 2.521l.938.543-.609.355a1.46 1.46 0 0 0 1.468 2.521l1.638-.952c.128-.074.271-.149.423-.229l.62.359v2.759l-.62.359c-.147-.078-.293-.153-.423-.229l-1.638-.952a1.459 1.459 0 0 0-1.468 2.521l.609.355-.9.52a1.46 1.46 0 0 0 1.468 2.521l.888-.512v.7a1.455 1.455 0 0 0 2.909 0v-1.894c0-.149 0-.316.014-.489l.458-.264 1.526.88c.3.171.651.425 1.028.655v.463c-.147.093-.291.184-.423.26l-1.642.942a1.46 1.46 0 0 0 1.468 2.521l.6-.343v1.076a1.455 1.455 0 0 0 2.909 0v-1.076l.6.343a1.459 1.459 0 0 0 1.468-2.521l-1.642-.942c-.132-.076-.275-.167-.423-.26v-.448c.359-.221.7-.462.983-.626l1.588-.917.44.254c0 .171.013.335.013.489v1.894a1.455 1.455 0 0 0 2.909 0v-.7l.888.512a1.468 1.468 0 0 0 1.454-2.549zm-9.718-.985l-.019-.012-1.1-.634-.357-.206-.935-.539v-2.781l.143-.083.791-.458.663-.388.791-.458.019-.012.791.458.644.372.811.467.163.093v2.781l-.97.562-.337.194z" transform="translate(-23 -278) translate(-12858.015 -1305.4) translate(12702.507 1365.645)"/>
        </g>
    </g>
</svg>
