<svg xmlns="http://www.w3.org/2000/svg" width="300" height="190" viewBox="0 0 254 158">
    <defs>
        <style>
            .cls-1{fill:#307fe2}
        </style>
    </defs>
    <g id="Group_10621" transform="translate(-61 -182)">
        <rect id="Rectangle_17767" width="254" height="158" class="cls-1" rx="15" transform="translate(61 182)"/>
        <path id="Rectangle_17768" fill="#f5f7fa" d="M15 0h224a15 15 0 0 1 15 15v26H0V15A15 15 0 0 1 15 0z" transform="rotate(180 157.5 170)"/>
        <g id="Group_10610" transform="translate(0 -.633)">
            <path id="Path_6208" d="M430.249 578.154a8.059 8.059 0 0 1-8.049-8.054v-13.41a2.26 2.26 0 1 1 4.52 0v13.41a3.529 3.529 0 0 0 3.529 3.488 2.26 2.26 0 1 1 0 4.52z" class="cls-1" transform="translate(-324.872 -246.164)"/>
            <path id="Path_6209" d="M451.438 573.905a3.488 3.488 0 0 1-1.4-2.817v-8.658a2.26 2.26 0 0 0-4.52 0v8.152a3.1 3.1 0 0 1-3.1 2.869 3.539 3.539 0 0 1-3.529-3.529v-7.512a2.26 2.26 0 0 0-4.52 0v7.512a8.059 8.059 0 0 0 8.049 8.049 7.574 7.574 0 0 0 4.891-1.785 8.465 8.465 0 0 0 1.383 1.331 2.262 2.262 0 0 0 2.724-3.612z" class="cls-1" transform="translate(-324.484 -245.981)"/>
            <path id="Path_6210" d="M411.276 560.332a8.926 8.926 0 0 0-4.4 1.156V556.7a2.26 2.26 0 1 0-4.52 0v12.538a8.916 8.916 0 1 0 8.916-8.905zm4.417 8.926a4.406 4.406 0 0 1-4.406 4.4 4.676 4.676 0 0 1-.764-.072 2.889 2.889 0 0 1-3.3.423l1.032-.856a5.64 5.64 0 0 1-1.569-.175 2.383 2.383 0 0 1-1.538-1.992 4.189 4.189 0 0 0 2.064 0 4.261 4.261 0 0 1-.371-1.744 4.4 4.4 0 0 1 4.4-4.386 5.658 5.658 0 0 1 .6 0h.5a4.386 4.386 0 0 1 2.693 2.064l1.517.248-.908 1.765a.69.69 0 0 1 .093.33z" class="cls-1" transform="translate(-325.505 -246.164)"/>
            <circle id="Ellipse_891" cx=".629" cy=".629" r=".629" class="cls-1" transform="translate(86.926 320.834)"/>
        </g>
        <text id="Bank_but_lovely" fill="#307fe2" font-family="IRANYekan-Bold, IRANYekan" font-size="9px" font-weight="700" transform="translate(235.146 322.5)">
            <tspan x="0" y="0">Bank, but lovely</tspan>
        </text>
        <path id="Path_6211" fill="#fff" d="M402.556 448.21h20.208a2.173 2.173 0 0 1 .361 0 2.226 2.226 0 0 1 1.585.732 2.367 2.367 0 0 1 .642 1.635v1.073h-13.429l-1.514-.1a12.4 12.4 0 0 1-1.695-.271 7.284 7.284 0 0 0-1.926 0 1.384 1.384 0 0 0-.842.291.331.331 0 0 0-.08.381.762.762 0 0 0 .511.321h.953a9.349 9.349 0 0 0 1.835-.11h.09l.612-.09c.792-.1 1.595-.12 2.387-.171h13.117v1h-13.348c-.832-.11-1.655-.241-2.487-.271h-4.954a1.564 1.564 0 0 0-.953.171.411.411 0 0 0-.2.471.662.662 0 0 0 .461.311 5.019 5.019 0 0 0 1.093.07h2.617c.752 0 1.494 0 2.236-.05a3.266 3.266 0 0 0 .441 0 9.456 9.456 0 0 0 1-.1h.261l.572-.07h.09c.5-.08 1 0 1.5-.06h11.673v1h-10.8a5.833 5.833 0 0 1-.592 0l-1.805-.14c-.491-.05-1-.08-1.474-.1-.772-.05-1.554-.07-2.337-.07h-4.525a3.246 3.246 0 0 0-1 .1.521.521 0 0 0-.381.451.381.381 0 0 0 .18.281 1.445 1.445 0 0 0 .762.17h4.222a16.877 16.877 0 0 0 1.745 0c1.284-.06 2.557-.15 3.841-.241l1.284-.07h10.841v.953H414.7a8.932 8.932 0 0 1-.893-.07h-.9l-.672-.07c-.562-.05-1.113-.08-1.675-.09h-7.772a.913.913 0 0 0-.632.251.351.351 0 0 0 0 .461 1 1 0 0 0 .642.261h7.161c1 0 2.066-.11 3.089-.191l1-.08h.241a14.611 14.611 0 0 1 1.484 0h9.7v.912h-10.13a4.862 4.862 0 0 1-.552-.06h-.271l-.6-.07h-.341c-.391 0-.792-.07-1.193-.08h-8.276a1.168 1.168 0 0 0-.321 0h-.782a1.614 1.614 0 0 0-.923.15.421.421 0 0 0-.231.431c0 .14.16.231.281.291a1.735 1.735 0 0 0 .722.12h7.732c.943 0 1.9-.07 2.838-.15l.562-.05h.672l.552-.06h10.169v.953H414.65a1.447 1.447 0 0 1-.291 0h-1.033l-.642-.06h-.361c-.311 0-.632-.05-.943-.06h-2.28a1.128 1.128 0 0 0-.261 0h-5.335a4 4 0 0 0-.491 0 1.413 1.413 0 0 0-.732.14.492.492 0 0 0-.261.391.341.341 0 0 0 .16.271 1.163 1.163 0 0 0 .632.18h7.1c.913 0 1.815-.08 2.718-.15l.872-.06h.411l.842-.07H425.4v.913h-11.572c-1.565-.11-3.129-.231-4.693-.281h-.772a2.173 2.173 0 0 0-.361 0h-4.152a4.174 4.174 0 0 0-.943.09.582.582 0 0 0-.421.381c-.05.17.09.321.221.4a1.542 1.542 0 0 0 .662.14h7.04a4.216 4.216 0 0 0 .5 0 4.268 4.268 0 0 0 .943-.07c.742-.05 1.484-.12 2.236-.161h11.262v.953h-12.685a6.505 6.505 0 0 1-1-.09l-.411-.05-.331-.05-.862-.1a7.271 7.271 0 0 0-.933 0 3.618 3.618 0 0 0-.572 0h-3.971a2.379 2.379 0 0 0-.8.08.612.612 0 0 0-.391.391.372.372 0 0 0 .171.341 1.394 1.394 0 0 0 .772.18h4.382a4.849 4.849 0 0 0 .662 0 5.162 5.162 0 0 0 .562 0 8.275 8.275 0 0 0 1-.1h.532l.572-.07a1.529 1.529 0 0 0 .3 0h7.353a5.018 5.018 0 0 0 .672 0h4.934v1h-13.283a16.539 16.539 0 0 1-2.006-.15l-1.1-.18h-.361a4.738 4.738 0 0 0-.532 0h-1.584a.752.752 0 0 0-.552.351.381.381 0 0 0 .11.471 1.394 1.394 0 0 0 .8.281h.331a6.248 6.248 0 0 0 1.785-.1l1.123-.211c.471-.06.953-.09 1.434-.13.7 0 1.414-.06 2.126-.09h11.774v1.394a2.347 2.347 0 0 1-1.354 1.835 2.154 2.154 0 0 1-.792.211h-20.388a2.246 2.246 0 0 1-1.364-.451 2.4 2.4 0 0 1-1-1.835V451.66a2.417 2.417 0 0 1 .572-1.595 2.307 2.307 0 0 1 1.474-.8" transform="translate(-327.787 -252.733)"/>
    </g>
</svg>
