<svg xmlns="http://www.w3.org/2000/svg" xmlns:xlink="http://www.w3.org/1999/xlink" viewBox="0 0 347.77 276.93"><defs><style>.cls-1,.cls-6{fill:none;}.cls-2{fill:#2a7de1;}.cls-3,.cls-7,.cls-8{fill:#fff;}.cls-4{clip-path:url(#clip-path);}.cls-5{opacity:0.31;}.cls-6{stroke:#fff;stroke-miterlimit:10;stroke-width:0.61px;}.cls-7{font-size:8px;font-family:IRANYekan;}.cls-8{font-size:10.54px;font-family:IRANYekan-Bold, IRANYekan;font-weight:700;}</style><clipPath id="clip-path" transform="translate(92.65 56.5)"><rect class="cls-1" y="0.57" width="255.12" height="155.91" rx="22.87"/></clipPath></defs><g id="Layer_2" data-name="Layer 2"><g id="Layer_1-2" data-name="Layer 1"><rect class="cls-2" x="92.65" y="57.07" width="255.12" height="155.91" rx="14.17"/><path class="cls-3" d="M48.6,50.46a7.81,7.81,0,0,1-7.8-7.8v-13a2.19,2.19,0,1,1,4.38,0v13a3.42,3.42,0,0,0,3.42,3.42,2.19,2.19,0,0,1,0,4.38Z" transform="translate(92.65 56.5)"/><path class="cls-3" d="M69.56,46.52a3.39,3.39,0,0,1-1.36-2.73V35.4a2.19,2.19,0,1,0-4.38,0v7.9a3,3,0,0,1-3,2.77,3.42,3.42,0,0,1-3.42-3.41V35.38a2.19,2.19,0,1,0-4.38,0v7.28a7.81,7.81,0,0,0,7.8,7.8,7.31,7.31,0,0,0,4.73-1.73A8.28,8.28,0,0,0,66.92,50a2.25,2.25,0,0,0,1.32.44,2.19,2.19,0,0,0,1.32-3.94Z" transform="translate(92.65 56.5)"/><path class="cls-3" d="M29.68,33.19a8.65,8.65,0,0,0-4.26,1.12V29.66a2.19,2.19,0,0,0-4.38,0V41.82a8.64,8.64,0,1,0,8.64-8.63ZM34,41.83a4.25,4.25,0,0,1-4.26,4.26A4.52,4.52,0,0,1,29,46a2.79,2.79,0,0,1-3.2.41l1-.83a5.45,5.45,0,0,1-1.52-.17,2.34,2.34,0,0,1-1.5-1.94,4,4,0,0,0,2,0,4.33,4.33,0,0,1-.35-1.69,4.26,4.26,0,0,1,4.26-4.25,3.69,3.69,0,0,1,.58,0h0l.27,0,.11,0,.1,0a4.24,4.24,0,0,1,2.61,1.95l1.47.24L34,41.62Z" transform="translate(92.65 56.5)"/><circle class="cls-3" cx="124.03" cy="96.75" r="0.61"/><path class="cls-3" d="M42,107.25l-4.15,9.31H36.54l4.13-9H35.25v-1H42Z" transform="translate(92.65 56.5)"/><path class="cls-3" d="M51,106.53v1.08h-.24a3.37,3.37,0,0,0-2.37.88,3.69,3.69,0,0,0-1,2.4,2.71,2.71,0,0,1,2.16-.91,2.62,2.62,0,0,1,2.09.92,3.58,3.58,0,0,1,.78,2.39,3.54,3.54,0,0,1-.84,2.47,3.12,3.12,0,0,1-4.6-.17,4.43,4.43,0,0,1-.89-2.85v-.48A6.61,6.61,0,0,1,47.26,108a4.31,4.31,0,0,1,3.51-1.49ZM49.33,111a2.06,2.06,0,0,0-1.21.4,2,2,0,0,0-.76,1v.46a3.29,3.29,0,0,0,.56,2,1.65,1.65,0,0,0,1.39.76,1.62,1.62,0,0,0,1.35-.63,2.7,2.7,0,0,0,.49-1.66,2.64,2.64,0,0,0-.5-1.67A1.6,1.6,0,0,0,49.33,111Z" transform="translate(92.65 56.5)"/><path class="cls-3" d="M57,111.53l.51-5h5.13v1.18h-4l-.31,2.73A3.23,3.23,0,0,1,60,110a2.76,2.76,0,0,1,2.17.9,3.58,3.58,0,0,1,.81,2.46,3.4,3.4,0,0,1-.84,2.43,3.07,3.07,0,0,1-2.34.89,3.16,3.16,0,0,1-2.16-.73,3,3,0,0,1-1-2h1.2a2.05,2.05,0,0,0,.62,1.3,1.89,1.89,0,0,0,1.3.43,1.73,1.73,0,0,0,1.4-.6,2.52,2.52,0,0,0,.51-1.67,2.37,2.37,0,0,0-.55-1.62,1.89,1.89,0,0,0-1.46-.61,2.14,2.14,0,0,0-1.31.37l-.34.27Z" transform="translate(92.65 56.5)"/><path class="cls-3" d="M72.28,113.19h1.39v1H72.28v2.33H71v-2.33H66.44v-.75l4.48-7h1.36Zm-4.4,0H71v-4.91l-.15.27Z" transform="translate(92.65 56.5)"/><path class="cls-3" d="M89.24,112.15a3.26,3.26,0,0,1-1,.77,2.6,2.6,0,0,1-1.21.28,2.7,2.7,0,0,1-1.51-.42,2.89,2.89,0,0,1-1-1.2,4,4,0,0,1-.35-1.71,4.29,4.29,0,0,1,.38-1.82,2.9,2.9,0,0,1,1.09-1.23,3.13,3.13,0,0,1,1.64-.43,2.79,2.79,0,0,1,2.34,1.11,4.9,4.9,0,0,1,.85,3v.37a6.52,6.52,0,0,1-1.15,4.28,4.46,4.46,0,0,1-3.49,1.37h-.25v-1.07h.27a3,3,0,0,0,3.35-3.34Zm-2,0a2,2,0,0,0,1.18-.39,2.3,2.3,0,0,0,.79-1v-.51a3.51,3.51,0,0,0-.54-2A1.67,1.67,0,0,0,86,108.1a2.64,2.64,0,0,0-.51,1.69,2.74,2.74,0,0,0,.5,1.69A1.53,1.53,0,0,0,87.27,112.15Z" transform="translate(92.65 56.5)"/><path class="cls-3" d="M100.89,109.15a2.27,2.27,0,0,1-.4,1.33,2.67,2.67,0,0,1-1.07.92,2.82,2.82,0,0,1,1.24,1,2.47,2.47,0,0,1,.46,1.47,2.59,2.59,0,0,1-.88,2.07,3.37,3.37,0,0,1-2.31.77,3.42,3.42,0,0,1-2.32-.77,2.64,2.64,0,0,1-.87-2.07,2.55,2.55,0,0,1,.45-1.47,2.82,2.82,0,0,1,1.23-1,2.62,2.62,0,0,1-1.06-.91,2.43,2.43,0,0,1-.38-1.33,2.58,2.58,0,0,1,.81-2,3.43,3.43,0,0,1,4.28,0A2.55,2.55,0,0,1,100.89,109.15Zm-1,4.68a1.83,1.83,0,0,0-.53-1.38,1.89,1.89,0,0,0-1.39-.53,1.95,1.95,0,0,0-1.4,3.25,2,2,0,0,0,1.41.48,1.9,1.9,0,0,0,1.4-.49A1.75,1.75,0,0,0,99.84,113.83Zm-1.91-6.39a1.64,1.64,0,0,0-1.21.47,1.7,1.7,0,0,0-.46,1.26,1.73,1.73,0,0,0,.45,1.24,1.63,1.63,0,0,0,1.22.47,1.67,1.67,0,0,0,1.23-.47,1.73,1.73,0,0,0,.45-1.24,1.69,1.69,0,0,0-.47-1.25A1.64,1.64,0,0,0,97.93,107.44Z" transform="translate(92.65 56.5)"/><path class="cls-3" d="M111.73,107.25l-4.15,9.31h-1.33l4.13-9H105v-1h6.77Z" transform="translate(92.65 56.5)"/><path class="cls-3" d="M120.71,106.53v1.08h-.24a3.37,3.37,0,0,0-2.37.88,3.69,3.69,0,0,0-1,2.4,2.71,2.71,0,0,1,2.16-.91,2.62,2.62,0,0,1,2.09.92,3.58,3.58,0,0,1,.78,2.39,3.54,3.54,0,0,1-.84,2.47,3.12,3.12,0,0,1-4.6-.17,4.43,4.43,0,0,1-.89-2.85v-.48A6.61,6.61,0,0,1,117,108a4.31,4.31,0,0,1,3.51-1.49ZM119,111a2.06,2.06,0,0,0-1.21.4,2,2,0,0,0-.76,1v.46a3.29,3.29,0,0,0,.56,2,1.65,1.65,0,0,0,1.39.76,1.62,1.62,0,0,0,1.35-.63,2.7,2.7,0,0,0,.49-1.66,2.64,2.64,0,0,0-.5-1.67A1.6,1.6,0,0,0,119,111Z" transform="translate(92.65 56.5)"/><path class="cls-3" d="M133.74,111.53l.52-5h5.13v1.18h-4.06l-.3,2.73a3.22,3.22,0,0,1,1.67-.43,2.78,2.78,0,0,1,2.18.9,3.57,3.57,0,0,1,.8,2.46,3.4,3.4,0,0,1-.83,2.43,3.07,3.07,0,0,1-2.34.89,3.16,3.16,0,0,1-2.16-.73,3,3,0,0,1-1-2h1.21a2.1,2.1,0,0,0,.61,1.3,1.92,1.92,0,0,0,1.31.43,1.73,1.73,0,0,0,1.4-.6,2.52,2.52,0,0,0,.51-1.67,2.37,2.37,0,0,0-.55-1.62,1.89,1.89,0,0,0-1.46-.61,2.12,2.12,0,0,0-1.31.37l-.34.27Z" transform="translate(92.65 56.5)"/><path class="cls-3" d="M148.61,106.53v1.08h-.24a3.32,3.32,0,0,0-2.36.88,3.65,3.65,0,0,0-1,2.4,2.74,2.74,0,0,1,2.16-.91,2.62,2.62,0,0,1,2.09.92,3.58,3.58,0,0,1,.78,2.39,3.54,3.54,0,0,1-.84,2.47,3.12,3.12,0,0,1-4.6-.17,4.43,4.43,0,0,1-.89-2.85v-.48a6.61,6.61,0,0,1,1.18-4.24,4.33,4.33,0,0,1,3.51-1.49ZM146.94,111a2.06,2.06,0,0,0-1.21.4,2,2,0,0,0-.76,1v.46a3.29,3.29,0,0,0,.56,2,1.65,1.65,0,0,0,1.39.76,1.62,1.62,0,0,0,1.35-.63,2.7,2.7,0,0,0,.49-1.66,2.64,2.64,0,0,0-.5-1.67A1.6,1.6,0,0,0,146.94,111Z" transform="translate(92.65 56.5)"/><path class="cls-3" d="M160.15,109.15a2.34,2.34,0,0,1-.4,1.33,2.74,2.74,0,0,1-1.07.92,2.88,2.88,0,0,1,1.24,1,2.54,2.54,0,0,1,.46,1.47,2.62,2.62,0,0,1-.88,2.07,3.87,3.87,0,0,1-4.63,0,2.64,2.64,0,0,1-.87-2.07,2.55,2.55,0,0,1,.45-1.47,2.8,2.8,0,0,1,1.22-1,2.66,2.66,0,0,1-1-.91,2.43,2.43,0,0,1-.38-1.33,2.58,2.58,0,0,1,.81-2,3,3,0,0,1,2.14-.75,3.05,3.05,0,0,1,2.14.75A2.58,2.58,0,0,1,160.15,109.15Zm-1.05,4.68a1.87,1.87,0,0,0-.53-1.38,1.89,1.89,0,0,0-1.39-.53,1.8,1.8,0,0,0-1.9,1.9,1.79,1.79,0,0,0,.5,1.35,2,2,0,0,0,1.41.48,1.91,1.91,0,0,0,1.4-.49A1.75,1.75,0,0,0,159.1,113.83Zm-1.91-6.39a1.64,1.64,0,0,0-1.21.47,1.91,1.91,0,0,0,0,2.5,1.82,1.82,0,0,0,2.44,0,1.7,1.7,0,0,0,.46-1.24,1.73,1.73,0,0,0-.47-1.25A1.64,1.64,0,0,0,157.19,107.44Z" transform="translate(92.65 56.5)"/><path class="cls-3" d="M169.4,112.15a3.26,3.26,0,0,1-1,.77,2.6,2.6,0,0,1-1.21.28,2.7,2.7,0,0,1-1.51-.42,2.89,2.89,0,0,1-1-1.2,4.18,4.18,0,0,1-.35-1.71,4.29,4.29,0,0,1,.38-1.82,2.9,2.9,0,0,1,1.09-1.23,3.13,3.13,0,0,1,1.64-.43,2.79,2.79,0,0,1,2.34,1.11,4.9,4.9,0,0,1,.85,3v.37a6.52,6.52,0,0,1-1.15,4.28,4.46,4.46,0,0,1-3.49,1.37h-.24v-1.07h.26a3,3,0,0,0,3.35-3.34Zm-2,0a2,2,0,0,0,1.19-.39,2.38,2.38,0,0,0,.79-1v-.51a3.51,3.51,0,0,0-.55-2,1.67,1.67,0,0,0-2.73-.14,2.7,2.7,0,0,0-.5,1.69,2.73,2.73,0,0,0,.49,1.69A1.55,1.55,0,0,0,167.43,112.15Z" transform="translate(92.65 56.5)"/><path class="cls-3" d="M186.15,116.56h-1.28v-8.5l-2.56,1v-1.16l3.64-1.37h.2Z" transform="translate(92.65 56.5)"/><path class="cls-3" d="M199,116.56h-6.57v-.92l3.47-3.85a8.2,8.2,0,0,0,1.06-1.43,2.29,2.29,0,0,0,.29-1.13,1.76,1.76,0,0,0-.47-1.28,1.66,1.66,0,0,0-1.27-.51A2,2,0,0,0,194,108a2.07,2.07,0,0,0-.53,1.51h-1.27a2.93,2.93,0,0,1,.89-2.24,3.29,3.29,0,0,1,2.38-.86,3.17,3.17,0,0,1,2.21.74,2.48,2.48,0,0,1,.82,2c0,1-.63,2.16-1.89,3.52L194,115.52h5Z" transform="translate(92.65 56.5)"/><path class="cls-3" d="M204.72,110.92h1a2.11,2.11,0,0,0,1.42-.47,1.6,1.6,0,0,0,.51-1.25,1.55,1.55,0,0,0-1.75-1.76,1.85,1.85,0,0,0-1.32.47,1.65,1.65,0,0,0-.49,1.25h-1.27a2.57,2.57,0,0,1,.87-2,3.57,3.57,0,0,1,4.43,0,2.73,2.73,0,0,1,.81,2.09,2.22,2.22,0,0,1-.42,1.27,2.73,2.73,0,0,1-1.16.92,2.3,2.3,0,0,1,1.73,2.34,2.76,2.76,0,0,1-.88,2.14,3.31,3.31,0,0,1-2.3.79,3.37,3.37,0,0,1-2.29-.76,2.53,2.53,0,0,1-.88-2H204a1.66,1.66,0,0,0,.51,1.27,2,2,0,0,0,1.38.47,2,2,0,0,0,1.42-.48,1.87,1.87,0,0,0,.49-1.38,1.68,1.68,0,0,0-.54-1.34,2.37,2.37,0,0,0-1.55-.49h-1Z" transform="translate(92.65 56.5)"/><path class="cls-3" d="M218.7,113.19h1.39v1H218.7v2.33h-1.28v-2.33h-4.57v-.75l4.49-7h1.36Zm-4.4,0h3.12v-4.91l-.15.27Z" transform="translate(92.65 56.5)"/><g class="cls-4"><g class="cls-5"><path class="cls-6" d="M43.07,220.13c-74.67,0-135.41-60.75-135.41-135.42V73c0-71.26,58-129.23,129.22-129.23a132.54,132.54,0,0,1,77.28,25.66A138.37,138.37,0,0,1,140-9.8a134.69,134.69,0,0,1,38.45,94.51C178.49,159.38,117.74,220.13,43.07,220.13Z" transform="translate(92.65 56.5)"/><path class="cls-6" d="M43.07,215.59c-72.16,0-130.87-58.71-130.87-130.88V73A124.82,124.82,0,0,1,36.88-51.65,127.85,127.85,0,0,1,111.6-26.77,133.75,133.75,0,0,1,136.79-6.63,130.17,130.17,0,0,1,174,84.71,131,131,0,0,1,43.07,215.59Z" transform="translate(92.65 56.5)"/><path class="cls-6" d="M43.07,211.05A126.48,126.48,0,0,1-83.26,84.71V73A120.28,120.28,0,0,1,36.88-47.11,123.14,123.14,0,0,1,109.05-23,129.07,129.07,0,0,1,133.54-3.46a125.63,125.63,0,0,1,35.87,88.17A126.49,126.49,0,0,1,43.07,211.05Z" transform="translate(92.65 56.5)"/><path class="cls-6" d="M43.07,206.51A121.93,121.93,0,0,1-78.72,84.71V73A115.74,115.74,0,0,1,36.88-42.57,118.51,118.51,0,0,1,106.5-19.25a125.05,125.05,0,0,1,23.79,19,121.15,121.15,0,0,1,34.58,85A121.94,121.94,0,0,1,43.07,206.51Z" transform="translate(92.65 56.5)"/><path class="cls-6" d="M43.07,202A117.39,117.39,0,0,1-74.18,84.71V73A111.19,111.19,0,0,1,36.88-38,113.87,113.87,0,0,1,104-15.49,120.32,120.32,0,0,1,127,2.87a116.64,116.64,0,0,1,33.3,81.84A117.39,117.39,0,0,1,43.07,202Z" transform="translate(92.65 56.5)"/><path class="cls-6" d="M43.07,197.43A112.84,112.84,0,0,1-69.64,84.71V73A106.64,106.64,0,0,1,36.88-33.49a109.09,109.09,0,0,1,64.51,21.77A115,115,0,0,1,123.78,6a112.1,112.1,0,0,1,32,78.67A112.85,112.85,0,0,1,43.07,197.43Z" transform="translate(92.65 56.5)"/><path class="cls-6" d="M43.07,192.89A108.29,108.29,0,0,1-65.1,84.71V73a102.1,102.1,0,0,1,102-102,104.46,104.46,0,0,1,62,21A110.32,110.32,0,0,1,120.53,9.21a107.58,107.58,0,0,1,30.72,75.5A108.3,108.3,0,0,1,43.07,192.89Z" transform="translate(92.65 56.5)"/><path class="cls-6" d="M43.07,188.35A103.75,103.75,0,0,1-60.56,84.71V73A97.56,97.56,0,0,1,36.88-24.41,99.72,99.72,0,0,1,96.28-4.2a105.78,105.78,0,0,1,21,16.58,103.06,103.06,0,0,1,29.43,72.33A103.75,103.75,0,0,1,43.07,188.35Z" transform="translate(92.65 56.5)"/><path class="cls-6" d="M43.07,183.81A99.21,99.21,0,0,1-56,84.71V73a93,93,0,0,1,92.9-92.91A95.1,95.1,0,0,1,93.73-.44a101.48,101.48,0,0,1,20.3,16,98.58,98.58,0,0,1,28.14,69.16A99.22,99.22,0,0,1,43.07,183.81Z" transform="translate(92.65 56.5)"/><path class="cls-6" d="M43.07,179.27A94.66,94.66,0,0,1-51.48,84.71V73A88.46,88.46,0,0,1,36.88-15.33,90.44,90.44,0,0,1,91.17,3.32a96.62,96.62,0,0,1,19.61,15.4,94.06,94.06,0,0,1,26.85,66A94.67,94.67,0,0,1,43.07,179.27Z" transform="translate(92.65 56.5)"/><path class="cls-6" d="M43.07,174.73a90.12,90.12,0,0,1-90-90V73A83.92,83.92,0,0,1,36.88-10.79,85.73,85.73,0,0,1,88.61,7.08a92.14,92.14,0,0,1,18.92,14.81,89.54,89.54,0,0,1,25.56,62.82A90.12,90.12,0,0,1,43.07,174.73Z" transform="translate(92.65 56.5)"/><path class="cls-6" d="M43.07,170.19A85.57,85.57,0,0,1-42.4,84.71V73A79.37,79.37,0,0,1,36.88-6.25,81.08,81.08,0,0,1,86.05,10.84a87.34,87.34,0,0,1,18.23,14.22,85,85,0,0,1,24.27,59.65A85.58,85.58,0,0,1,43.07,170.19Z" transform="translate(92.65 56.5)"/><path class="cls-6" d="M43.07,165.65A81,81,0,0,1-37.86,84.71V73A74.83,74.83,0,0,1,36.88-1.71,76.32,76.32,0,0,1,83.49,14.61,82.8,82.8,0,0,1,101,28.23a80.52,80.52,0,0,1,23,56.48A81,81,0,0,1,43.07,165.65Z" transform="translate(92.65 56.5)"/><path class="cls-6" d="M43.07,161.11a76.48,76.48,0,0,1-76.39-76.4V73A70.29,70.29,0,0,1,36.88,2.83,71.7,71.7,0,0,1,80.93,18.37a77.81,77.81,0,0,1,16.84,13,76,76,0,0,1,21.7,53.32A76.48,76.48,0,0,1,43.07,161.11Z" transform="translate(92.65 56.5)"/><path class="cls-6" d="M43.07,156.57A71.94,71.94,0,0,1-28.78,84.71V73A65.74,65.74,0,0,1,36.88,7.37,67,67,0,0,1,78.36,22.13,73.51,73.51,0,0,1,94.52,34.56a71.47,71.47,0,0,1,20.41,50.15A72,72,0,0,1,43.07,156.57Z" transform="translate(92.65 56.5)"/><path class="cls-6" d="M43.07,152A67.39,67.39,0,0,1-24.24,84.71V73A61.19,61.19,0,0,1,36.88,11.91a62.24,62.24,0,0,1,38.91,14A68.62,68.62,0,0,1,91.27,37.73a67,67,0,0,1,19.12,47A67.4,67.4,0,0,1,43.07,152Z" transform="translate(92.65 56.5)"/><path class="cls-6" d="M43.07,147.49A62.85,62.85,0,0,1-19.7,84.71V73A56.65,56.65,0,0,1,36.88,16.45,57.61,57.61,0,0,1,73.22,29.66,64.06,64.06,0,0,1,88,40.9a62.41,62.41,0,0,1,17.83,43.81A62.85,62.85,0,0,1,43.07,147.49Z" transform="translate(92.65 56.5)"/><path class="cls-6" d="M43.07,143A58.3,58.3,0,0,1-15.16,84.71V73A52.11,52.11,0,0,1,36.88,21,52.93,52.93,0,0,1,70.65,33.43,59.59,59.59,0,0,1,84.77,44.07,58.23,58.23,0,0,1,43.07,143Z" transform="translate(92.65 56.5)"/><path class="cls-6" d="M43.07,138.41a53.76,53.76,0,0,1-53.69-53.7V73a47.56,47.56,0,0,1,47.5-47.51A48.24,48.24,0,0,1,68.07,37.2a54.73,54.73,0,0,1,13.45,10,53.69,53.69,0,0,1-38.45,91.17Z" transform="translate(92.65 56.5)"/><path class="cls-6" d="M43.07,133.87A49.21,49.21,0,0,1-6.08,84.71V73a43,43,0,0,1,43-43A43.56,43.56,0,0,1,65.49,41a50,50,0,0,1,12.78,9.44,49.15,49.15,0,0,1-35.2,83.46Z" transform="translate(92.65 56.5)"/><path class="cls-6" d="M43.07,129.33A44.67,44.67,0,0,1-1.54,84.71V73A38.42,38.42,0,0,1,62.89,44.75,45.25,45.25,0,0,1,75,53.58a44.61,44.61,0,0,1-31.95,75.75Z" transform="translate(92.65 56.5)"/><path class="cls-6" d="M43.07,124.79A40.12,40.12,0,0,1,3,84.71V73A33.89,33.89,0,0,1,60.29,48.53a40.49,40.49,0,0,1,11.47,8.22,40.06,40.06,0,0,1-28.69,68Z" transform="translate(92.65 56.5)"/><path class="cls-6" d="M43.07,120.25A35.57,35.57,0,0,1,7.54,84.71V73A29.34,29.34,0,0,1,57.67,52.32a35.7,35.7,0,0,1,10.84,7.6,35.53,35.53,0,0,1-25.44,60.33Z" transform="translate(92.65 56.5)"/><path class="cls-6" d="M43.07,115.71a31,31,0,0,1-31-31V73A24.81,24.81,0,0,1,55,56.12a31.23,31.23,0,0,1,10.23,7,31,31,0,0,1-22.19,52.63Z" transform="translate(92.65 56.5)"/><path class="cls-6" d="M43.07,111.17A26.49,26.49,0,0,1,16.62,84.71V73a20.26,20.26,0,0,1,35.73-13.1A26.58,26.58,0,0,1,62,66.25a26.46,26.46,0,0,1-18.94,44.92Z" transform="translate(92.65 56.5)"/><path class="cls-6" d="M43.07,106.63A21.94,21.94,0,0,1,21.16,84.71V73a15.73,15.73,0,0,1,28.45-9.25,21.92,21.92,0,0,1-6.54,42.84Z" transform="translate(92.65 56.5)"/><path class="cls-6" d="M43.07,102.09A17.4,17.4,0,0,1,25.7,84.71V73a11.18,11.18,0,0,1,21-5.31,17.38,17.38,0,0,1-3.66,34.36Z" transform="translate(92.65 56.5)"/><path class="cls-6" d="M43.07,97.55A12.85,12.85,0,0,1,30.24,84.71V73a6.64,6.64,0,0,1,13.19-1.15,12.83,12.83,0,0,1-.36,25.66Z" transform="translate(92.65 56.5)"/><path class="cls-6" d="M43.07,76.42A8.17,8.17,0,0,0,39,77.5V73a2.11,2.11,0,1,0-4.21,0V84.71a8.29,8.29,0,1,0,8.29-8.29Z" transform="translate(92.65 56.5)"/><path class="cls-6" d="M47.18,84.72a4.1,4.1,0,0,1-4.09,4.1,4.18,4.18,0,0,1-.72-.07,2.67,2.67,0,0,1-3.07.39l1-.79a5.27,5.27,0,0,1-1.46-.16,2.27,2.27,0,0,1-1.44-1.86,3.74,3.74,0,0,0,1.94,0,4.09,4.09,0,0,1,3.75-5.7,3.43,3.43,0,0,1,.56,0h0l.26,0,.1,0,.1,0a4.1,4.1,0,0,1,2.51,1.88l1.41.23-.85,1.65A1.34,1.34,0,0,1,47.18,84.72Z" transform="translate(92.65 56.5)"/><circle class="cls-3" cx="137.36" cy="139.7" r="0.58"/></g></g><text class="cls-7" transform="translate(128.27 191.69)">cvv:777</text><path class="cls-3" d="M162.37,132.56H159.9v2h2.86v.61h-3.61v-5.68h3.57v.61H159.9V132h2.47Z" transform="translate(92.65 56.5)"/><path class="cls-3" d="M165.55,131.68l1.37-2.17h.88l-1.8,2.82,1.84,2.86H167l-1.4-2.22-1.4,2.22h-.89l1.84-2.86-1.8-2.82h.88Z" transform="translate(92.65 56.5)"/><path class="cls-3" d="M169.46,133v2.22h-.75v-5.68h2.1a2.09,2.09,0,0,1,1.46.47,1.63,1.63,0,0,1,.53,1.26,1.58,1.58,0,0,1-.52,1.28,2.16,2.16,0,0,1-1.48.45Zm0-.62h1.35a1.33,1.33,0,0,0,.92-.28,1,1,0,0,0,.32-.82,1,1,0,0,0-.32-.81,1.29,1.29,0,0,0-.88-.32h-1.39Z" transform="translate(92.65 56.5)"/><path class="cls-3" d="M173.62,134.81a.47.47,0,0,1,.11-.31.51.51,0,0,1,.68,0,.47.47,0,0,1,.11.31.49.49,0,0,1-.11.31.54.54,0,0,1-.68,0A.49.49,0,0,1,173.62,134.81Zm0-2.94a.44.44,0,0,1,.11-.31.42.42,0,0,1,.33-.12.45.45,0,0,1,.34.12.44.44,0,0,1,.11.31.4.4,0,0,1-.11.3.45.45,0,0,1-.34.12.42.42,0,0,1-.33-.12A.4.4,0,0,1,173.63,131.87Z" transform="translate(92.65 56.5)"/><path class="cls-3" d="M180.42,135.19h-.73v-4.82l-1.46.54v-.66l2.07-.77h.12Z" transform="translate(92.65 56.5)"/><path class="cls-3" d="M185.58,133.28h.79v.59h-.79v1.32h-.73v-1.32h-2.58v-.42l2.54-3.94h.77Zm-2.49,0h1.76v-2.79l-.08.16Z" transform="translate(92.65 56.5)"/><path class="cls-3" d="M190.59,132.77a3.29,3.29,0,0,1-.43,1.88,1.57,1.57,0,0,1-1.36.62,1.56,1.56,0,0,1-1.35-.6,3.13,3.13,0,0,1-.45-1.8v-1a3.19,3.19,0,0,1,.43-1.86,1.83,1.83,0,0,1,2.71,0,3.1,3.1,0,0,1,.45,1.81Zm-.72-1a2.68,2.68,0,0,0-.26-1.34.89.89,0,0,0-.82-.42.88.88,0,0,0-.81.42,2.64,2.64,0,0,0-.26,1.28v1.16a2.64,2.64,0,0,0,.27,1.36,1,1,0,0,0,1.61,0,2.67,2.67,0,0,0,.27-1.31Z" transform="translate(92.65 56.5)"/><path class="cls-3" d="M195.08,132.77a3.29,3.29,0,0,1-.43,1.88,1.81,1.81,0,0,1-2.71,0,3.13,3.13,0,0,1-.45-1.8v-1a3.19,3.19,0,0,1,.43-1.86,1.83,1.83,0,0,1,2.71,0,3.1,3.1,0,0,1,.45,1.81Zm-.72-1a2.68,2.68,0,0,0-.26-1.34.89.89,0,0,0-.82-.42.88.88,0,0,0-.81.42,2.64,2.64,0,0,0-.26,1.28v1.16a2.64,2.64,0,0,0,.27,1.36,1,1,0,0,0,1.61,0,2.67,2.67,0,0,0,.27-1.31Z" transform="translate(92.65 56.5)"/><path class="cls-3" d="M196.22,135.68h-.62l2.37-6.17h.62Z" transform="translate(92.65 56.5)"/><path class="cls-3" d="M201.68,135.19H201v-4.82l-1.46.54v-.66l2.07-.77h.12Z" transform="translate(92.65 56.5)"/><path class="cls-3" d="M207.36,132.77a3.29,3.29,0,0,1-.43,1.88,1.81,1.81,0,0,1-2.71,0,3.13,3.13,0,0,1-.45-1.8v-1a3.19,3.19,0,0,1,.43-1.86,1.83,1.83,0,0,1,2.71,0,3.1,3.1,0,0,1,.45,1.81Zm-.72-1a2.68,2.68,0,0,0-.26-1.34.89.89,0,0,0-.82-.42.88.88,0,0,0-.81.42,2.64,2.64,0,0,0-.26,1.28v1.16a2.64,2.64,0,0,0,.27,1.36,1,1,0,0,0,1.61,0,2.67,2.67,0,0,0,.27-1.31Z" transform="translate(92.65 56.5)"/><path class="cls-3" d="M208.5,135.68h-.62l2.37-6.17h.62Z" transform="translate(92.65 56.5)"/><path class="cls-3" d="M215.15,132.77a3.28,3.28,0,0,1-.44,1.88,1.8,1.8,0,0,1-2.7,0,3.13,3.13,0,0,1-.45-1.8v-1A3.19,3.19,0,0,1,212,130a1.83,1.83,0,0,1,2.71,0,3.1,3.1,0,0,1,.45,1.81Zm-.72-1a2.68,2.68,0,0,0-.26-1.34.9.9,0,0,0-.82-.42.88.88,0,0,0-.81.42,2.53,2.53,0,0,0-.26,1.28v1.16a2.64,2.64,0,0,0,.27,1.36,1,1,0,0,0,1.61,0,2.67,2.67,0,0,0,.27-1.31Z" transform="translate(92.65 56.5)"/><path class="cls-3" d="M219.12,133.28h.79v.59h-.79v1.32h-.72v-1.32h-2.59v-.42l2.54-3.94h.77Zm-2.49,0h1.77v-2.79l-.09.16Z" transform="translate(92.65 56.5)"/><text class="cls-8" transform="translate(254.67 103.55)">Bank, but lovely</text></g></g></svg>