<svg xmlns="http://www.w3.org/2000/svg" width="66" height="66" viewBox="0 0 66 66">
    <defs>
        <filter id="Ellipse_851" width="66" height="66" x="0" y="0" filterUnits="userSpaceOnUse">
            <feOffset dy="3"/>
            <feGaussianBlur result="blur" stdDeviation="3"/>
            <feFlood flood-opacity=".161"/>
            <feComposite in2="blur" operator="in"/>
            <feComposite in="SourceGraphic"/>
        </filter>
        <style>
            .cls-2{fill:#fff}
        </style>
    </defs>
    <g id="Group_3822" transform="translate(4640 -380)">
        <g filter="url(#Ellipse_851)" transform="translate(-4640 380)">
            <circle id="Ellipse_851-2" cx="24" cy="24" r="24" fill="#43e6c5" transform="translate(9 6)"/>
        </g>
        <g id="lock" transform="translate(-4620 397)">
            <path id="Path_2879" d="M20.625 10.291V7.125a7.125 7.125 0 1 0-14.25 0v3.167A2.375 2.375 0 0 0 4 12.666v5.542a7.124 7.124 0 0 0 7.125 7.125h4.75A7.124 7.124 0 0 0 23 18.208v-5.542a2.375 2.375 0 0 0-2.375-2.375zM7.958 7.125a5.542 5.542 0 1 1 11.083 0v3.167h-1.583V7.126a3.958 3.958 0 1 0-7.916 0v3.165H7.958zm8.708 0v3.167h-6.333V7.125a3.167 3.167 0 1 1 6.333 0zm4.75 7.916v3.167a5.549 5.549 0 0 1-5.542 5.542h-4.75a5.549 5.549 0 0 1-5.542-5.542v-5.542a.792.792 0 0 1 .792-.792h14.25a.792.792 0 0 1 .792.792z" class="cls-2"/>
            <path id="Path_2880" d="M15.583 19A1.583 1.583 0 0 0 14 20.583a7.953 7.953 0 0 0 .528 2.115c.215.587.486 1.05 1.055 1.05.619 0 .84-.458 1.056-1.042a7.873 7.873 0 0 0 .527-2.123A1.583 1.583 0 0 0 15.583 19z" class="cls-2" transform="translate(-2.084 -3.959)"/>
        </g>
    </g>
</svg>
