<svg xmlns="http://www.w3.org/2000/svg" width="66" height="66" viewBox="0 0 66 66">
    <defs>
        <filter id="Ellipse_852" width="66" height="66" x="0" y="0" filterUnits="userSpaceOnUse">
            <feOffset dy="3"/>
            <feGaussianBlur result="blur" stdDeviation="3"/>
            <feFlood flood-opacity=".161"/>
            <feComposite in2="blur" operator="in"/>
            <feComposite in="SourceGraphic"/>
        </filter>
        <style>
            .cls-2{fill:#fff;fill-rule:evenodd}
        </style>
    </defs>
    <g id="Group_3823" transform="translate(4655 -281)">
        <g filter="url(#Ellipse_852)" transform="translate(-4655 281)">
            <circle id="Ellipse_852-2" cx="24" cy="24" r="24" fill="#43e6c5" transform="translate(9 6)"/>
        </g>
        <g id="settings_2_" transform="translate(-4632 301)">
            <path id="Path_2876" d="M4.969 3.74V1.863a1.863 1.863 0 0 0-3.726 0V3.74a3.078 3.078 0 0 0 0 4.941v9.33a1.863 1.863 0 0 0 3.726 0v-9.33a3.078 3.078 0 0 0 0-4.941zM2.484 1.863a.621.621 0 0 1 1.242 0v1.3a3.136 3.136 0 0 0-1.242 0zm1.242 16.148a.621.621 0 0 1-1.242 0V9.253a3.076 3.076 0 0 0 1.242 0zM4.885 6.732l-.03.1a1.828 1.828 0 0 1-.235.457l-.009.01a1.879 1.879 0 0 1-.383.389h-.006a1.84 1.84 0 0 1-.5.267 1.818 1.818 0 0 1-.62.115 1.81 1.81 0 0 1-.621-.116 1.84 1.84 0 0 1-.5-.267h-.006A1.879 1.879 0 0 1 1.6 7.3l-.009-.01a1.85 1.85 0 0 1-.235-.457c-.012-.033-.02-.065-.03-.1a1.673 1.673 0 0 1 0-1.044l.03-.1a1.816 1.816 0 0 1 .235-.458l.009-.01a1.91 1.91 0 0 1 .383-.389h.006a1.9 1.9 0 0 1 .5-.266 1.839 1.839 0 0 1 .621-.114 1.839 1.839 0 0 1 .621.114 1.911 1.911 0 0 1 .5.267h.006a1.91 1.91 0 0 1 .383.389l.009.01a1.821 1.821 0 0 1 .234.458c.012.032.021.064.03.1a1.669 1.669 0 0 1 0 1.045z" class="cls-2"/>
            <path id="Path_2877" d="M26.969 3.74V1.863a1.863 1.863 0 1 0-3.726 0V3.74a3.078 3.078 0 0 0 0 4.941v9.33a1.863 1.863 0 1 0 3.726 0v-9.33a3.078 3.078 0 0 0 0-4.941zm-2.485-1.877a.621.621 0 0 1 1.242 0v1.3a3.136 3.136 0 0 0-1.242 0zm1.242 16.148a.621.621 0 1 1-1.242 0V9.253a3.076 3.076 0 0 0 1.242 0zm1.159-11.279l-.03.1a1.83 1.83 0 0 1-.235.457l-.009.01a1.892 1.892 0 0 1-.382.389h-.006a1.849 1.849 0 0 1-.5.267 1.857 1.857 0 0 1-1.738-.268h-.006A1.867 1.867 0 0 1 23.6 7.3l-.009-.01a1.848 1.848 0 0 1-.234-.457c-.012-.033-.02-.065-.03-.1a1.673 1.673 0 0 1 0-1.044c.01-.033.018-.065.03-.1a1.856 1.856 0 0 1 .234-.458l.009-.01a1.9 1.9 0 0 1 .383-.389h.006a1.9 1.9 0 0 1 .5-.267 1.748 1.748 0 0 1 1.242 0 1.921 1.921 0 0 1 .5.267h.006a1.923 1.923 0 0 1 .382.389l.009.01a1.882 1.882 0 0 1 .235.458c.011.032.02.065.03.1a1.673 1.673 0 0 1 0 1.044z" class="cls-2" transform="translate(-8.336)"/>
            <path id="Path_2878" d="M15.969 11.192V1.863a1.863 1.863 0 1 0-3.726 0v9.329a3.078 3.078 0 0 0 0 4.941v1.878a1.863 1.863 0 0 0 3.726 0v-1.877a3.078 3.078 0 0 0 0-4.941zm-2.485-9.329a.621.621 0 1 1 1.242 0v8.757a3.2 3.2 0 0 0-.621-.062 3.144 3.144 0 0 0-.621.062zm1.242 16.148a.621.621 0 0 1-1.242 0v-1.305a3.076 3.076 0 0 0 1.242 0zm1.158-3.826l-.03.1a1.83 1.83 0 0 1-.235.457l-.009.01a1.892 1.892 0 0 1-.382.389h-.006a1.849 1.849 0 0 1-.5.267 1.73 1.73 0 0 1-1.242 0 1.84 1.84 0 0 1-.5-.267h-.006a1.879 1.879 0 0 1-.383-.389l-.009-.01a1.85 1.85 0 0 1-.235-.457c-.012-.033-.02-.065-.03-.1a1.673 1.673 0 0 1 0-1.044l.03-.1a1.858 1.858 0 0 1 .235-.458l.009-.01a1.91 1.91 0 0 1 .383-.389h.006a1.911 1.911 0 0 1 .5-.267 1.748 1.748 0 0 1 1.242 0 1.921 1.921 0 0 1 .5.267h.006a1.923 1.923 0 0 1 .382.389l.009.01a1.882 1.882 0 0 1 .235.458c.011.032.02.065.03.1a1.673 1.673 0 0 1 0 1.044z" class="cls-2" transform="translate(-4.168)"/>
        </g>
    </g>
</svg>
