<svg xmlns="http://www.w3.org/2000/svg" width="106.44" height="49.535" viewBox="0 0 106.44 49.535">
    <defs>
        <style>
            .cls-1{fill:#307fe2}
        </style>
    </defs>
    <g id="Group_6369" transform="translate(-92.08 -1804.543)">
        <g id="Group_6366" transform="translate(134.654 1804.548)">
            <path id="Path_2966" d="M147.521 1854.078a16.83 16.83 0 0 1-16.812-16.812v-28a4.722 4.722 0 1 1 9.443 0v28a7.377 7.377 0 0 0 7.369 7.369 4.721 4.721 0 1 1 0 9.443z" class="cls-1" transform="translate(-130.709 -1804.548)"/>
        </g>
        <path id="Path_2967" d="M190.25 1844.447a7.321 7.321 0 0 1-2.938-5.89v-.851c.009-.21.017-.422.017-.635v-16.594a4.722 4.722 0 1 0-9.443 0l-.017 17.026a6.427 6.427 0 0 1-6.4 5.989 7.377 7.377 0 0 1-7.369-7.369v-15.686a4.722 4.722 0 1 0-9.443 0v15.686a16.831 16.831 0 0 0 16.812 16.812 15.792 15.792 0 0 0 10.2-3.726 17.135 17.135 0 0 0 2.9 2.777 4.722 4.722 0 1 0 5.686-7.54z" class="cls-1" transform="translate(6.391 1.141)"/>
        <g id="Group_6368" transform="translate(92.08 1804.543)">
            <path id="Path_2968" d="M110.692 1816.857a18.5 18.5 0 0 0-9.169 2.425v-10.017a4.722 4.722 0 1 0-9.443 0v26.2a18.611 18.611 0 1 0 18.612-18.611zm9.217 18.634a9.181 9.181 0 0 1-10.791 9.042 6.01 6.01 0 0 1-6.9.882l2.206-1.783a11.939 11.939 0 0 1-3.278-.365c-2.928-.928-3.224-4.176-3.224-4.176a8.583 8.583 0 0 0 4.352.017 9.157 9.157 0 0 1 9.673-12.718h.019c.192.026.382.057.57.1.082.017.162.039.242.056l.226.054a9.2 9.2 0 0 1 5.618 4.216l3.173.521-1.9 3.7c.005.146.014.3.014.454z" class="cls-1" transform="translate(-92.08 -1804.543)"/>
            <g id="Group_6367" transform="translate(20.97 26.233)">
                <circle id="Ellipse_859" cx="1.306" cy="1.306" r="1.306" class="cls-1"/>
            </g>
        </g>
    </g>
</svg>
