<svg id="edit" xmlns="http://www.w3.org/2000/svg" width="24" height="24" viewBox="0 0 24 24">
  <defs>
    <style>
      .cls-1 {
        fill: #0c96ff;
      }

      .cls-2 {
        fill: none;
      }
    </style>
  </defs>
  <path id="Vector" class="cls-1" d="M16.053.73a2.5,2.5,0,0,0-3.529,0l-.883.888-9.4,9.4-.02.02s0,.01-.01.01c-.01.015-.025.03-.035.045s-.005,0-.005.01-.015.025-.025.04,0,.01-.01.015-.01.025-.015.04,0,0,0,.01L.027,17.481a.491.491,0,0,0,.12.509.5.5,0,0,0,.354.145.591.591,0,0,0,.16-.025l6.269-2.092s0,0,.01,0a.181.181,0,0,0,.045-.02.017.017,0,0,0,.01,0c.015-.01.035-.02.05-.03s.03-.025.045-.035.01-.005.01-.01.015-.01.02-.02L17.405,5.607a2.5,2.5,0,0,0,0-3.529ZM6.769,14.846,3.3,11.372l8.694-8.7,3.474,3.474ZM2.806,12.3,5.841,15.33,1.284,16.847ZM16.7,4.908l-.529.534L12.7,1.968l.534-.534a1.5,1.5,0,0,1,2.116,0l1.357,1.358A1.5,1.5,0,0,1,16.7,4.908Z" transform="translate(3.293 3.293)"/>
  <rect id="Rectangle_414" data-name="Rectangle 414" class="cls-2" width="24" height="24"/>
</svg>
