<svg xmlns="http://www.w3.org/2000/svg" width="334" height="245.032" viewBox="0 0 334 245.032">
    <defs>
        <linearGradient id="linear-gradient" x1="30.813" x2="30.813" y1="3.039" y2="4.039" gradientUnits="objectBoundingBox">
            <stop offset="0" stop-color="gray" stop-opacity=".251"/>
            <stop offset=".54" stop-color="gray" stop-opacity=".122"/>
            <stop offset="1" stop-color="gray" stop-opacity=".102"/>
        </linearGradient>
        <style>
            .cls-11{fill:#6c63ff}.cls-3{fill:#43e6c5}.cls-4{fill:#8ed16f}.cls-12,.cls-5{fill:#0498db}.cls-12{opacity:.3}.cls-9{fill:#0c96ff}.cls-15{fill:#2f2e41}.cls-16{fill:#ffb9b9}.cls-17{fill:#e6e6e6}.cls-18{opacity:.1;isolation:isolate}
        </style>
    </defs>
    <g id="Group_2891" transform="translate(-41 -281.103)">
        <g id="undraw_make_it_rain_iwk4" transform="translate(41 281.103)">
            <path id="Path_2239" fill="#6c63ff" d="M189.1 281.936c-4.393 1.327-8.5 4.54-9.6 9-1.255 5.123 1.639 10.288 2.057 15.548 1.351 17.235-23.167 29.395-19.67 46.325 1.389 6.731 7 11.683 12.534 15.774 8.861 6.533 18.692 12.3 29.58 13.933 16.525 2.476 33.791-4.8 49.853-.2 12.955 3.71 22.869 14.584 35.735 18.6 9.794 3.055 20.345 1.852 30.52.614 5.487-.665 11.234-1.433 15.661-4.725 8.23-6.128 8.748-18.229 14.258-26.9 8.511-13.374 27.173-16 42.82-13.4s30.842 9 46.695 8.477a21.315 21.315 0 0 0 9.814-2.236c3.594-2.02 6.022-5.579 8.168-9.1a147.266 147.266 0 0 0 21.353-73.175c.093-4.441-.065-9.074-2.154-12.993-2.64-4.959-7.918-7.925-13.172-9.921-12.616-4.8-26.552-5.586-38.914-11-11.923-5.223-21.58-14.382-31.963-22.231a170.254 170.254 0 0 0-70.123-31.229c-5.963-1.152-12.153-1.975-18.079-.645-6.827 1.533-12.712 5.788-18 10.37-14.077 12.187-25.359 27.224-38.331 40.581a218.233 218.233 0 0 1-29.12 25.112c-4.8 3.46-9.9 7.568-15.253 10.126-4.901 2.324-9.492 1.734-14.669 3.295z" opacity="0.2" transform="translate(-144.897 -157.799)"/>
            <path id="Path_2240" fill="none" stroke="#01065d" stroke-miterlimit="10" stroke-width="2px" d="M385.987 138.88s-13.254 17.6-3.772 38.119-16.525 53.481-16.525 53.481" transform="translate(-279.038 -123.058)"/>
            <path id="Path_2241" d="M425.789 101.974c-1.053 4.53-6.09 7.229-6.09 7.229s-3.326-4.647-2.274-9.176 3.772-7.767 6.09-7.229 3.327 4.646 2.274 9.176z" class="cls-3" transform="translate(-312.898 -92.739)"/>
            <ellipse id="Ellipse_743" cx="2.644" cy=".991" class="cls-4" rx="2.644" ry=".991" transform="rotate(-76.9 60.146 -62.08)"/>
            <ellipse id="Ellipse_744" cx="2.644" cy=".991" class="cls-5" rx="2.644" ry=".991" transform="rotate(-76.9 60.146 -62.08)"/>
            <path id="Path_2242" d="M417.559 161.152c-4.376 1.577-9.379-1.186-9.379-1.186s2.092-5.319 6.471-6.893 8.573-1.029 9.379 1.186-2.096 5.316-6.471 6.893z" class="cls-3" transform="translate(-306.958 -131.791)"/>
            <ellipse id="Ellipse_745" cx="2.644" cy=".991" class="cls-4" rx="2.644" ry=".991" transform="rotate(-20 124.498 -290.421)"/>
            <ellipse id="Ellipse_746" cx="2.644" cy=".991" class="cls-5" rx="2.644" ry=".991" transform="rotate(-20 124.498 -290.421)"/>
            <path id="Path_2243" d="M414.589 207.922c-4.376 1.577-9.379-1.186-9.379-1.186s2.092-5.319 6.471-6.893 8.573-1.029 9.379 1.186-2.096 5.319-6.471 6.893z" class="cls-3" transform="translate(-305.006 -162.523)"/>
            <ellipse id="Ellipse_747" cx="2.644" cy=".991" class="cls-4" rx="2.644" ry=".991" transform="rotate(-19.8 170.595 -280.924)"/>
            <ellipse id="Ellipse_748" cx="2.644" cy=".991" class="cls-5" rx="2.644" ry=".991" transform="rotate(-19.8 170.595 -280.924)"/>
            <path id="Path_2244" d="M429.5 262.792c-4.376 1.577-9.379-1.187-9.379-1.187s2.092-5.319 6.471-6.893 8.573-1.029 9.379 1.186-2.097 5.327-6.471 6.894z" class="cls-3" transform="translate(-314.803 -198.577)"/>
            <ellipse id="Ellipse_749" cx="2.644" cy=".991" class="cls-4" rx="2.644" ry=".991" transform="rotate(-19.8 227.08 -286.163)"/>
            <ellipse id="Ellipse_750" cx="2.644" cy=".991" class="cls-5" rx="2.644" ry=".991" transform="rotate(-19.8 227.08 -286.163)"/>
            <path id="Path_2245" d="M419.8 312.972c-4.376 1.577-9.379-1.186-9.379-1.186s2.092-5.319 6.471-6.893 8.573-1.029 9.379 1.186-2.093 5.321-6.471 6.893z" class="cls-3" transform="translate(-308.43 -231.55)"/>
            <ellipse id="Ellipse_751" cx="2.644" cy=".991" class="cls-4" rx="2.644" ry=".991" transform="rotate(-20 273.294 -266.601)"/>
            <ellipse id="Ellipse_752" cx="2.644" cy=".991" class="cls-5" rx="2.644" ry=".991" transform="rotate(-20 273.294 -266.601)"/>
            <path id="Path_2246" d="M371.16 173c3.23 3.347 8.94 3.086 8.94 3.086s.47-5.7-2.76-9.043-7.232-4.725-8.94-3.086-.471 5.696 2.76 9.043z" class="cls-3" transform="translate(-280.314 -139.082)"/>
            <ellipse id="Ellipse_753" cx=".991" cy="2.644" class="cls-4" rx=".991" ry="2.644" transform="rotate(-44.03 82.38 -98.359)"/>
            <ellipse id="Ellipse_754" cx=".991" cy="2.644" class="cls-5" rx=".991" ry="2.644" transform="rotate(-44.03 82.38 -98.359)"/>
            <path id="Path_2247" d="M365.75 327.99c3.23 3.347 8.94 3.086 8.94 3.086s.47-5.7-2.76-9.043-7.232-4.725-8.94-3.086-.471 5.696 2.76 9.043z" class="cls-3" transform="translate(-276.759 -240.923)"/>
            <ellipse id="Ellipse_755" cx=".991" cy="2.644" class="cls-4" rx=".991" ry="2.644" transform="rotate(-44.03 147.183 -69.481)"/>
            <ellipse id="Ellipse_756" cx=".991" cy="2.644" class="cls-5" rx=".991" ry="2.644" transform="rotate(-44.03 147.183 -69.481)"/>
            <path id="Path_2248" d="M373.773 228.752c4.163 2.078 9.454-.082 9.454-.082s-1.457-5.524-5.617-7.6-8.395-2.058-9.454.082 1.454 5.522 5.617 7.6z" class="cls-3" transform="translate(-280.499 -176.049)"/>
            <ellipse id="Ellipse_757" cx=".991" cy="2.644" class="cls-4" rx=".991" ry="2.644" transform="rotate(-63.48 85.36 -50.521)"/>
            <ellipse id="Ellipse_758" cx=".991" cy="2.644" class="cls-5" rx=".991" ry="2.644" transform="rotate(-63.48 85.36 -50.521)"/>
            <path id="Path_2249" d="M378.865 283.322c4.163 2.078 9.454-.082 9.454-.082s-1.457-5.524-5.617-7.6-8.395-2.057-9.454.082 1.471 5.543 5.617 7.6z" class="cls-3" transform="translate(-283.846 -211.906)"/>
            <ellipse id="Ellipse_759" cx=".991" cy="2.644" class="cls-4" rx=".991" ry="2.644" transform="rotate(-63.48 101.36 -42.576)"/>
            <ellipse id="Ellipse_760" cx=".991" cy="2.644" class="cls-5" rx=".991" ry="2.644" transform="rotate(-63.48 101.36 -42.576)"/>
            <path id="Path_2250" fill="#1cddb5" d="M189.954 249.21s24.206 24.206 10.541 60.127 23.425 95.653 23.425 95.653-.4-.058-1.135-.189c-49.723-8.775-74.413-65.638-46.774-107.878 10.264-15.705 18.717-34.123 13.943-47.713z" transform="translate(-146.839 -195.554)"/>
            <path id="Path_2251" d="M113 534.14s27.622-4.4 30.139 20.356 53.114 28.188 53.114 28.188-.343.226-.95.631c-41.778 27.433-81.714 17.468-75.7-18.946 2.248-13.542 2.063-27.139-6.603-30.229z" class="cls-3" transform="translate(-113 -382.577)"/>
            <g id="Group_2883" opacity="0.3" transform="translate(0 151.26)">
                <path id="Path_2252" fill="#00ffca" d="M113 534.14s27.622-4.4 30.139 20.356 53.114 28.188 53.114 28.188-.343.226-.95.631c-41.778 27.433-81.714 17.468-75.7-18.946 2.248-13.542 2.063-27.139-6.603-30.229z" transform="translate(-113 -533.838)"/>
            </g>
            <ellipse id="Ellipse_761" cx="7.596" cy="19.817" class="cls-4" rx="7.596" ry="19.817" transform="translate(28.527 111.623)"/>
            <ellipse id="Ellipse_762" cx="7.596" cy="19.817" class="cls-9" rx="7.596" ry="19.817" transform="translate(28.527 111.623)"/>
            <ellipse id="Ellipse_763" cx="5.12" cy="11.395" class="cls-4" rx="5.12" ry="11.395" transform="rotate(-45 238.305 76.515)"/>
            <ellipse id="Ellipse_764" cx="5.12" cy="11.395" class="cls-9" rx="5.12" ry="11.395" transform="rotate(-45 238.305 76.515)"/>
            <rect id="Rectangle_17420" width="191.57" height="118.907" fill="#00afff" rx="24.81" transform="translate(62.545 92.464)"/>
            <path id="Rectangle_17421" d="M0 0H191.57V21.799H0z" class="cls-11" transform="translate(62.545 113.273)"/>
            <path id="Rectangle_17422" d="M0 0H191.57V21.799H0z" class="cls-12" transform="translate(62.545 113.273)"/>
            <path id="Rectangle_17423" fill="#fff" d="M0 0H155.238V10.569H0z" transform="translate(80.712 151.258)"/>
            <circle id="Ellipse_765" cx="15.195" cy="15.195" r="15.195" class="cls-11" transform="translate(78.398 173.057)"/>
            <circle id="Ellipse_766" cx="15.195" cy="15.195" r="15.195" class="cls-12" transform="translate(78.398 173.057)"/>
        </g>
        <g id="Group_2890" transform="translate(273.586 337.111)">
            <path id="Path_2422" fill="url(#linear-gradient)" d="M287.268 288.572c-.251.806-.474 1.575-.661 2.236l.117.042c.145-.612.33-1.405.544-2.278zm6.969-19.626l.035.02-.033-.031z" transform="translate(-255.098 -245.995)"/>
            <path id="Path_2423" d="M262.438 692.176c1.311.421 2.3 8.478 2.3 8.478l-8.15 2.013s-5.716.844-8.432 0-2.623-3.185 1.264-3.56 6.652-5.385 6.652-5.385 5.055-1.966 6.366-1.546z" class="cls-15" transform="translate(-214.757 -555.823)"/>
            <path id="Path_2424" d="M222.432 696.864a4.908 4.908 0 0 0 .317 1.892 16.533 16.533 0 0 1 .819 6.134q-.026.372-.059.78c-.282 3.231-8.1 1.22-8.619.844s1.542-9.65 1.542-9.65 6.13-1.311 6 0z" class="cls-15" transform="translate(-165.187 -558.871)"/>
            <path id="Path_2425" d="M266.688 229.389a.024.024 0 0 0 0 .009c-.165.405-6.3 15.458-5.194 10.535a3.015 3.015 0 0 0 .066-.445 6.273 6.273 0 0 0-1.394-3.861 19.034 19.034 0 0 0-1.945-2.326c-.355-.368-.723-.727-1.095-1.075-1.022-.958-2.086-1.835-3.029-2.566-1.694-1.322-3-2.161-3-2.161s11.872-13.842 11.031-7.87c-.231 1.637-1.2 3.269-.542 4.784a8.268 8.268 0 0 0 1.793 2.562 13.561 13.561 0 0 0 1.941 1.593c.3.2.566.368.784.5.357.208.584.321.584.321z" class="cls-16" transform="translate(-218.001 -208.801)"/>
            <path id="Path_2426" d="M409.873 322.511s-.467-.26-1.172-.571c-2.073-.9-6.212-2.225-6.734 1.414-.7 4.881 3.952 4.319 3.952 4.319a21.749 21.749 0 0 1 2.822-.857 3.624 3.624 0 0 1 1.447-.09z" class="cls-16" transform="translate(-401.896 -284.073)"/>
            <path id="Path_2427" d="M402.244 329.6h-1.4c-.815-1.1-.192-5.286-.192-5.286l1.218.22z" class="cls-17" transform="translate(-393.557 -286.537)"/>
            <path id="Path_2428" d="M315.5 355.85l-.233 12.317-1.542 5.808s-.758 5.621-1.687 5.152-4.894.866-4.894.866l-.187-2.084 1.335-12.247 1.031-6.112s.586-4.8 1.031-7.612 4.167-.584 4.167-.584z" class="cls-15" transform="translate(-281.781 -305.724)"/>
            <path id="Path_2429" d="M340.09 312.594a14.266 14.266 0 0 0-5.8 0l-14.758.326a6.349 6.349 0 0 1-.808-6.745s7.238-.284 13.1-1.161a17.862 17.862 0 0 0 9.729-5.234z" class="cls-15" transform="translate(-310.823 -268.578)"/>
            <path id="Path_2430" d="M279.009 219.63c.841-5.971-11.031 7.87-11.031 7.87s1.308.839 3 2.161c.156.011.313.011.474.011 3.632 0 6.137-2.273 7.577-5.357-.577-1.373-.28-2.857-.02-4.685z" class="cls-18" transform="translate(-234.888 -208.802)"/>
            <path id="Path_2431" d="M280.636 208.455a8.111 8.111 0 1 0 0 .039v-.039z" class="cls-16" transform="translate(-235.515 -195.784)"/>
            <path id="Path_2432" d="M260.942 287.116l-.44-26.963-4.707 2.465-3.905.925-.989-.577-.07-.042-.161-.092s-.053.115-.154.324c-.855 1.808-5.013 10.652-4.925 11.41.092.841-2.967 11.449-2.967 11.449l1.476 10.047s-2.8 6.978-2.059 9.555 20.925.8 20.925.8z" class="cls-17" transform="translate(-211.819 -239.565)"/>
            <path id="Path_2433" d="M284.678 271.691l-1.568 2.013-.253.588a18.963 18.963 0 0 0-1.5 6.542v2.612l-.328 20.936-1.8 3.218-.328-3.982.725-22.412.985-5.066.537-3.209a14.218 14.218 0 0 0 .751-1.734 1.607 1.607 0 0 1 1.921-1.007z" class="cls-15" transform="translate(-243.438 -246.88)"/>
            <path id="Path_2434" d="M261.455 253.116l-.046.112-.328.806-.37.9a7.518 7.518 0 0 0-1.207.956c-1.251 1.123-3.066 2.93-4.031 3.9-.408.41-.663.67-.663.67a8.214 8.214 0 0 1-1.282-3c-.053-.183-.1-.359-.143-.522-.163-.623-.262-1.073-.262-1.073 1.227-.438 4.09-3.238 5.562-4.731a13.571 13.571 0 0 0 1.941 1.593c.082-.227.829.389.829.389z" class="cls-17" transform="translate(-213.312 -232.966)"/>
            <path id="Path_2435" d="M300.982 270.805a8.971 8.971 0 0 1-4.068 1.377s-3.588 1.9-4.253 8.4-3.476 26.029-3.476 26.029-2.5 13.17-.74 14.538l1.967-16.121s3.443-9.311 3.692-11.033c.22-1.568 2.958-10.143 3.438-11.646.048-.141.073-.22.073-.22l2.738-7.742 1.581-4.238a8.588 8.588 0 0 1-.952.656z" class="cls-15" transform="translate(-263.083 -246.88)"/>
            <path id="Path_2436" d="M242.587 467.3s-2.762-19.066-2.013-21.639-.515-21.586-.515-21.586l-.416-3.566-.233-2.011-.1-.841-.482.148a71.168 71.168 0 0 1-14.271 2.617 10.885 10.885 0 0 1-3.194-.256c-1.912-.436-5.608-.971-6.253-1.43 0 0-.22.593-.5 1.562-.634 2.24-1.59 6.522-.855 10.17l1.126 7.377s.443 7.518 1.9 12.016l1.286 6.139 1.687 12.5a74.89 74.89 0 0 1 1.8 10.132c.615 5.67 4.123 15.075 4.123 15.075s7.458 1.031 7.678-1.5l-2.577-19.72-2.378-28.239s2.588 17.621 4.075 21.417c0 0 2.062 21.632 2.764 24.965a19.72 19.72 0 0 0 1.17 4.214s4.357 1.595 6.324-1.357c0 0 .562-8.756.982-11.894s-1.128-14.293-1.128-14.293z" class="cls-15" transform="translate(-185.026 -354.882)"/>
            <path id="Path_2437" d="M227.049 443.686l-3.084 1.5 3.676 6.932c1.381-1.289 1.218-6.416 1.218-6.416z" class="cls-16" transform="translate(-172.913 -373.937)"/>
            <path id="Path_2438" d="M116.813 281.765l-1.405 1.1 1.872 2.835 2.553.936.212-1.875z" class="cls-17" transform="translate(-64.003 -212.015)"/>
            <g id="Group_2889" opacity="0.1" transform="translate(30.081 63.851)">
                <path id="Path_2439" d="M320.042 421.7a.067.067 0 0 0 .013-.033 1.167 1.167 0 0 0 .123.07z" transform="translate(-320.042 -421.664)"/>
            </g>
            <path id="Path_2440" d="M215.177 306.224c-1.685 1.967-9.031 2.319-9.031 2.319l-5.725-9.022-1.544-2.432s-1.72-1.194-4.954-6.571a19.9 19.9 0 0 1-2.945-12.61c.178-3.093 2.2-11.98 2.2-11.98a24.942 24.942 0 0 1 .742-2.654c.7-2.216 1.767-5.3 2.637-7.762.156-.445.306-.87.449-1.267.264-.753-1.079-3.623-1.079-3.623.474.949 3.456 2.511 4.493 3.165a22.324 22.324 0 0 0 6.7 2.485c6.289.914 5.128 7.412 5.128 7.412s.07 25.258-.317 28.28 3.246 14.26 3.246 14.26z" class="cls-15" transform="translate(-150.369 -232.587)"/>
            <path id="Path_2441" d="M200.4 285.145s2.67 11.595 3.408 18.76a20.117 20.117 0 0 1-2.037 11.731l-5.936 13.174c-2.037-.524-6.183-4.846-6.183-4.846l5.947-16.476s-2.2-8.319-3.584-15.983 2.275-11.1 2.275-11.1c6.11-2.317 6.11 4.74 6.11 4.74z" class="cls-18" transform="translate(-138.787 -254.05)"/>
            <path id="Path_2442" d="M199.358 285.145s2.67 11.595 3.408 18.76a20.117 20.117 0 0 1-2.037 11.731l-5.947 13.174c-2.037-.524-6.183-4.846-6.183-4.846l5.947-16.476s-2.207-8.319-3.582-15.983 2.282-11.1 2.282-11.1c6.112-2.317 6.112 4.74 6.112 4.74z" class="cls-15" transform="translate(-137.464 -254.05)"/>
            <path id="Path_2443" d="M226.2 447.267l1.639 4.685 1.826 2.5a1.039 1.039 0 0 0 1.709-.8c.341-1.709-4.284-8.128-4.284-8.128-.733-.279-.89 1.743-.89 1.743z" class="cls-15" transform="translate(-176.035 -375.268)"/>
            <path id="Path_2444" d="M273 200.357s8.48-11.621-2.2-14.133c0 0-3.034-4.55-6.761-2.312a11.681 11.681 0 0 1-6.037 1.606c-1.806 0-3.533.707-3.219 3.533.628 5.653 4.083 4.711 4.083 4.711s9.369-4.2 9.683.513a6.945 6.945 0 0 0 4.451 6.082z" class="cls-15" transform="translate(-228.487 -183.293)"/>
        </g>
    </g>
</svg>
