<svg xmlns="http://www.w3.org/2000/svg" width="216" height="264.269" viewBox="0 0 216 264.269">
    <defs>
        <style>
            .cls-2{fill:#0c96ff}.cls-3{fill:#00015d}.cls-4{fill:#d8d9fb}.cls-5{fill:#fff;opacity:.2}.cls-6,.cls-8{fill:#afc0e0}.cls-6{opacity:.1}.cls-7{fill:#e3e8f4}
        </style>
    </defs>
    <g id="Group_2895" transform="translate(-79 -242.731)">
        <ellipse id="Ellipse_811" cx="108" cy="108.5" fill="#00ffca" rx="108" ry="108.5" transform="translate(79 290)"/>
        <g id="Group_2887" transform="rotate(-14 1308.615 -156.193)">
            <path id="Path_2095" d="M178.46 642.8s4.414-1 7.307 1.963c0 0-1.859 1.672-6.234-.181z" class="cls-2" transform="translate(-154.974 -507.111)"/>
            <path id="Path_2096" d="M174 643s-2.615 3.706-.956 7.508c0 0 2.261-1.087 2.2-5.836z" class="cls-2" transform="translate(-151.001 -507.35)"/>
            <path id="Path_2097" d="M168.2 623.676s1.568-3.395 9.03.709a4.017 4.017 0 0 1-3.973 2.3c-3.171.034-4.121-1.34-5.057-3.009z" class="cls-2" transform="translate(-148.145 -493.611)"/>
            <path id="Path_2098" d="M159.748 625.679s-3.736-.174-3.525 8.334a4.011 4.011 0 0 0 3.873-2.468c1.488-2.802.699-4.25-.348-5.866z" class="cls-2" transform="translate(-140.168 -495.821)"/>
            <path id="Path_2099" d="M159 598.975s1.672-5.913 9.521-2.3c0 0-1.371 5.415-8.628 4.227z" class="cls-2" transform="translate(-142.022 -475.739)"/>
            <path id="Path_2100" d="M150.29 574.4s3.538-6.1 10.866-1.151c0 0-2.07 5.642-10.13 3.194z" class="cls-2" transform="translate(-136.224 -459.635)"/>
            <path id="Path_2101" d="M146.15 550.638s4.224-5.669 11.491-.773c0 0-4.033 5-11.4 2.14z" class="cls-2" transform="translate(-133.469 -444.036)"/>
            <path id="Path_2102" d="M142.41 526.515s4.267-5.906 11.234-1.053c0 0-4.909 5.294-11.147 2.365z" class="cls-2" transform="translate(-130.979 -427.847)"/>
            <path id="Path_2103" d="M142.23 502.239s4.4-7.535 10.919-3.067c0 0-4.822 6.545-10.826 4.435z" class="cls-2" transform="translate(-130.86 -410.681)"/>
            <path id="Path_2104" d="M144 477.874s4.682-7.491 11.066-2.4c0 0-5.719 6.605-10.993 3.729z" class="cls-2" transform="translate(-132.038 -394.67)"/>
            <path id="Path_2105" d="M147.331 453.231s5.685-7.127 11.22-4.806c0 0-5.913 7.558-11.371 6.608z" class="cls-2" transform="translate(-134.155 -377.538)"/>
            <path id="Path_2106" d="M151.825 429.049s6.535-8.7 10.826-6.227c0 0-4.786 6.719-11.23 7.809z" class="cls-2" transform="translate(-136.976 -360.514)"/>
            <path id="Path_2107" d="M158.852 405.56s5.742-7.13 10.367-5.766c0 0-4.833 7.321-11.07 7.919z" class="cls-2" transform="translate(-141.455 -345.365)"/>
            <path id="Path_2108" d="M166.694 382.038s6.414-6.889 9.468-5.96c0 0-4.465 7.478-9.672 7.408z" class="cls-2" transform="translate(-147.007 -329.638)"/>
            <path id="Path_2109" d="M173.87 357.175s5.381-8.077 8.635-7.692c0 0-3.114 7.087-8.582 8.471z" class="cls-2" transform="translate(-151.919 -311.987)"/>
            <path id="Path_2110" d="M180.687 330.835s4.812-6.241 7.628-6.414c0 0-3.582 8.14-7.715 8.361z" class="cls-2" transform="translate(-156.398 -295.314)"/>
            <path id="Path_2111" d="M183.915 299.3l4.207-12.6s1 11.07-4.682 14.923z" class="cls-2" transform="translate(-158.288 -270.208)"/>
            <path id="Path_2112" d="M187.365 261.453s.147-10.3-.445-11.093c0 0 4.17 8.274.716 15.621z" class="cls-2" transform="translate(-160.604 -246.023)"/>
            <path id="Path_2113" d="M141.874 604.524s-5.438-2.883-8.284 5.261c0 0 4.849 2.769 9.03-3.281z" class="cls-2" transform="translate(-125.11 -481.411)"/>
            <path id="Path_2114" d="M131.517 578.91s-6.595-2.492-9.147 5.98c0 0 5.174 3.06 9.869-3.933z" class="cls-2" transform="translate(-117.642 -464.466)"/>
            <path id="Path_2115" d="M122.491 553.627s-4.946-5.053-11.491.779c0 0 4.662 4.411 11.581.6z" class="cls-2" transform="translate(-110.073 -446.513)"/>
            <path id="Path_2116" d="M119.5 528.04s-5.016-5.288-11.274.455c0 0 5.572 4.592 11.371.853z" class="cls-2" transform="translate(-108.23 -429.359)"/>
            <path id="Path_2117" d="M121.085 501.785s-3.8-7.849-10.645-3.9c0 0 4.3 6.9 10.448 5.264z" class="cls-2" transform="translate(-109.702 -410.025)"/>
            <path id="Path_2118" d="M123.832 476.113s-3.789-7.993-10.722-3.7c0 0 4.9 7.227 10.481 4.993z" class="cls-2" transform="translate(-111.479 -392.969)"/>
            <path id="Path_2119" d="M134.026 445.151s-1.886-8.913-7.876-9.321c0 0 1.9 9.408 7.194 11z" class="cls-2" transform="translate(-120.158 -369.464)"/>
            <path id="Path_2120" d="M140.8 420.736s-1.227-10.806-6.174-10.856c0 0 .719 8.217 5.722 12.424z" class="cls-2" transform="translate(-125.802 -352.194)"/>
            <path id="Path_2121" d="M148.1 397.049s-2.077-8.916-6.846-9.7c0 0 1.171 8.7 6.531 11.946z" class="cls-2" transform="translate(-130.207 -337.198)"/>
            <path id="Path_2122" d="M161.2 373.1s-.669-9.388-3.645-10.575c0 0-1.207 8.622 2.893 11.832z" class="cls-2" transform="translate(-140.946 -320.679)"/>
            <path id="Path_2123" d="M166.28 350.649s-1.053-9.648-4.117-10.809c0 0-.5 7.722 3.712 11.471z" class="cls-2" transform="translate(-144.114 -305.577)"/>
            <path id="Path_2124" d="M176 326.778s-.548-7.863-2.792-9.568c0 0-1.532 8.759 1.789 11.224z" class="cls-2" transform="translate(-151.244 -290.516)"/>
            <path id="Path_2125" d="M177.337 297.5l-2.943-12.956s-2.083 10.916 3.2 15.31z" class="cls-2" transform="translate(-151.997 -268.771)"/>
            <path id="Path_2126" d="M170.989 265.5s-5.9-8.454-5.849-9.438c0 0 1.184 9.19 8.163 13.341z" class="cls-2" transform="translate(-146.108 -249.817)"/>
            <path id="Path_2127" d="M167.74 250.433s-5.839-12.17-8.17-13.043a15.891 15.891 0 0 1 8.565 12.642z" class="cls-2" transform="translate(-142.4 -237.39)"/>
            <path id="Path_2128" d="M179.874 299.273l-.334-.084c3.294-14.046 3.759-22.9 1.3-24.935l.227-.274c2.593 2.154 2.185 10.903-1.193 25.293z" class="cls-3" transform="translate(-155.693 -261.742)"/>
            <path id="Path_2129" d="M151.228 380.529l-.518-.144c.365-1.291.759-2.605 1.181-3.9 3.679-11.277 6.735-21.738 8.612-29.745l.425-.251c-1.88 8.026-4.853 18.872-8.525 30.159-.419 1.292-.813 2.597-1.175 3.881z" class="cls-3" transform="translate(-136.505 -310.003)"/>
            <path id="Path_2130" d="M160.239 520.981a69.683 69.683 0 0 1-13.083-20.146 77.713 77.713 0 0 1-6.224-23.668c-1-10.21.368-21.782 3.344-32.407l.428.441c-6.689 23.849-2.07 43.59 3.087 55.315a69.109 69.109 0 0 0 12.942 19.952z" class="cls-3" transform="translate(-129.78 -375.408)"/>
            <path id="Path_2131" d="M223.53 558.26a5.066 5.066 0 0 1 4.421 1.187s-1.127 1-3.769-.11z" class="cls-2" transform="translate(-184.971 -450.882)"/>
            <path id="Path_2132" d="M220.851 558.39a5.061 5.061 0 0 0-.575 4.538s1.364-.669 1.338-3.528z" class="cls-2" transform="translate(-182.583 -451.037)"/>
            <path id="Path_2133" d="M217.34 546.7s.946-2.05 5.451.431a2.427 2.427 0 0 1-2.4 1.388 2.93 2.93 0 0 1-3.051-1.819z" class="cls-2" transform="translate(-180.851 -442.724)"/>
            <path id="Path_2134" d="M212.223 547.91s-2.261-.1-2.134 5.037a2.428 2.428 0 0 0 2.341-1.492 2.933 2.933 0 0 0-.207-3.545z" class="cls-2" transform="translate(-176.022 -444.061)"/>
            <path id="Path_2135" d="M211.75 531.759s1.027-3.575 5.762-1.4c0 0-.826 3.274-5.214 2.555z" class="cls-2" transform="translate(-177.13 -431.913)"/>
            <path id="Path_2136" d="M206.51 516.914s2.137-3.679 6.568-.7c0 0-1.254 3.411-6.123 1.93z" class="cls-2" transform="translate(-173.642 -422.191)"/>
            <path id="Path_2137" d="M204 502.542s2.555-3.428 6.946-.468c0 0-2.435 3.01-6.889 1.294z" class="cls-2" transform="translate(-171.973 -412.752)"/>
            <path id="Path_2138" d="M201.74 487.96s2.582-3.572 6.792-.635c0 0-2.966 3.2-6.739 1.428z" class="cls-2" transform="translate(-170.468 -402.966)"/>
            <path id="Path_2139" d="M201.64 473.281s2.675-4.552 6.6-1.853c0 0-2.916 3.956-6.545 2.675z" class="cls-2" transform="translate(-170.402 -392.588)"/>
            <path id="Path_2140" d="M202.68 458.545s2.839-4.532 6.689-1.465c0 0-3.458 3.993-6.648 2.254z" class="cls-2" transform="translate(-171.094 -382.9)"/>
            <path id="Path_2141" d="M204.734 443.663s3.435-4.308 6.782-2.9c0 0-3.575 4.568-6.866 3.993z" class="cls-2" transform="translate(-172.404 -372.559)"/>
            <path id="Path_2142" d="M207.434 429.037s3.95-5.254 6.545-3.766c0 0-2.893 4.063-6.789 4.722z" class="cls-2" transform="translate(-174.095 -362.261)"/>
            <path id="Path_2143" d="M211.7 414.855s3.471-4.311 6.274-3.485c0 0-2.92 4.425-6.689 4.786z" class="cls-2" transform="translate(-176.824 -353.115)"/>
            <path id="Path_2144" d="M216.424 400.618s3.876-4.164 5.722-3.6c0 0-2.7 4.518-5.846 4.478z" class="cls-2" transform="translate(-180.159 -343.596)"/>
            <path id="Path_2145" d="M220.76 385.58s3.254-4.883 5.22-4.655c0 0-1.88 4.284-5.187 5.124z" class="cls-2" transform="translate(-183.126 -332.917)"/>
            <path id="Path_2146" d="M224.894 369.659s2.91-3.772 4.612-3.879c0 0-2.167 4.923-4.665 5.047z" class="cls-2" transform="translate(-185.842 -322.841)"/>
            <path id="Path_2147" d="M226.811 350.612l2.538-7.612s.6 6.689-2.839 9.03z" class="cls-2" transform="translate(-186.954 -307.68)"/>
            <path id="Path_2148" d="M228.921 327.715s.087-6.224-.271-6.705c0 0 2.522 5 .431 9.444z" class="cls-2" transform="translate(-188.378 -293.044)"/>
            <path id="Path_2149" d="M201.4 535.122s-3.284-1.746-5.016 3.177c0 0 2.933 1.672 5.461-1.98z" class="cls-2" transform="translate(-166.9 -435.349)"/>
            <path id="Path_2150" d="M195.162 519.589s-3.99-1.5-5.531 3.615c0 0 3.127 1.849 5.966-2.374z" class="cls-2" transform="translate(-162.408 -425.074)"/>
            <path id="Path_2151" d="M189.7 504.346s-2.986-3.053-6.946.468c0 0 2.819 2.676 7 .361z" class="cls-2" transform="translate(-157.828 -414.248)"/>
            <path id="Path_2152" d="M187.9 488.882s-3.033-3.194-6.816.278c0 0 3.368 2.772 6.869.515z" class="cls-2" transform="translate(-156.717 -403.881)"/>
            <path id="Path_2153" d="M188.848 472.968s-2.3-4.746-6.438-2.361c0 0 2.6 4.17 6.317 3.184z" class="cls-2" transform="translate(-157.602 -392.164)"/>
            <path id="Path_2154" d="M190.491 457.473s-2.291-4.833-6.491-2.237c0 0 2.963 4.371 6.337 3.01z" class="cls-2" transform="translate(-158.66 -381.87)"/>
            <path id="Path_2155" d="M196.672 438.785s-1.14-5.391-4.762-5.635c0 0 1.147 5.685 4.348 6.645z" class="cls-2" transform="translate(-163.925 -367.681)"/>
            <path id="Path_2156" d="M200.746 424.005s-.736-6.532-3.746-6.565c0 0 .435 4.97 3.458 7.515z" class="cls-2" transform="translate(-167.313 -357.225)"/>
            <path id="Path_2157" d="M205.177 409.686s-1.254-5.391-4.137-5.866c0 0 .709 5.254 3.95 7.22z" class="cls-2" transform="translate(-170.002 -348.16)"/>
            <path id="Path_2158" d="M213.1 395.214s-.411-5.685-2.2-6.394c0 0-.732 5.214 1.746 7.154z" class="cls-2" transform="translate(-176.496 -338.177)"/>
            <path id="Path_2159" d="M216.176 381.635s-.635-5.833-2.488-6.535c0 0-.3 4.682 2.244 6.936z" class="cls-2" transform="translate(-178.413 -329.044)"/>
            <path id="Path_2160" d="M222.077 367.206s-.334-4.752-1.672-5.786c0 0-.926 5.3 1.08 6.786z" class="cls-2" transform="translate(-182.748 -319.939)"/>
            <path id="Path_2161" d="M222.881 349.5l-1.781-7.83s-1.261 6.6 1.933 9.257z" class="cls-2" transform="translate(-183.191 -306.795)"/>
            <path id="Path_2162" d="M219.025 330.165s-3.562-5.107-3.535-5.705c0 0 .712 5.555 4.933 8.063z" class="cls-2" transform="translate(-179.619 -295.34)"/>
            <path id="Path_2163" d="M217.03 321.066s-3.532-7.358-4.94-7.876a9.6 9.6 0 0 1 5.177 7.645z" class="cls-2" transform="translate(-177.356 -287.839)"/>
            <path id="Path_2164" d="M224.371 350.57l-.211-.05c2.007-8.491 2.274-13.846.789-15.073l.137-.167c1.576 1.304 1.328 6.595-.715 15.29z" class="cls-3" transform="translate(-185.389 -302.543)"/>
            <path id="Path_2165" d="M207.074 399.728l-.314-.09c.221-.779.462-1.572.716-2.341 2.217-6.819 4.07-13.143 5.2-17.983l.258-.154c-1.137 4.849-2.933 11.411-5.154 18.237-.251.772-.488 1.552-.706 2.331z" class="cls-3" transform="translate(-173.809 -331.747)"/>
            <path id="Path_2166" d="M212.516 484.612a42.186 42.186 0 0 1-7.909-12.18 47.061 47.061 0 0 1-3.762-14.307 54.867 54.867 0 0 1 2.027-19.595l.258.268a49.784 49.784 0 0 0 1.866 33.443 41.572 41.572 0 0 0 7.826 12.06z" class="cls-3" transform="translate(-169.74 -371.262)"/>
        </g>
        <g id="Group_2892" transform="rotate(16 -972.697 1089.136)">
            <path id="Path_2095-2" d="M185.767 642.8s-4.414-1-7.307 1.963c0 0 1.859 1.672 6.234-.181z" class="cls-2" transform="translate(-165.59 -507.111)"/>
            <path id="Path_2096-2" d="M173.734 643s2.615 3.706.956 7.508c0 0-2.261-1.087-2.2-5.836z" class="cls-2" transform="translate(-153.07 -507.35)"/>
            <path id="Path_2097-2" d="M177.23 623.676s-1.568-3.395-9.03.709a4.017 4.017 0 0 0 3.973 2.3c3.17.034 4.12-1.34 5.057-3.009z" class="cls-2" transform="translate(-153.622 -493.611)"/>
            <path id="Path_2098-2" d="M157.384 625.679s3.736-.174 3.525 8.334a4.011 4.011 0 0 1-3.873-2.468c-1.488-2.802-.699-4.25.348-5.866z" class="cls-2" transform="translate(-133.301 -495.821)"/>
            <path id="Path_2099-2" d="M168.521 598.975s-1.672-5.913-9.521-2.3c0 0 1.371 5.415 8.628 4.227z" class="cls-2" transform="translate(-141.837 -475.739)"/>
            <path id="Path_2100-2" d="M161.156 574.4s-3.538-6.1-10.866-1.151c0 0 2.07 5.642 10.13 3.194z" class="cls-2" transform="translate(-131.558 -459.635)"/>
            <path id="Path_2101-2" d="M157.641 550.638s-4.224-5.669-11.491-.773c0 0 4.033 5 11.4 2.14z" class="cls-2" transform="translate(-126.659 -444.036)"/>
            <path id="Path_2102-2" d="M153.643 526.515s-4.267-5.906-11.233-1.053c0 0 4.909 5.294 11.146 2.365z" class="cls-2" transform="translate(-121.412 -427.847)"/>
            <path id="Path_2103-2" d="M153.149 502.239s-4.4-7.535-10.919-3.067c0 0 4.822 6.545 10.825 4.435z" class="cls-2" transform="translate(-120.856 -410.682)"/>
            <path id="Path_2104-2" d="M155.066 477.874s-4.682-7.491-11.066-2.4c0 0 5.719 6.605 10.993 3.729z" class="cls-2" transform="translate(-123.366 -394.67)"/>
            <path id="Path_2105-2" d="M158.4 453.231s-5.685-7.127-11.22-4.806c0 0 5.913 7.558 11.371 6.608z" class="cls-2" transform="translate(-127.913 -377.538)"/>
            <path id="Path_2106-2" d="M162.245 429.049s-6.535-8.7-10.825-6.227c0 0 4.786 6.719 11.23 7.809z" class="cls-2" transform="translate(-133.432 -360.514)"/>
            <path id="Path_2107-2" d="M168.517 405.56s-5.742-7.13-10.367-5.766c0 0 4.832 7.321 11.07 7.919z" class="cls-2" transform="translate(-142.252 -345.366)"/>
            <path id="Path_2108-2" d="M175.958 382.038s-6.414-6.889-9.468-5.96c0 0 4.465 7.478 9.672 7.408z" class="cls-2" transform="translate(-151.982 -329.638)"/>
            <path id="Path_2109-2" d="M182.5 357.175s-5.381-8.077-8.635-7.692c0 0 3.114 7.087 8.581 8.471z" class="cls-2" transform="translate(-160.793 -311.987)"/>
            <path id="Path_2110-2" d="M188.228 330.835s-4.812-6.241-7.628-6.414c0 0 3.582 8.14 7.715 8.361z" class="cls-2" transform="translate(-168.854 -295.314)"/>
            <path id="Path_2111-2" d="M187.715 299.3l-4.207-12.6s-1 11.07 4.682 14.923z" class="cls-2" transform="translate(-169.679 -270.209)"/>
            <path id="Path_2112-2" d="M188.56 261.453s-.147-10.3.445-11.093c0 0-4.17 8.274-.716 15.621z" class="cls-2" transform="translate(-171.658 -246.023)"/>
            <path id="Path_2113-2" d="M134.336 604.524s5.438-2.883 8.284 5.261c0 0-4.849 2.769-9.03-3.281z" class="cls-2" transform="translate(-107.437 -481.411)"/>
            <path id="Path_2114-2" d="M123.092 578.91s6.595-2.492 9.147 5.98c0 0-5.174 3.06-9.869-3.933z" class="cls-2" transform="translate(-93.304 -464.467)"/>
            <path id="Path_2115-2" d="M111.09 553.627s4.946-5.053 11.491.779c0 0-4.662 4.411-11.581.6z" class="cls-2" transform="translate(-79.845 -446.513)"/>
            <path id="Path_2116-2" d="M108.327 528.04s5.016-5.288 11.274.455c0 0-5.572 4.592-11.371.853z" class="cls-2" transform="translate(-75.937 -429.359)"/>
            <path id="Path_2117-2" d="M110.44 501.785s3.8-7.849 10.645-3.9c0 0-4.3 6.9-10.448 5.264z" class="cls-2" transform="translate(-78.161 -410.026)"/>
            <path id="Path_2118-2" d="M113.11 476.113s3.789-7.993 10.722-3.7c0 0-4.9 7.227-10.481 4.993z" class="cls-2" transform="translate(-81.8 -392.969)"/>
            <path id="Path_2119-2" d="M126.15 445.151s1.886-8.913 7.876-9.321c0 0-1.9 9.408-7.194 11z" class="cls-2" transform="translate(-96.355 -369.464)"/>
            <path id="Path_2120-2" d="M134.63 420.736s1.227-10.806 6.174-10.856c0 0-.719 8.217-5.722 12.424z" class="cls-2" transform="translate(-105.968 -352.194)"/>
            <path id="Path_2121-2" d="M141.25 397.049s2.077-8.916 6.846-9.7c0 0-1.17 8.7-6.531 11.946z" class="cls-2" transform="translate(-115.475 -337.198)"/>
            <path id="Path_2122-2" d="M157.384 373.1s.669-9.388 3.645-10.575c0 0 1.207 8.622-2.893 11.832z" class="cls-2" transform="translate(-133.971 -320.679)"/>
            <path id="Path_2123-2" d="M162.145 350.649s1.055-9.649 4.116-10.809c0 0 .5 7.722-3.712 11.471z" class="cls-2" transform="translate(-140.647 -305.578)"/>
            <path id="Path_2124-2" d="M172.855 326.778s.548-7.863 2.792-9.568c0 0 1.532 8.759-1.789 11.224z" class="cls-2" transform="translate(-153.95 -290.516)"/>
            <path id="Path_2125-2" d="M174.246 297.5l2.943-12.956s2.083 10.916-3.2 15.31z" class="cls-2" transform="translate(-155.923 -268.772)"/>
            <path id="Path_2126-2" d="M167.453 265.5s5.9-8.454 5.849-9.438c0 0-1.184 9.19-8.163 13.341z" class="cls-2" transform="translate(-148.671 -249.817)"/>
            <path id="Path_2127-2" d="M159.965 250.433s5.839-12.17 8.17-13.043a15.891 15.891 0 0 0-8.565 12.642z" class="cls-2" transform="translate(-141.642 -237.39)"/>
            <path id="Path_2128-2" d="M182.416 299.273l.334-.084c-3.294-14.046-3.759-22.9-1.3-24.935l-.227-.274c-2.592 2.154-2.184 10.903 1.193 25.293z" class="cls-3" transform="translate(-162.935 -261.743)"/>
            <path id="Path_2129-2" d="M160.408 380.529l.518-.144c-.365-1.291-.759-2.605-1.181-3.9-3.679-11.277-6.735-21.738-8.612-29.745l-.425-.251c1.879 8.026 4.853 18.872 8.525 30.159.42 1.292.814 2.597 1.175 3.881z" class="cls-3" transform="translate(-131.469 -310.003)"/>
            <path id="Path_2130-2" d="M141.1 520.981a69.684 69.684 0 0 0 13.083-20.146 77.714 77.714 0 0 0 6.224-23.668c1-10.21-.368-21.782-3.344-32.407l-.428.441c6.689 23.849 2.07 43.59-3.087 55.316a69.109 69.109 0 0 1-12.942 19.952z" class="cls-3" transform="translate(-127.897 -375.408)"/>
            <path id="Path_2131-2" d="M227.951 558.26a5.066 5.066 0 0 0-4.421 1.187s1.127 1 3.769-.11z" class="cls-2" transform="translate(-222.847 -450.883)"/>
            <path id="Path_2132-2" d="M220.7 558.39a5.061 5.061 0 0 1 .575 4.538s-1.364-.669-1.338-3.528z" class="cls-2" transform="translate(-215.31 -451.037)"/>
            <path id="Path_2133-2" d="M222.791 546.7s-.946-2.05-5.451.431a2.427 2.427 0 0 0 2.4 1.388 2.93 2.93 0 0 0 3.051-1.819z" class="cls-2" transform="translate(-215.617 -442.724)"/>
            <path id="Path_2134-2" d="M210.79 547.91s2.261-.1 2.134 5.037a2.428 2.428 0 0 1-2.341-1.492 2.933 2.933 0 0 1 .207-3.545z" class="cls-2" transform="translate(-203.328 -444.062)"/>
            <path id="Path_2135-2" d="M217.512 531.759s-1.027-3.575-5.762-1.4c0 0 .826 3.274 5.214 2.555z" class="cls-2" transform="translate(-208.469 -431.913)"/>
            <path id="Path_2136-2" d="M213.078 516.914s-2.137-3.679-6.568-.7c0 0 1.254 3.411 6.123 1.93z" class="cls-2" transform="translate(-202.283 -422.191)"/>
            <path id="Path_2137-2" d="M210.946 502.542s-2.555-3.428-6.946-.468c0 0 2.435 3.01 6.889 1.294z" class="cls-2" transform="translate(-199.31 -412.753)"/>
            <path id="Path_2138-2" d="M208.532 487.96s-2.582-3.572-6.792-.635c0 0 2.966 3.2 6.739 1.428z" class="cls-2" transform="translate(-196.142 -402.966)"/>
            <path id="Path_2139-2" d="M208.238 473.281s-2.675-4.552-6.6-1.853c0 0 2.916 3.956 6.545 2.675z" class="cls-2" transform="translate(-195.813 -392.588)"/>
            <path id="Path_2140-2" d="M209.369 458.545s-2.839-4.532-6.689-1.465c0 0 3.458 3.993 6.648 2.254z" class="cls-2" transform="translate(-197.292 -382.9)"/>
            <path id="Path_2141-2" d="M211.432 443.663s-3.435-4.308-6.782-2.9c0 0 3.575 4.568 6.866 3.993z" class="cls-2" transform="translate(-200.099 -372.559)"/>
            <path id="Path_2142-2" d="M213.735 429.037s-3.95-5.254-6.545-3.766c0 0 2.893 4.063 6.789 4.722z" class="cls-2" transform="translate(-203.411 -362.262)"/>
            <path id="Path_2143-2" d="M217.564 414.855s-3.471-4.311-6.274-3.485c0 0 2.92 4.425 6.689 4.786z" class="cls-2" transform="translate(-208.782 -353.115)"/>
            <path id="Path_2144-2" d="M222.022 400.618s-3.876-4.164-5.722-3.6c0 0 2.7 4.518 5.846 4.478z" class="cls-2" transform="translate(-214.624 -343.597)"/>
            <path id="Path_2145-2" d="M225.98 385.58s-3.254-4.883-5.22-4.655c0 0 1.879 4.284 5.187 5.124z" class="cls-2" transform="translate(-219.951 -332.917)"/>
            <path id="Path_2146-2" d="M229.452 369.659s-2.91-3.772-4.612-3.879c0 0 2.167 4.923 4.665 5.047z" class="cls-2" transform="translate(-224.84 -322.841)"/>
            <path id="Path_2147-2" d="M229.089 350.612L226.55 343s-.6 6.689 2.839 9.03z" class="cls-2" transform="translate(-225.282 -307.68)"/>
            <path id="Path_2148-2" d="M229.639 327.715s-.087-6.224.271-6.705c0 0-2.522 5-.431 9.444z" class="cls-2" transform="translate(-226.519 -293.044)"/>
            <path id="Path_2149-2" d="M196.825 535.122s3.284-1.746 5.016 3.177c0 0-2.933 1.672-5.461-1.98z" class="cls-2" transform="translate(-187.658 -435.35)"/>
            <path id="Path_2150-2" d="M190.065 519.589s3.99-1.5 5.531 3.615c0 0-3.127 1.849-5.966-2.374z" class="cls-2" transform="translate(-179.155 -425.075)"/>
            <path id="Path_2151-2" d="M182.807 504.346s2.986-3.053 6.946.468c0 0-2.819 2.676-7 .361z" class="cls-2" transform="translate(-171.012 -414.248)"/>
            <path id="Path_2152-2" d="M181.133 488.882s3.033-3.194 6.816.278c0 0-3.368 2.772-6.869.515z" class="cls-2" transform="translate(-168.649 -403.881)"/>
            <path id="Path_2153-2" d="M182.41 472.968s2.3-4.746 6.438-2.361c0 0-2.6 4.17-6.317 3.184z" class="cls-2" transform="translate(-169.993 -392.164)"/>
            <path id="Path_2154-2" d="M184 457.473s2.291-4.833 6.491-2.237c0 0-2.963 4.371-6.337 3.01z" class="cls-2" transform="translate(-172.168 -381.87)"/>
            <path id="Path_2155-2" d="M191.91 438.785s1.14-5.391 4.762-5.635c0 0-1.147 5.685-4.348 6.645z" class="cls-2" transform="translate(-180.994 -367.682)"/>
            <path id="Path_2156-2" d="M197 424.005s.736-6.532 3.746-6.565c0 0-.435 4.97-3.458 7.515z" class="cls-2" transform="translate(-186.77 -357.225)"/>
            <path id="Path_2157-2" d="M201.04 409.686s1.254-5.391 4.137-5.866c0 0-.709 5.254-3.95 7.22z" class="cls-2" transform="translate(-192.552 -348.16)"/>
            <path id="Path_2158-2" d="M210.8 395.214s.411-5.685 2.2-6.394c0 0 .732 5.214-1.746 7.154z" class="cls-2" transform="translate(-203.738 -338.177)"/>
            <path id="Path_2159-2" d="M213.676 381.635s.635-5.833 2.488-6.535c0 0 .3 4.682-2.244 6.936z" class="cls-2" transform="translate(-207.776 -329.045)"/>
            <path id="Path_2160-2" d="M220.192 367.206s.334-4.752 1.672-5.786c0 0 .926 5.3-1.08 6.786z" class="cls-2" transform="translate(-215.858 -319.94)"/>
            <path id="Path_2161-2" d="M221.01 349.5l1.779-7.832s1.261 6.6-1.933 9.257z" class="cls-2" transform="translate(-217.036 -306.796)"/>
            <path id="Path_2162-2" d="M216.887 330.165s3.562-5.107 3.535-5.705c0 0-.712 5.555-4.933 8.063z" class="cls-2" transform="translate(-212.629 -295.341)"/>
            <path id="Path_2163-2" d="M212.327 321.066s3.532-7.358 4.94-7.876a9.6 9.6 0 0 0-5.177 7.645z" class="cls-2" transform="translate(-208.337 -287.84)"/>
            <path id="Path_2164-2" d="M225.9 350.57l.211-.05c-2.007-8.491-2.274-13.846-.789-15.073l-.137-.167c-1.577 1.304-1.33 6.595.715 15.29z" class="cls-3" transform="translate(-221.217 -302.543)"/>
            <path id="Path_2165-2" d="M212.622 399.728l.314-.09c-.221-.779-.462-1.572-.716-2.341-2.217-6.819-4.07-13.143-5.2-17.983l-.258-.154c1.137 4.849 2.933 11.411 5.154 18.237.252.772.489 1.552.706 2.331z" class="cls-3" transform="translate(-202.225 -331.747)"/>
            <path id="Path_2166-2" d="M200.95 484.612a42.186 42.186 0 0 0 7.909-12.18 47.062 47.062 0 0 0 3.762-14.307 54.868 54.868 0 0 0-2.027-19.595l-.257.268a49.785 49.785 0 0 1-1.866 33.444 41.572 41.572 0 0 1-7.826 12.06z" class="cls-3" transform="translate(-200.063 -371.262)"/>
        </g>
        <g id="Group_2886" transform="rotate(-27 652.896 78.68)">
            <path id="Path_2167" d="M34.921 47.61a12.568 12.568 0 0 0-2.464.7c-17.724 7.078-17.429 53.41-17.429 53.41H9.81S8.167 81.84 1.006 53.472c-6.45-25.522 20-48.4 25.377-52.733.6-.483.94-.739.94-.739 26.647 9.792 7.598 47.61 7.598 47.61z" class="cls-4" transform="rotate(28 -198.225 151.276)"/>
            <path id="Path_2168" d="M29.246.8C28.632.516 28 .246 27.324 0c0 0-.329.256-.94.739C21.011 5.077-5.444 27.95 1.007 53.472c7.16 28.368 8.787 48.245 8.787 48.245h2.934S11.1 81.834 3.924 53.466C-2.5 28.062 23.7 5.274 29.246.8z" class="cls-5" transform="rotate(28 -198.25 151.307)"/>
            <path id="Path_2169" d="M40.514 53.479c-7.177 28.368-8.793 48.244-8.793 48.244h-5.228S26.822 53.3 7.852 47.9a10.352 10.352 0 0 0-1.252-.3S-12.459 9.786 14.2 0c0 0 .269.2.756.591 4.936 3.953 32.081 27.07 25.558 52.888z" class="cls-4" transform="rotate(28 -239.406 316.526)"/>
            <path id="Path_2170" d="M8.537 47.6a12.562 12.562 0 0 0-2.464.7A321.771 321.771 0 0 1 0 .739C.6.256.94 0 .94 0c26.646 9.786 7.597 47.6 7.597 47.6z" class="cls-6" transform="rotate(28 -211.44 204.24)"/>
            <path id="Path_2171" d="M14.953.579A296.068 296.068 0 0 1 7.852 47.9a10.363 10.363 0 0 0-1.252-.3S-12.459 9.786 14.2 0c-.013-.013.257.188.753.579z" class="cls-6" transform="rotate(28 -239.447 316.534)"/>
            <path id="Path_2172" d="M60.552 194.456q-2.76 10.89-6.47 22.344s-11.737 12.227-40.089 0a215.034 215.034 0 0 1-5.948-21.559C1.188 165.4-7.037 108.519 10.487 50.1A217.447 217.447 0 0 1 32.562 0s14.971 17.189 25.959 50.088S76.5 131.6 60.552 194.456z" class="cls-7" transform="rotate(28 68.668 275.294)"/>
            <circle id="Ellipse_739" cx="23.537" cy="23.537" r="23.537" class="cls-8" transform="rotate(28 -83.457 261.705)"/>
            <path id="Path_2173" d="M33.382 16.689A16.693 16.693 0 0 1 6.109 29.6a16.865 16.865 0 0 1-3.129-3.395 16.427 16.427 0 0 1-1.08-1.771A16.66 16.66 0 0 1 0 16.689v-.4A16.712 16.712 0 0 1 12.158.611 17.258 17.258 0 0 1 16.18 0h.5a16.693 16.693 0 0 1 16.702 16.689z" class="cls-2" transform="rotate(28 -100.653 272.022)"/>
            <path id="Path_2174" d="M48.047 50.088c-26.7 12.786-48.047 0-48.047 0A217.447 217.447 0 0 1 22.091 0s14.971 17.189 25.956 50.088z" class="cls-4" transform="rotate(28 63.432 296.312)"/>
            <path id="Path_2175" d="M52.519 0q-1.873 7.374-4.173 15-1.091 3.638-2.3 7.334s-11.737 12.227-40.089 0c0 0-.92-2.593-2.3-7.334C2.625 11.419 1.341 6.618 0 .775a71.13 71.13 0 0 0 25.535 4.506A70.354 70.354 0 0 0 52.519 0z" class="cls-8" transform="rotate(28 -325.706 194.146)"/>
            <path id="Path_2176" d="M44.689 0q-1.091 3.638-2.3 7.334s-11.738 12.227-40.089 0c0 0-.92-2.593-2.3-7.334 0 0 28.893 8.313 44.689 0z" class="cls-7" transform="rotate(28 -357.646 193.984)"/>
            <path id="Path_2177" d="M12.161.611l-.036.026L0 16.292v.4a16.66 16.66 0 0 0 1.9 7.745L16.19 0z" class="cls-5" transform="rotate(28 -100.615 272.047)"/>
            <path id="Path_2178" d="M13.058 1.222l-9.93 14.869A16.866 16.866 0 0 1 0 12.7L11.829 0z" class="cls-5" transform="rotate(28 -129.236 271.25)"/>
            <path id="Path_2179" d="M20.352 216.791a215.386 215.386 0 0 1-5.952-21.559c-6.854-29.85-15.078-86.726 2.446-145.147A218.246 218.246 0 0 1 36.184 4.709C33.959 1.59 32.569 0 32.569 0a217.427 217.427 0 0 0-22.082 50.085c-17.524 58.421-9.3 115.3-2.441 145.147a215.378 215.378 0 0 0 5.948 21.559c11.2 4.827 19.808 5.839 26.123 5.3a62.235 62.235 0 0 1-19.765-5.3z" class="cls-5" transform="rotate(28 68.668 275.258)"/>
        </g>
    </g>
</svg>
