<svg xmlns="http://www.w3.org/2000/svg" width="67" height="67" viewBox="0 0 67 67">
    <g fill="#00afff" transform="translate(-288 -100)">
        <rect width="67" height="67" opacity="0.098" rx="13" transform="translate(288 100)"/>
        <path d="M30.39 9.45a1.033 1.033 0 0 0-1.032-.968h-5.466V6.866C23.892 3.632 20.824 1 17.055 1s-6.837 2.632-6.837 5.866v1.616H4.75a1.033 1.033 0 0 0-1.032.968l-1.467 23.5a1.033 1.033 0 0 0 1.032 1.1h27.543a1.033 1.033 0 0 0 1.032-1.1zM12.283 6.866c0-2.1 2.141-3.8 4.772-3.8s4.772 1.705 4.772 3.8v1.616h-9.544zm-2.066 3.681v2.243a1.033 1.033 0 0 0 2.066 0v-2.243h9.543v2.243a1.033 1.033 0 0 0 2.066 0v-2.243h4.5l.895 14.323H4.826l.895-14.323zM4.382 31.986l.359-5.739h24.628l.359 5.739z" transform="translate(305.75 113)"/>
    </g>
</svg>
