<svg xmlns="http://www.w3.org/2000/svg" viewBox="0 0 145.97 194.26"><defs><style>.cls-1{fill:#2a7de1;}</style></defs><g id="Layer_2" data-name="Layer 2"><g id="Layer_1-2" data-name="Layer 1"><path class="cls-1" d="M73,48.29A72.51,72.51,0,0,0,37,57.8V18.52a18.52,18.52,0,1,0-37,0V121.28a73,73,0,1,0,73-73Zm36.15,73.08a36,36,0,0,1-36,36,35.21,35.21,0,0,1-6.29-.56c-12.71,11.69-27,3.46-27,3.46l8.66-7s-7.59.24-12.86-1.43c-11.48-3.64-12.64-16.38-12.64-16.38a33.63,33.63,0,0,0,17.06.07A35.95,35.95,0,0,1,73,85.32a36.74,36.74,0,0,1,5,.35H78c.76.11,1.5.23,2.24.38.32.06.63.15,1,.22l.89.21a36.11,36.11,0,0,1,22,16.53l12.44,2-7.46,14.49C109.11,120.16,109.13,120.76,109.13,121.37Z"/><circle class="cls-1" cx="87.36" cy="108" r="5.12"/></g></g></svg>