<svg xmlns="http://www.w3.org/2000/svg" xmlns:xlink="http://www.w3.org/1999/xlink" viewBox="0 0 448.62 276.93"><defs><style>.cls-1,.cls-7{fill:none;}.cls-2{clip-path:url(#clip-path);}.cls-3{fill:#2a7de1;}.cls-4,.cls-8{fill:#fff;}.cls-5{clip-path:url(#clip-path-2);}.cls-6{opacity:0.31;}.cls-7{stroke:#fff;stroke-miterlimit:10;stroke-width:0.61px;}.cls-8{font-size:10.54px;font-weight:700;}</style><clipPath id="clip-path" transform="translate(92.13 57.35)"><rect class="cls-1" width="255.12" height="156.48"/></clipPath><clipPath id="clip-path-2" transform="translate(92.13 57.35)"><rect class="cls-1" x="0.52" y="-0.29" width="255.12" height="155.91" rx="22.87"/></clipPath></defs><g id="Layer_2" data-name="Layer 2"><g id="Layer_1-2" data-name="Layer 1"><g class="cls-2"><rect class="cls-3" x="92.13" y="57.64" width="255.12" height="155.91" rx="14.17"/><path class="cls-4" d="M48.6,50.17a7.81,7.81,0,0,1-7.8-7.8v-13a2.19,2.19,0,0,1,4.38,0v13a3.42,3.42,0,0,0,3.42,3.42,2.19,2.19,0,0,1,0,4.38Z" transform="translate(92.13 57.35)"/><path class="cls-4" d="M69.56,46.23A3.38,3.38,0,0,1,68.2,43.5V35.11a2.19,2.19,0,1,0-4.38,0V43a3,3,0,0,1-3,2.78,3.42,3.42,0,0,1-3.42-3.42V35.09a2.19,2.19,0,1,0-4.38,0v7.28a7.81,7.81,0,0,0,7.8,7.8,7.31,7.31,0,0,0,4.73-1.73,7.52,7.52,0,0,0,1.35,1.29,2.19,2.19,0,1,0,2.64-3.5Z" transform="translate(92.13 57.35)"/><path class="cls-4" d="M29.68,32.9A8.55,8.55,0,0,0,25.42,34V29.38a2.19,2.19,0,0,0-4.38,0V41.54a8.64,8.64,0,1,0,8.64-8.64ZM34,41.55a4.26,4.26,0,0,1-4.26,4.26,3.64,3.64,0,0,1-.74-.07,2.77,2.77,0,0,1-3.2.41l1-.82a5.9,5.9,0,0,1-1.52-.17,2.34,2.34,0,0,1-1.5-1.94,4,4,0,0,0,2,0,4.33,4.33,0,0,1-.35-1.69,4.26,4.26,0,0,1,4.26-4.26,3.68,3.68,0,0,1,.58,0h0l.27,0,.11,0,.1,0a4.29,4.29,0,0,1,2.61,2l1.47.24L34,41.34Z" transform="translate(92.13 57.35)"/><circle class="cls-4" cx="123.51" cy="97.32" r="0.61"/><g class="cls-5"><g class="cls-6"><path class="cls-7" d="M43.59,219.27c-74.67,0-135.42-60.74-135.42-135.41V72.18C-91.83.93-33.86-57,37.4-57a132.48,132.48,0,0,1,77.27,25.66,138.39,138.39,0,0,1,25.89,20.72A134.7,134.7,0,0,1,179,83.86C179,158.53,118.26,219.27,43.59,219.27Z" transform="translate(92.13 57.35)"/><path class="cls-7" d="M43.59,214.73C-28.58,214.73-87.29,156-87.29,83.86V72.18A124.83,124.83,0,0,1,37.4-52.5a127.78,127.78,0,0,1,74.72,24.88A134.42,134.42,0,0,1,137.31-7.49a130.17,130.17,0,0,1,37.15,91.35C174.46,156,115.75,214.73,43.59,214.73Z" transform="translate(92.13 57.35)"/><path class="cls-7" d="M43.59,210.19A126.48,126.48,0,0,1-82.75,83.86V72.18A120.28,120.28,0,0,1,37.4-48a123.16,123.16,0,0,1,72.17,24.1A129,129,0,0,1,134.05-4.32a125.63,125.63,0,0,1,35.87,88.18A126.47,126.47,0,0,1,43.59,210.19Z" transform="translate(92.13 57.35)"/><path class="cls-7" d="M43.59,205.65A121.93,121.93,0,0,1-78.21,83.86V72.18A115.74,115.74,0,0,1,37.4-43.42,118.55,118.55,0,0,1,107-20.1a124.6,124.6,0,0,1,23.78,19,121.15,121.15,0,0,1,34.58,85A121.92,121.92,0,0,1,43.59,205.65Z" transform="translate(92.13 57.35)"/><path class="cls-7" d="M43.59,201.11A117.39,117.39,0,0,1-73.67,83.86V72.18A111.19,111.19,0,0,1,37.4-38.88a113.8,113.8,0,0,1,67.06,22.54A119.7,119.7,0,0,1,127.55,2a116.61,116.61,0,0,1,33.29,81.84A117.39,117.39,0,0,1,43.59,201.11Z" transform="translate(92.13 57.35)"/><path class="cls-7" d="M43.59,196.57A112.84,112.84,0,0,1-69.13,83.86V72.18A106.64,106.64,0,0,1,37.4-34.34a109.17,109.17,0,0,1,64.51,21.76A115,115,0,0,1,124.3,5.19a112.09,112.09,0,0,1,32,78.67A112.84,112.84,0,0,1,43.59,196.57Z" transform="translate(92.13 57.35)"/><path class="cls-7" d="M43.59,192A108.29,108.29,0,0,1-64.59,83.86V72.18a102.1,102.1,0,0,1,102-102,104.42,104.42,0,0,1,62,21,110.43,110.43,0,0,1,21.7,17.18,107.57,107.57,0,0,1,30.71,75.5A108.29,108.29,0,0,1,43.59,192Z" transform="translate(92.13 57.35)"/><path class="cls-7" d="M43.59,187.49A103.75,103.75,0,0,1-60,83.86V72.18A97.56,97.56,0,0,1,37.4-25.26,99.8,99.8,0,0,1,96.8-5.06a106.19,106.19,0,0,1,21,16.59,103.07,103.07,0,0,1,29.42,72.33A103.75,103.75,0,0,1,43.59,187.49Z" transform="translate(92.13 57.35)"/><path class="cls-7" d="M43.59,183a99.21,99.21,0,0,1-99.1-99.09V72.18A93,93,0,0,1,37.4-20.72,95.06,95.06,0,0,1,94.24-1.3a101.61,101.61,0,0,1,20.31,16,98.59,98.59,0,0,1,28.13,69.17A99.2,99.2,0,0,1,43.59,183Z" transform="translate(92.13 57.35)"/><path class="cls-7" d="M43.59,178.41A94.66,94.66,0,0,1-51,83.86V72.18A88.47,88.47,0,0,1,37.4-16.18,90.45,90.45,0,0,1,91.69,2.46a97.32,97.32,0,0,1,19.61,15.4,94.06,94.06,0,0,1,26.84,66A94.65,94.65,0,0,1,43.59,178.41Z" transform="translate(92.13 57.35)"/><path class="cls-7" d="M43.59,173.87a90.12,90.12,0,0,1-90-90V72.18A83.92,83.92,0,0,1,37.4-11.64,85.73,85.73,0,0,1,89.13,6.23,91.76,91.76,0,0,1,108,21,89.5,89.5,0,0,1,133.6,83.86,90.11,90.11,0,0,1,43.59,173.87Z" transform="translate(92.13 57.35)"/><path class="cls-7" d="M43.59,169.33A85.57,85.57,0,0,1-41.89,83.86V72.18A79.37,79.37,0,0,1,37.4-7.1,81,81,0,0,1,86.57,10,87.31,87.31,0,0,1,104.79,24.2a85,85,0,0,1,24.27,59.66A85.56,85.56,0,0,1,43.59,169.33Z" transform="translate(92.13 57.35)"/><path class="cls-7" d="M43.59,164.79A81,81,0,0,1-37.35,83.86V72.18A74.84,74.84,0,0,1,37.4-2.56,76.39,76.39,0,0,1,84,13.75a82.81,82.81,0,0,1,17.53,13.62,80.48,80.48,0,0,1,23,56.49A81,81,0,0,1,43.59,164.79Z" transform="translate(92.13 57.35)"/><path class="cls-7" d="M43.59,160.25a76.49,76.49,0,0,1-76.4-76.39V72.18A70.29,70.29,0,0,1,37.4,2a71.7,71.7,0,0,1,44,15.53,78.47,78.47,0,0,1,16.85,13A76,76,0,0,1,120,83.86,76.48,76.48,0,0,1,43.59,160.25Z" transform="translate(92.13 57.35)"/><path class="cls-7" d="M43.59,155.71A71.94,71.94,0,0,1-28.27,83.86V72.18A65.74,65.74,0,0,1,37.4,6.52,67,67,0,0,1,78.88,21.28,73.14,73.14,0,0,1,95,33.71a71.46,71.46,0,0,1,20.4,50.15A71.93,71.93,0,0,1,43.59,155.71Z" transform="translate(92.13 57.35)"/><path class="cls-7" d="M43.59,151.17A67.38,67.38,0,0,1-23.72,83.86V72.18A61.19,61.19,0,0,1,37.4,11.06,62.31,62.31,0,0,1,76.31,25,68.89,68.89,0,0,1,91.79,36.88a67.31,67.31,0,0,1-48.2,114.29Z" transform="translate(92.13 57.35)"/><path class="cls-7" d="M43.59,146.63A62.84,62.84,0,0,1-19.18,83.86V72.18A56.64,56.64,0,0,1,37.4,15.6,57.61,57.61,0,0,1,73.74,28.81a64.06,64.06,0,0,1,14.8,11.24A62.77,62.77,0,0,1,43.59,146.63Z" transform="translate(92.13 57.35)"/><path class="cls-7" d="M43.59,142.09A58.29,58.29,0,0,1-14.64,83.86V72.18a52.1,52.1,0,0,1,52-52A53,53,0,0,1,71.17,32.58,59.06,59.06,0,0,1,85.29,43.22a58.23,58.23,0,0,1-41.7,98.87Z" transform="translate(92.13 57.35)"/><path class="cls-7" d="M43.59,137.55A53.74,53.74,0,0,1-10.1,83.86V72.18a47.56,47.56,0,0,1,47.5-47.5A48.25,48.25,0,0,1,68.59,36.34,54.77,54.77,0,0,1,82,46.39a53.69,53.69,0,0,1-38.45,91.16Z" transform="translate(92.13 57.35)"/><path class="cls-7" d="M43.59,133A49.21,49.21,0,0,1-5.56,83.86V72.18a43,43,0,0,1,43-43A43.49,43.49,0,0,1,66,40.12a50,50,0,0,1,12.78,9.43A49.15,49.15,0,0,1,43.59,133Z" transform="translate(92.13 57.35)"/><path class="cls-7" d="M43.59,128.47A44.66,44.66,0,0,1-1,83.86V72.18A38.43,38.43,0,0,1,63.41,43.89a45.48,45.48,0,0,1,12.12,8.83,44.61,44.61,0,0,1-31.94,75.75Z" transform="translate(92.13 57.35)"/><path class="cls-7" d="M43.59,123.93A40.11,40.11,0,0,1,3.52,83.86V72.18A33.89,33.89,0,0,1,60.81,47.67a40.89,40.89,0,0,1,11.47,8.22,40.07,40.07,0,0,1-28.69,68Z" transform="translate(92.13 57.35)"/><path class="cls-7" d="M43.59,119.39A35.57,35.57,0,0,1,8.06,83.86V72.18A29.35,29.35,0,0,1,58.19,51.46,36.05,36.05,0,0,1,69,59.06a35.53,35.53,0,0,1-25.44,60.33Z" transform="translate(92.13 57.35)"/><path class="cls-7" d="M43.59,114.85a31,31,0,0,1-31-31V72.18A24.81,24.81,0,0,1,55.55,55.26a31.37,31.37,0,0,1,10.23,7,31,31,0,0,1-22.19,52.62Z" transform="translate(92.13 57.35)"/><path class="cls-7" d="M43.59,110.31A26.48,26.48,0,0,1,17.14,83.86V72.18a20.27,20.27,0,0,1,35.73-13.1,26.61,26.61,0,0,1,9.66,6.32,26.45,26.45,0,0,1-18.94,44.91Z" transform="translate(92.13 57.35)"/><path class="cls-7" d="M43.59,105.77A21.94,21.94,0,0,1,21.68,83.86V72.18a15.73,15.73,0,0,1,28.45-9.24,21.92,21.92,0,0,1-6.54,42.83Z" transform="translate(92.13 57.35)"/><path class="cls-7" d="M43.59,101.23A17.39,17.39,0,0,1,26.22,83.86V72.18a11.19,11.19,0,0,1,21-5.31,17.38,17.38,0,0,1-3.66,34.36Z" transform="translate(92.13 57.35)"/><path class="cls-7" d="M43.59,96.69A12.84,12.84,0,0,1,30.76,83.86V72.18A6.64,6.64,0,0,1,43.94,71a12.83,12.83,0,0,1-.35,25.66Z" transform="translate(92.13 57.35)"/><path class="cls-7" d="M43.59,75.57a8.21,8.21,0,0,0-4.09,1.08V72.18a2.1,2.1,0,1,0-4.2,0V83.86a8.29,8.29,0,1,0,8.29-8.29Z" transform="translate(92.13 57.35)"/><path class="cls-7" d="M47.7,83.87A4.1,4.1,0,0,1,43.6,88a4.17,4.17,0,0,1-.71-.06,2.67,2.67,0,0,1-3.07.39l1-.79a5.46,5.46,0,0,1-1.46-.17,2.23,2.23,0,0,1-1.44-1.86,3.86,3.86,0,0,0,1.94,0,4,4,0,0,1-.34-1.62,4.1,4.1,0,0,1,4.09-4.09,5.09,5.09,0,0,1,.56,0h0l.25,0,.11,0,.1,0a4.11,4.11,0,0,1,2.51,1.87l1.41.24-.85,1.64C47.69,83.73,47.7,83.8,47.7,83.87Z" transform="translate(92.13 57.35)"/><circle class="cls-4" cx="137.36" cy="139.7" r="0.58"/></g></g><text class="cls-8" transform="translate(373.25 130.1)">Bank, but lovely</text></g></g></g></svg>