<svg xmlns="http://www.w3.org/2000/svg" width="32" height="32" viewBox="0 0 32 32">
    <path fill="none" d="M0 0H32V32H0z"/>
    <g>
        <g>
            <path fill="#43e6c5" d="M29.094 24.959a.934.934 0 0 0-1.321 1.321l4.3 4.3a.912.912 0 0 0 .66.273h.046a1.041 1.041 0 0 0 .683-.342L44.235 17.6a.937.937 0 1 0-1.435-1.2L32.668 28.533z" transform="translate(2.55 2.574) translate(.45 .426) translate(-21.341 -12.51)"/>
            <path fill="#040562" d="M20.634 2.446a13.234 13.234 0 1 0 4.189 4.189.926.926 0 1 0-1.571.979 11.334 11.334 0 1 1-3.6-3.6.926.926 0 0 0 .979-1.571z" transform="translate(2.55 2.574) translate(.45 .426) translate(-.45 -.426)"/>
        </g>
    </g>
</svg>
