<svg xmlns="http://www.w3.org/2000/svg" width="56" height="56" viewBox="0 0 56 56">
    <defs>
        <style>
            .cls-2{fill:#ffbe00}.cls-3{fill:#005c87}
        </style>
    </defs>
    <g id="Group_3120" transform="translate(-98 -256)">
        <g id="Group_3119" transform="translate(101 -984.419)">
            <path id="Path_2589" d="M0 1243.419h49.21v33.261H0z" class="cls-2"/>
            <path id="Path_2590" d="M0 1243.419h49.21v33.261H0zm0 34.628h49.21v14.582H0z" class="cls-2"/>
            <ellipse id="Ellipse_820" cx="23.693" cy="9.796" class="cls-3" rx="23.693" ry="9.796" transform="translate(.912 1250.711)"/>
            <path id="Path_2591" fill="#fff" d="M206.31 1486.609v7.651l-1.468.1-.157-7.6zm-3.825 9.527v-.157l.89-.89h.157l.89.89v.157l-.89.891h-.157zm-1.938 0v-.157l.89-.89h.158l.89.89v.157l-.89.891h-.158zm.525-3.867h.262a2.886 2.886 0 0 0 .51-.037 1.244 1.244 0 0 0 .3-.09.32.32 0 0 0 .146-.116.248.248 0 0 0 .037-.126q0-.2-.046-.7c-.031-.335-.085-.818-.162-1.446l1.573-.262c.028.2.055.4.079.623l.068.634c.022.203.037.387.048.556s.015.3.015.387a3.2 3.2 0 0 1-.21 1.227 2.123 2.123 0 0 1-.571.811 2.225 2.225 0 0 1-.833.446 3.619 3.619 0 0 1-1.006.135h-.21a1.847 1.847 0 0 1-.582-.083 1.022 1.022 0 0 1-.435-.293 3.242 3.242 0 0 1-1.032 2.32 3.88 3.88 0 0 1-2.511.833l-.367-1.73a8.207 8.207 0 0 0 1.137-.33 3.884 3.884 0 0 0 .713-.35 1.293 1.293 0 0 0 .378-.35.831.831 0 0 0 .131-.33 10.159 10.159 0 0 0-.116-1.148c-.077-.555-.2-1.255-.356-2.1l1.572-.42c.092.433.175.777.252 1.032a1.94 1.94 0 0 0 .267.586.676.676 0 0 0 .372.262 2.119 2.119 0 0 0 .573.061zm-4.14-5.66v7.651l-1.468.1-.157-7.6zm-2.568 1.05v.157l-.943.942h-.158l-.943-.942v-.157l.943-.943h.158zm-2.673 6.653a4.152 4.152 0 0 1-.455-.026 2 2 0 0 1-.461-.109 1.581 1.581 0 0 1-.424-.24 1.288 1.288 0 0 1-.335-.409 1.883 1.883 0 0 1-.545.549 1.414 1.414 0 0 1-.818.236 1.791 1.791 0 0 1-.376-.042 2.024 2.024 0 0 1-.4-.131 1.851 1.851 0 0 1-.378-.225 1.492 1.492 0 0 1-.315-.334 1.435 1.435 0 0 1-.691.6 2.352 2.352 0 0 1-.776.131 1.764 1.764 0 0 1-.938-.214 1.948 1.948 0 0 1-.582-.571 1.7 1.7 0 0 1-.691.593 2.624 2.624 0 0 1-1.089.194h-.21a2.012 2.012 0 0 1-.612-.083.985.985 0 0 1-.435-.282v.262a2.781 2.781 0 0 1-.293 1.284 2.872 2.872 0 0 1-.807.969 3.869 3.869 0 0 1-1.2.619 4.8 4.8 0 0 1-1.472.221 3.3 3.3 0 0 1-2.316-.717 2.671 2.671 0 0 1-.776-2.058 7.143 7.143 0 0 1 .125-1.115 10.739 10.739 0 0 1 .556-1.87l1.258.368c-.077.315-.14.593-.188.833s-.088.45-.116.63a4.813 4.813 0 0 0-.063.792 1.136 1.136 0 0 0 .083.44.849.849 0 0 0 .278.345 1.426 1.426 0 0 0 .5.229 2.889 2.889 0 0 0 .759.083 4.464 4.464 0 0 0 .943-.09 2.99 2.99 0 0 0 .687-.225 1.358 1.358 0 0 0 .424-.3.5.5 0 0 0 .147-.326l-.157-7.546 1.625-.157v4.558a1.678 1.678 0 0 0 .074.549.734.734 0 0 0 .214.335.8.8 0 0 0 .33.169 1.828 1.828 0 0 0 .429.048h.21a2.008 2.008 0 0 0 .608-.074.7.7 0 0 0 .367-.267 1.251 1.251 0 0 0 .184-.54 6.722 6.722 0 0 0 .046-.9h1.415v1.1c0 .118-.009.223-.015.315a.6.6 0 0 0 .346.3 1.426 1.426 0 0 0 .409.063.777.777 0 0 0 .367-.079.581.581 0 0 0 .241-.282 1.8 1.8 0 0 0 .136-.545 7.818 7.818 0 0 0 .042-.875h1.415v1.142c0 .125-.009.234-.015.326a.8.8 0 0 0 .367.256 1.356 1.356 0 0 0 .387.057.658.658 0 0 0 .308-.063.437.437 0 0 0 .188-.267 2.576 2.576 0 0 0 .1-.6c.02-.262.031-.616.031-1.063h1.415v1.133a.864.864 0 0 0 .214.676 1.124 1.124 0 0 0 .728.184h.262a2.812 2.812 0 0 0 .507-.038 1.254 1.254 0 0 0 .3-.09.319.319 0 0 0 .147-.116.25.25 0 0 0 .037-.127q0-.2-.046-.7c-.031-.334-.085-.818-.162-1.445l1.573-.262c.028.2.055.4.079.624l.068.634c.022.204.037.387.048.555s.015.3.015.387a3.2 3.2 0 0 1-.21 1.227 2.123 2.123 0 0 1-.571.811 2.232 2.232 0 0 1-.833.446 3.647 3.647 0 0 1-1.006.135h-.208z" transform="translate(-165.774 -231.301)"/>
            <g id="Group_3118" transform="translate(6.38 1280.326)">
                <path id="Path_2592" d="M154.814 2001.295l.63-2.94h-8.86l-.595 2.94h2.95l-1 4.766h3.349l1-4.766zm-9.2-2.94h-4.392l-2.638 5.711-.451-5.711h-4.691l-2.944 9.8h3.226l1.918-6.327.444 6.327h2.5l3.676-6.782-1.765 6.782h3.084zm21.843 0h-3.084l-1.623 6.128-3.272-6.128h-2.924l-2.041 9.8h3.087l1.168-5.789 2.959 5.789h3.23z" class="cls-3" transform="translate(-130.498 -1998.355)"/>
                <path id="Path_2593" fill="#c21906" d="M478.454 2170.055l-.306 1.4h3.352l.3-1.4z" transform="translate(-461.152 -2161.661)"/>
            </g>
        </g>
    </g>
</svg>
