<svg xmlns="http://www.w3.org/2000/svg" width="56" height="56" viewBox="0 0 56 56">
    <defs>
        <linearGradient id="foruojz3ba" x1="-.104" x2="-.103" y1="-.117" y2="-.117" gradientUnits="objectBoundingBox">
            <stop offset="0" stop-color="#9e2373"/>
            <stop offset="1" stop-color="#e8cae1"/>
        </linearGradient>
    </defs>
    <g>
        <g fill-rule="evenodd">
            <path fill="#9b2776" d="M1225.963 672.488a16.8 16.8 0 1 0 16.83 16.022 16.821 16.821 0 0 0-16.83-16.022zm25.983 18.491c-.111.75-.212 1.5-.335 2.251a22.457 22.457 0 0 1-17.23 18.039 21.974 21.974 0 0 1-20.281-5.469 21.675 21.675 0 0 1-6.99-13.362 22.539 22.539 0 1 1 44.652-6.179c.064.441.124.883.185 1.324z" transform="translate(-242 -256) translate(-959.881 -405.756)"/>
            <path fill="url(#foruojz3ba)" d="M1262.81 778.531a12.378 12.378 0 1 0-12.362-12.412 12.337 12.337 0 0 0 12.362 12.412m-2.223-28.714a16.335 16.335 0 1 1-16.35 16.113 16.359 16.359 0 0 1 16.35-16.113" transform="translate(-242 -256) translate(-959.881 -405.756) translate(-34.563 -76.853)"/>
        </g>
    </g>
</svg>
