<svg xmlns="http://www.w3.org/2000/svg" width="56" height="56" viewBox="0 0 56 56">
    <g>
        <g>
            <path fill="#faa61a" d="M1064.485 434.209a10.148 10.148 0 0 1 3.216-.135 2.88 2.88 0 0 1 1.829.909 2.357 2.357 0 0 1 .455 1.7 7.054 7.054 0 0 1-.8 2.5 21.578 21.578 0 0 1-2.338 3.54 48.6 48.6 0 0 1-4.045 4.442c-1.92 1.887-3.954 3.657-6.049 5.349-.159.124-.314.252-.473.377h-.5c1.607-1.289 3.166-2.637 4.645-4.07a39.8 39.8 0 0 0 3.636-3.981 18.441 18.441 0 0 0 1.778-2.673 6.831 6.831 0 0 0 .764-2.123 2.166 2.166 0 0 0-.3-1.59 2.281 2.281 0 0 0-1.48-.82 8.53 8.53 0 0 0-3.016.13 30.822 30.822 0 0 0-6.027 1.971 75 75 0 0 0-11 5.99 90.016 90.016 0 0 0-9.4 6.982 58.994 58.994 0 0 0-4.959 4.721 27.859 27.859 0 0 0-3.119 3.959 9 9 0 0 0-1.183 2.607 2.431 2.431 0 0 0 .159 1.783 2.089 2.089 0 0 0 1.365.9 7.737 7.737 0 0 0 2.995-.049 28.163 28.163 0 0 0 5.478-1.692c1.127-.458 2.235-.962 3.329-1.494v.439c-1.921 1-3.884 1.926-5.893 2.737a34.63 34.63 0 0 1-5.867 1.853 11.6 11.6 0 0 1-3.4.258 3.316 3.316 0 0 1-1.911-.743 2.088 2.088 0 0 1-.65-1.444 5.294 5.294 0 0 1 .493-2.3 15.039 15.039 0 0 1 1.306-2.373c.162-.238.323-.476.49-.71a41.674 41.674 0 0 1 4.048-4.721 87.145 87.145 0 0 1 10.132-8.7 110.311 110.311 0 0 1 10.542-6.933c2.105-1.213 4.256-2.35 6.46-3.379a53.356 53.356 0 0 1 5.539-2.243 27 27 0 0 1 3.748-.986z" transform="translate(-170 -256) translate(-692.647 -168.997) translate(-151.387)"/>
            <path fill="#56c5d0" d="M905.47 802.722c1.116-.092 2.239-.113 3.359-.114a27.049 27.049 0 0 1 4.154.308 9.947 9.947 0 0 1 2.8.828 2.885 2.885 0 0 1 1.4 1.315 2.134 2.134 0 0 1-.063 1.709 6.437 6.437 0 0 1-1.461 1.958 20.381 20.381 0 0 1-3.32 2.5 55.114 55.114 0 0 1-8.038 4 102.687 102.687 0 0 1-13.163 4.329 96.775 96.775 0 0 1-14.488 2.665 45.231 45.231 0 0 1-8.094.165 13.974 13.974 0 0 1-3.921-.823 3.505 3.505 0 0 1-1.737-1.317 2.031 2.031 0 0 1-.081-1.8 6.269 6.269 0 0 1 1.549-2.109 23.969 23.969 0 0 1 4.647-3.277c1.254-.72 2.561-1.345 3.86-1.982-.167.226-.327.457-.488.687a23.924 23.924 0 0 0-3.524 2.354 7.532 7.532 0 0 0-1.65 1.816 2.125 2.125 0 0 0-.333 1.567 1.987 1.987 0 0 0 .917 1.154 6.6 6.6 0 0 0 2.171.8 21.807 21.807 0 0 0 4.29.36 55.676 55.676 0 0 0 8.254-.742 91.706 91.706 0 0 0 13.185-3.147 66.927 66.927 0 0 0 11.036-4.5 24.6 24.6 0 0 0 4.12-2.685 7.263 7.263 0 0 0 1.656-1.86 2.034 2.034 0 0 0 .274-1.553 2.137 2.137 0 0 0-1.054-1.186 7.671 7.671 0 0 0-2.436-.782 24.075 24.075 0 0 0-4.291-.276c.158-.121.312-.245.47-.365z" transform="translate(-170 -256) translate(-692.647 -168.997) translate(0 -349.678)"/>
        </g>
    </g>
</svg>
