<svg xmlns="http://www.w3.org/2000/svg" xmlns:xlink="http://www.w3.org/1999/xlink" width="50" height="50" viewBox="0 0 50 50">
  <defs>
    <style>
      .cls-1 {
        fill: #1cddb5;
      }

      .cls-2 {
        fill: #fff;
      }

      .cls-3 {
        filter: url(#Path_1537);
      }
    </style>
    <filter id="Path_1537" x="0" y="0" width="50" height="50" filterUnits="userSpaceOnUse">
      <feOffset dy="3" input="SourceAlpha"/>
      <feGaussianBlur stdDeviation="3" result="blur"/>
      <feFlood flood-opacity="0.161"/>
      <feComposite operator="in" in2="blur"/>
      <feComposite in="SourceGraphic"/>
    </filter>
  </defs>
  <g id="Component_101_2" data-name="Component 101 – 2" transform="translate(9 6)">
    <g id="Group_445" data-name="Group 445" transform="translate(3075 1896) rotate(90)">
      <g class="cls-3" transform="matrix(0, -1, 1, 0, -1902, 3084)">
        <path id="Path_1537-2" data-name="Path 1537" class="cls-1" d="M16,0A16,16,0,1,1,0,16,16,16,0,0,1,16,0Z" transform="translate(41 6) rotate(90)"/>
      </g>
      <g id="_x37_4" transform="translate(-1954.263 2932.663)">
        <path id="XMLID_153_" class="cls-2" d="M435.081,121.319V123.5H428.31v3.821l-4.91-4.91,4.91-4.908v3.819Z" transform="translate(-351.477 0)"/>
        <path id="XMLID_154_" class="cls-2" d="M70.8,455.6l4.908,4.91L70.8,465.417V461.6H64.1v-2.177h6.7Z" transform="translate(0 -330.739)"/>
      </g>
    </g>
  </g>
</svg>
