<svg xmlns="http://www.w3.org/2000/svg" viewBox="0 0 76 54.5"><g id="Layer_2" data-name="Layer 2"><g id="Layer_1-2" data-name="Layer 1"><path d="M66.83,54.5H19.17A9.18,9.18,0,0,1,10,45.33V18.17A9.18,9.18,0,0,1,19.17,9H66.83A9.18,9.18,0,0,1,76,18.17V45.33A9.18,9.18,0,0,1,66.83,54.5ZM19.17,12A6.18,6.18,0,0,0,13,18.17V45.33a6.18,6.18,0,0,0,6.17,6.17H66.83A6.18,6.18,0,0,0,73,45.33V18.17A6.18,6.18,0,0,0,66.83,12Z"/><polygon points="74.5 28.5 10 28.5 10 18.5 74.5 18.5 74.5 21.5 13 21.5 13 25.5 74.5 25.5 74.5 28.5"/><path d="M11.5,45.5H9.17A9.18,9.18,0,0,1,0,36.33V9.17A9.18,9.18,0,0,1,9.17,0H56.83A9.18,9.18,0,0,1,66,9.17V10.5H63V9.17A6.18,6.18,0,0,0,56.83,3H9.17A6.18,6.18,0,0,0,3,9.17V36.33A6.18,6.18,0,0,0,9.17,42.5H11.5Z"/></g></g></svg>