<svg xmlns="http://www.w3.org/2000/svg" width="32" height="32" viewBox="0 0 32 32">
    <g>
        <path fill="#307fe2" d="M0 0H32V32H0z" opacity="0.001" transform="translate(2426 -4769) translate(-2426 4769)"/>
        <g>
            <g>
                <path fill="#110820" d="M34.5 21.393l-3.258-5.1a1.447 1.447 0 0 0-.135-2.628l.986-3.449a.427.427 0 0 0-.107-.427 1.686 1.686 0 0 0-2.381 0 .839.839 0 0 1-1.183 0 1.687 1.687 0 0 0-2.377 0 .834.834 0 0 1-1.175.011 1.492 1.492 0 0 0-1.053-.491 1.322 1.322 0 0 0-1.332.486.8.8 0 0 0-.075.181.727.727 0 0 0 .012.393l.941 3.293a1.449 1.449 0 0 0-.134 2.625l-3.181 4.986a6.43 6.43 0 0 0 .291 7.438 6.327 6.327 0 0 0 4.96 2.4h3.879A6.319 6.319 0 0 0 34.5 21.4zm-10.242-11a1.687 1.687 0 0 0 2.377 0l.012-.012a.833.833 0 0 1 1.175 0 1.686 1.686 0 0 0 2.381 0 .833.833 0 0 1 .985-.141l-.945 3.3h-6.022l-.948-3.292a.833.833 0 0 1 .985.141zm9.709 17.028a5.4 5.4 0 0 1-4.794 2.839H25.3a5.467 5.467 0 0 1-4.61-8.407l3.449-5.4h1.183a.426.426 0 1 0 0-.852H23.9a.6.6 0 0 1 0-1.193h6.676a.6.6 0 0 1 0 1.193h-1.419a.426.426 0 0 0 0 .852h1.183l3.449 5.4a5.4 5.4 0 0 1 .182 5.57z" transform="translate(2426 -4769) translate(-2437.003 4764.709) translate(19.003 9.291) translate(-19.003 -9.291)"/>
            </g>
        </g>
    </g>
</svg>
