<svg xmlns="http://www.w3.org/2000/svg" viewBox="0 0 55.7 73.71"><g id="Layer_2" data-name="Layer 2"><g id="Layer_1-2" data-name="Layer 1"><path d="M52.36,40.87l-11-17.23a4.89,4.89,0,0,0-.45-8.88L44.22,3.11a1.44,1.44,0,0,0-.35-1.44,5.72,5.72,0,0,0-8,0,2.79,2.79,0,0,1-2,.83,2.83,2.83,0,0,1-2-.83,5.69,5.69,0,0,0-8,0v0a2.83,2.83,0,0,1-4,0A5,5,0,0,0,16.26.07c-1.56-.26-3.67.18-4.5,1.64a2.86,2.86,0,0,0-.26.61,2.5,2.5,0,0,0,0,1.33l3.18,11.12a4.89,4.89,0,0,0-.45,8.87L3.52,40.48a21.7,21.7,0,0,0,1,25.12,21.36,21.36,0,0,0,16.75,8.11h13.1a21.35,21.35,0,0,0,18-32.82ZM17.76,3.71h0a5.69,5.69,0,0,0,8,0l0,0a2.82,2.82,0,0,1,4,0h0a5.69,5.69,0,0,0,8,0,2.82,2.82,0,0,1,3.33-.47L38,14.36H17.63L14.42,3.24a2.82,2.82,0,0,1,3.33.47ZM50.55,61.23a18.2,18.2,0,0,1-16.19,9.58H21.26A18.46,18.46,0,0,1,5.69,42.42L17.34,24.18h4a1.44,1.44,0,1,0,0-2.88h-4.8a2,2,0,0,1,0-4H39.08a2,2,0,1,1,0,4H34.29a1.44,1.44,0,1,0,0,2.88h4L49.94,42.42a18.24,18.24,0,0,1,.61,18.81Z"/></g></g></svg>