<svg xmlns="http://www.w3.org/2000/svg" viewBox="0 0 60 62"><g id="Layer_2" data-name="Layer 2"><g id="Layer_1-2" data-name="Layer 1"><path d="M20.56,29H7.44A7.45,7.45,0,0,1,0,21.56V7.44A7.45,7.45,0,0,1,7.44,0H20.56A7.45,7.45,0,0,1,28,7.44V21.56A7.45,7.45,0,0,1,20.56,29ZM7.44,3A4.44,4.44,0,0,0,3,7.44V21.56A4.44,4.44,0,0,0,7.44,26H20.56A4.44,4.44,0,0,0,25,21.56V7.44A4.44,4.44,0,0,0,20.56,3Z"/><path d="M52.56,29H39.44A7.45,7.45,0,0,1,32,21.56V7.44A7.45,7.45,0,0,1,39.44,0H52.56A7.45,7.45,0,0,1,60,7.44V21.56A7.45,7.45,0,0,1,52.56,29ZM39.44,3A4.44,4.44,0,0,0,35,7.44V21.56A4.44,4.44,0,0,0,39.44,26H52.56A4.44,4.44,0,0,0,57,21.56V7.44A4.44,4.44,0,0,0,52.56,3Z"/><path d="M52.56,62H39.44A7.45,7.45,0,0,1,32,54.56V40.44A7.45,7.45,0,0,1,39.44,33H52.56A7.45,7.45,0,0,1,60,40.44V54.56A7.45,7.45,0,0,1,52.56,62ZM39.44,36A4.44,4.44,0,0,0,35,40.44V54.56A4.44,4.44,0,0,0,39.44,59H52.56A4.44,4.44,0,0,0,57,54.56V40.44A4.44,4.44,0,0,0,52.56,36Z"/><path d="M20.56,62H7.44A7.45,7.45,0,0,1,0,54.56V40.44A7.45,7.45,0,0,1,7.44,33H20.56A7.45,7.45,0,0,1,28,40.44V54.56A7.45,7.45,0,0,1,20.56,62ZM7.44,36A4.44,4.44,0,0,0,3,40.44V54.56A4.44,4.44,0,0,0,7.44,59H20.56A4.44,4.44,0,0,0,25,54.56V40.44A4.44,4.44,0,0,0,20.56,36Z"/></g></g></svg>