<svg xmlns="http://www.w3.org/2000/svg" width="32" height="32" viewBox="0 0 32 32">

    <g id="more" transform="translate(2510 -4769)">
        <path id="Rectangle_17446" fill="#fff" d="M0 0H32V32H0z" opacity="0.001" transform="translate(-2510 4769)"/>
        <g id="Group_2972" transform="translate(-2525 4756)">
            <g id="Group_2968" transform="translate(20 18)">
                <path id="Path_2489" d="M27.278 28.267h-4.644A2.637 2.637 0 0 1 20 25.632v-5A2.637 2.637 0 0 1 22.634 18h4.644a2.637 2.637 0 0 1 2.634 2.634v5a2.637 2.637 0 0 1-2.634 2.633zm-4.644-9.2a1.574 1.574 0 0 0-1.572 1.572v5a1.574 1.574 0 0 0 1.572 1.561h4.644a1.574 1.574 0 0 0 1.572-1.572v-5a1.574 1.574 0 0 0-1.572-1.572z" class="cls-2" transform="translate(-20 -18)"/>
            </g>
            <g id="Group_2969" transform="translate(31.329 18)">
                <path id="Path_2490" d="M59.278 28.267h-4.644A2.637 2.637 0 0 1 52 25.632v-5A2.637 2.637 0 0 1 54.634 18h4.644a2.637 2.637 0 0 1 2.634 2.634v5a2.637 2.637 0 0 1-2.634 2.633zm-4.644-9.2a1.574 1.574 0 0 0-1.572 1.572v5a1.574 1.574 0 0 0 1.572 1.561h4.644a1.574 1.574 0 0 0 1.572-1.572v-5a1.574 1.574 0 0 0-1.572-1.572z" class="cls-2" transform="translate(-52 -18)"/>
            </g>
            <g id="Group_2970" transform="translate(31.329 29.683)">
                <path id="Path_2491" d="M59.278 61.267h-4.644A2.637 2.637 0 0 1 52 58.632v-5A2.637 2.637 0 0 1 54.634 51h4.644a2.637 2.637 0 0 1 2.634 2.634v5a2.637 2.637 0 0 1-2.634 2.633zm-4.644-9.2a1.574 1.574 0 0 0-1.572 1.572v5a1.574 1.574 0 0 0 1.572 1.561h4.644a1.574 1.574 0 0 0 1.572-1.572v-5a1.574 1.574 0 0 0-1.572-1.572z" class="cls-2" transform="translate(-52 -51)"/>
            </g>
            <g id="Group_2971" transform="translate(20 29.683)">
                <path id="Path_2492" d="M27.278 61.267h-4.644A2.637 2.637 0 0 1 20 58.632v-5A2.637 2.637 0 0 1 22.634 51h4.644a2.637 2.637 0 0 1 2.634 2.634v5a2.637 2.637 0 0 1-2.634 2.633zm-4.644-9.2a1.574 1.574 0 0 0-1.572 1.572v5a1.574 1.574 0 0 0 1.572 1.561h4.644a1.574 1.574 0 0 0 1.572-1.572v-5a1.574 1.574 0 0 0-1.572-1.572z" class="cls-2" transform="translate(-20 -51)"/>
            </g>
        </g>
    </g>
</svg>
