<svg xmlns="http://www.w3.org/2000/svg" viewBox="0 0 65.08 74"><g id="Layer_2" data-name="Layer 2"><g id="Layer_1-2" data-name="Layer 1"><path d="M60.57,74H60.5l-40.09-.66a4.15,4.15,0,0,1-3.55-2.13h0C13.42,65,3.09,43,13.27,18.37A25.7,25.7,0,0,1,11.55,14c-1.34-4.64-.89-8.7,1.29-11.72l.47-.65.79,0c.47,0,11.1.39,14.41,8.4,4.41-.26,19.14.11,22.41,16.53,2.5.59,8.81,2.46,11.66,6.73a14.51,14.51,0,0,1,.58,15.35c-1.62,2.74-5.57,7.06-14.3,7.06h0c1.34,2.14,4.3,5.47,10.42,7.43.22.05,3,.84,5,4.81a4.14,4.14,0,0,1-3.69,6ZM19.49,69.76a1.11,1.11,0,0,0,1,.58l40.1.66a1,1,0,0,0,1-.54,1.12,1.12,0,0,0,0-1.11c-1.38-2.73-3.08-3.27-3.15-3.29-11-3.52-13.36-11.17-13.45-11.5l-.6-2.1,2.18.19c6.59.59,11.58-1.36,14-5.48A11.63,11.63,0,0,0,60.08,35c-2.81-4.2-10.64-5.64-10.72-5.66l-1-.18-.18-1.05C45.29,10.69,28.43,13.06,27.71,13.17l-1.29.2L26,12.12C24.31,6.27,17.26,5,14.84,4.76c-1.54,2.73-1.1,6.06-.4,8.45a20.74,20.74,0,0,0,1.79,4.31l.38.65-.3.7C6.2,42.55,16.18,63.81,19.49,69.76Z"/><path d="M18.09,72.07c-13.61-3.85-13.44-13.83-13-17C1.94,52.38.23,49.46,0,46.37a10.23,10.23,0,0,1,1.89-6.49c-3.67-6.23-.15-12,2.77-14.66C4,17.17,9.89,14,13.24,13.42l.5,3c-.73.13-7.09,1.48-6,9.25l.12.85L7.19,27C6.92,27.24.4,32.6,5,39.11l.71,1L4.82,41A7.54,7.54,0,0,0,3,46.2c.18,2.42,1.73,4.8,4.62,7.07l.78.61-.26,1c-.11.42-2.58,10.57,10.75,14.35Z"/><path d="M49,22.91l-2.45-1.73L58.78,3.82,39.6,14.4l-1.45-2.62L58.9.33a2.59,2.59,0,0,1,3.56,3.45L62.35,4Z"/><path d="M33.7,33.49a3,3,0,0,1-.43,0C30.09,33.2,27.41,30,27,27.27a1.5,1.5,0,0,1,3-.45c.23,1.53,1.92,3.52,3.55,3.66,1.89.18,3-2.38,3.54-3.91a1.5,1.5,0,1,1,2.84.95C38.21,32.59,35.45,33.49,33.7,33.49Z"/></g></g></svg>