<svg xmlns="http://www.w3.org/2000/svg" viewBox="0 0 65.07 74"><defs><style>.cls-1,.cls-2{fill:none;stroke:#000;stroke-miterlimit:10;stroke-width:3px;}.cls-2{stroke-linecap:round;}</style></defs><g id="Layer_2" data-name="Layer 2"><g id="Layer_1-2" data-name="Layer 1"><path class="cls-1" d="M18.17,70.49C15.1,65,4.45,42.82,14.94,18.29A22.22,22.22,0,0,1,13,13.63c-.9-3.09-1.3-7.16,1.06-10.43,0,0,11,.28,13.42,8.49,0,0,19-3,22.14,16.19,0,0,8.5,1.51,11.71,6.3,5.34,8,1.43,21.42-14.91,20,0,0,2.06,7.17,12.4,10.47,0,0,2.35.58,4.1,4.06a2.64,2.64,0,0,1-2.4,3.82l-40.09-.66A2.65,2.65,0,0,1,18.17,70.49Z"/><path class="cls-1" d="M13.49,14.91S4.92,16.34,6.26,25.84c0,0-8,6.35-2.51,14.13,0,0-6.67,6.9,3,14.48,0,0-3.2,11.94,11.79,16.18"/><path class="cls-1" d="M38.87,13.09,59.62,1.64A1.1,1.1,0,0,1,61.13,3.1l-13.37,19"/><path class="cls-2" d="M28.48,27c.59,3.88,7,8.87,10,0"/></g></g></svg>