<svg xmlns="http://www.w3.org/2000/svg" width="32" height="32" viewBox="0 0 32 32">

    <g id="saving" transform="translate(2468 -4769)">
        <path id="Rectangle_17447" fill="#307fe2" d="M0 0H32V32H0z" opacity="0.001" transform="translate(-2468 4769)"/>
        <g id="Group_2977" transform="translate(-2474.965 4762.497)">
            <g id="Group_2973" transform="translate(15.58 11.994)">
                <path id="Path_2493" d="M37.04 34.416h-.021l-11.773-.194a1.216 1.216 0 0 1-1.04-.623 18.292 18.292 0 0 1-1.054-15.52 7.255 7.255 0 0 1-.5-1.27 3.882 3.882 0 0 1 .378-3.444l.136-.189.233.006c.138 0 3.259.113 4.231 2.466 1.3-.078 5.623.032 6.583 4.854a5.984 5.984 0 0 1 3.423 1.976 4.255 4.255 0 0 1 .173 4.508 4.531 4.531 0 0 1-4.2 2.074 5.378 5.378 0 0 0 3.06 2.181 2.542 2.542 0 0 1 1.464 1.414 1.216 1.216 0 0 1-1.085 1.761zm-12.064-1.245a.327.327 0 0 0 .285.169l11.774.194a.305.305 0 0 0 .288-.157.326.326 0 0 0 .016-.325 1.773 1.773 0 0 0-.927-.966c-3.243-1.035-3.921-3.282-3.948-3.377l-.177-.617.639.057c1.937.172 3.4-.4 4.119-1.612a3.414 3.414 0 0 0-.148-3.569c-.824-1.234-3.125-1.658-3.148-1.663l-.307-.055-.051-.307c-.838-5.118-5.79-4.421-6-4.389l-.38.058-.11-.368c-.508-1.717-2.581-2.085-3.291-2.161a3.284 3.284 0 0 0-.117 2.482 6.164 6.164 0 0 0 .526 1.266l.113.192-.087.205a17.374 17.374 0 0 0 .931 14.944z" class="cls-2" transform="translate(-21.868 -13.176)"/>
            </g>
            <g id="Group_2974" transform="translate(12.965 15.445)">
                <path id="Path_2494" d="M18.277 42.152c-4-1.133-3.945-4.062-3.818-5a3.731 3.731 0 0 1-1.487-2.552 3.013 3.013 0 0 1 .554-1.9 3.42 3.42 0 0 1 .814-4.305 3.056 3.056 0 0 1 2.516-3.464L17 25.8a2.2 2.2 0 0 0-1.762 2.716l.035.249-.2.157c-.081.065-1.993 1.64-.652 3.552l.209.3-.253.262a2.193 2.193 0 0 0-.531 1.523 3.065 3.065 0 0 0 1.358 2.077l.228.18-.075.28c-.032.125-.757 3.106 3.155 4.215z" class="cls-2" transform="translate(-12.965 -24.928)"/>
            </g>
            <g id="Group_2975" transform="translate(24.169 11.503)">
                <path id="Path_2495" d="M54.3 18.23l-.72-.507 3.6-5.1-5.64 3.11-.426-.771 6.094-3.362a.762.762 0 0 1 1.046 1.014l-.032.053z" class="cls-2" transform="translate(-51.114 -11.503)"/>
            </g>
            <g id="Group_2976" transform="translate(20.89 19.004)">
                <path id="Path_2496" d="M41.923 39.379c-.046 0-.088 0-.129-.006a2.269 2.269 0 0 1-1.84-1.823.441.441 0 0 1 .871-.132 1.4 1.4 0 0 0 1.046 1.082c.554.048.887-.7 1.038-1.151a.441.441 0 0 1 .835.28c-.498 1.485-1.308 1.75-1.821 1.75z" class="cls-2" transform="translate(-39.95 -37.044)"/>
            </g>
        </g>
    </g>
</svg>
