<svg xmlns="http://www.w3.org/2000/svg" width="43.146" height="20.08" viewBox="0 0 43.146 20.08">
    <defs>
        <style>
            .cls-1{fill:#2a7de1}
        </style>
    </defs>
    <g id="Group_6299" transform="translate(-729.695 -432.818)">
        <g id="Group_103" transform="translate(746.953 432.82)">
            <path id="Path_201" d="M920.746 452.917a6.823 6.823 0 0 1-6.815-6.815v-11.349a1.914 1.914 0 1 1 3.828 0V446.1a2.99 2.99 0 0 0 2.987 2.987 1.914 1.914 0 1 1 0 3.828z" class="cls-1" transform="translate(-913.931 -432.839)"/>
        </g>
        <path id="Path_202" d="M1042.555 497.744a2.967 2.967 0 0 1-1.191-2.387v-.345c0-.086.007-.171.007-.257v-6.726a1.914 1.914 0 1 0-3.828 0l-.006 6.9a2.606 2.606 0 0 1-2.6 2.428 2.99 2.99 0 0 1-2.987-2.987v-6.358a1.914 1.914 0 0 0-3.828 0v6.358a6.823 6.823 0 0 0 6.815 6.815 6.4 6.4 0 0 0 4.134-1.51 6.9 6.9 0 0 0 1.176 1.126 1.914 1.914 0 0 0 2.3-3.056z" class="cls-1" transform="translate(-270.476 -48.288)"/>
        <g id="Group_105" transform="translate(729.695 432.818)">
            <path id="Path_203" d="M737.239 437.81a7.5 7.5 0 0 0-3.716.983v-4.061a1.914 1.914 0 1 0-3.828 0v10.622a7.544 7.544 0 1 0 7.544-7.544zm3.736 7.554a3.72 3.72 0 0 1-4.374 3.665 2.436 2.436 0 0 1-2.8.357l.895-.723a4.847 4.847 0 0 1-1.329-.148 2.041 2.041 0 0 1-1.307-1.693 3.476 3.476 0 0 0 1.764.007 3.713 3.713 0 0 1 3.922-5.155h.007c.078.011.155.023.231.039l.1.023.092.022a3.73 3.73 0 0 1 2.277 1.709l1.286.211-.771 1.5q.007.091.007.185z" class="cls-1" transform="translate(-729.695 -432.818)"/>
            <g id="Group_104" transform="translate(8.5 10.634)">
                <circle id="Ellipse_30" cx=".529" cy=".529" r=".529" class="cls-1"/>
            </g>
        </g>
    </g>
</svg>
