<svg xmlns="http://www.w3.org/2000/svg" width="46.492" height="28.536" viewBox="0 0 46.492 28.536">
    <defs>
        <style>
            .cls-1,.cls-2{fill:#720b98}.cls-1{fill-rule:evenodd}
        </style>
    </defs>
    <g id="Group_7358" transform="translate(-156.293 -166.954)">
        <path id="Path_6229" d="M327.082 165.51a1.854 1.854 0 1 1-1.852 1.852 1.854 1.854 0 0 1 1.852-1.852" class="cls-1" transform="translate(-159.678 1.444)"/>
        <path id="Path_6230" d="M477.522 232.005v9.177a3.336 3.336 0 1 0 6.67.056v-9.232a2.317 2.317 0 0 1 2.315-2.315h2.317V241a7.967 7.967 0 1 1-15.934 0v-11.31h2.324a2.317 2.317 0 0 1 2.308 2.315" class="cls-2" transform="translate(-286.039 -53.478)"/>
        <path id="Path_6231" d="M417.455 183.49h2.317v23.622a2.315 2.315 0 0 1-2.317 2.315h-2.315v-23.62a2.315 2.315 0 0 1 2.315-2.317" class="cls-1" transform="translate(-237.071 -13.942)"/>
        <path id="Path_6232" d="M265.667 183.49v8.8a7.975 7.975 0 0 1 5.373-2.123c4.707 0 8.522 4.251 8.522 9.494v.232a9.263 9.263 0 1 1-18.523.278v-14.364a2.318 2.318 0 0 1 2.317-2.317zm4.539 10.931a5.353 5.353 0 1 0 4.819 5.326 5.091 5.091 0 0 0-4.819-5.326" class="cls-2" transform="translate(-104.747 -13.942)"/>
    </g>
</svg>
