<svg id="Layer_1" data-name="Layer 1" xmlns="http://www.w3.org/2000/svg" viewBox="0 0 332.55 261.29"><path d="M665,774.36H653.35V513.07H665Zm11.69-.19H670.8V513.07h5.93Zm17.45,0h-5.75V513.07h5.75Zm29.13,0h-5.75V513.07h5.75Zm29.14,0H740.94V513.07h11.51Zm23.38,0h-5.75V513.07h5.75Zm11.69,0h-5.75V513.07h5.75Zm11.69,0h-5.75V513.07h5.75Zm29.14,0H816.66V513.07h11.69Zm29.13,0H845.79V513.07h11.69Zm23.39,0H869.18V513.07h11.69Zm23.38,0H892.56V513.07h11.69Zm17.44,0H910V513.07h11.69Zm35.08,0H939.32V513.07h17.45Zm11.69,0h-5.94V513.07h5.94Zm17.44.19H974.21V513.07H985.9Z" transform="translate(-653.35 -513.07)"/></svg>