<svg xmlns="http://www.w3.org/2000/svg" viewBox="0 0 332.55 261.29"><g id="Layer_2" data-name="Layer 2"><g id="Layer_1-2" data-name="Layer 1"><path d="M11.69,261.29H0V0H11.69Zm11.69-.18H17.44V0h5.94Zm17.45,0H35.07V0h5.76Zm29.13,0H64.21V0H70Zm29.14,0H87.59V0H99.1Zm23.38,0h-5.75V0h5.75Zm11.69,0h-5.75V0h5.75Zm11.69,0h-5.75V0h5.75Zm29.14,0H163.31V0H175Zm29.13,0H192.44V0h11.69Zm23.39,0h-11.7V0h11.7Zm23.38,0H239.21V0H250.9Zm17.44,0H256.65V0h11.69Zm35.08,0H286V0h17.45Zm11.69,0h-5.94V0h5.94Zm17.44.18H320.86V0h11.69Z"/></g></g></svg>