<svg xmlns="http://www.w3.org/2000/svg" width="78.352" height="48.092" viewBox="0 0 78.352 48.092">
    <defs>
        <style>
            .cls-1,.cls-2{fill:#fff}.cls-1{fill-rule:evenodd}
        </style>
    </defs>
    <g id="Group_7356" transform="translate(-156.293 -166.954)">
        <path id="Path_6229" d="M328.351 165.51a3.124 3.124 0 1 1-3.121 3.121 3.124 3.124 0 0 1 3.121-3.121" class="cls-1" transform="translate(-153.333 1.444)"/>
        <path id="Path_6230" d="M480.7 233.592v15.466a5.622 5.622 0 1 0 11.241.095v-15.559a3.9 3.9 0 0 1 3.9-3.9h3.9v19.056a13.426 13.426 0 1 1-26.852 0v-19.06h3.916a3.9 3.9 0 0 1 3.89 3.9" class="cls-2" transform="translate(-265.098 -47.134)"/>
        <path id="Path_6231" d="M419.042 183.49h3.9v39.81a3.9 3.9 0 0 1-3.9 3.9h-3.9v-39.806a3.9 3.9 0 0 1 3.9-3.9" class="cls-1" transform="translate(-222.148 -12.165)"/>
        <path id="Path_6232" d="M268.839 183.49v14.829a13.441 13.441 0 0 1 9.055-3.578c7.932 0 14.362 7.164 14.362 16v.391a15.611 15.611 0 1 1-31.216.469v-24.207a3.907 3.907 0 0 1 3.9-3.9zm7.65 18.422c-4.485 0-8.119 4.018-8.119 8.975s3.634 8.978 8.119 8.978 8.122-4.018 8.122-8.978-3.646-8.975-8.117-8.975" class="cls-2" transform="translate(-104.747 -12.165)"/>
    </g>
</svg>
