<svg xmlns="http://www.w3.org/2000/svg" width="50" height="50" viewBox="0 0 50 50">
    <defs>
        <filter id="Ellipse_8" width="50" height="50" x="0" y="0" filterUnits="userSpaceOnUse">
            <feOffset dy="3"/>
            <feGaussianBlur result="blur" stdDeviation="3"/>
            <feFlood flood-opacity=".161"/>
            <feComposite in2="blur" operator="in"/>
            <feComposite in="SourceGraphic"/>
        </filter>
        <style>
            .cls-2{fill:#1cddb5}.cls-3{fill:#fff}
        </style>
    </defs>
    <g id="Group_3081" transform="translate(-298 -249)">
        <g id="Group_132" filter="url(#Ellipse_8)" transform="translate(298 249)">
            <circle id="Ellipse_8-2" cx="16" cy="16" r="16" fill="rgba(42,245,152,0.1)" transform="translate(9 6)"/>
        </g>
        <g id="Group_3070" transform="translate(295.646 250.307)">
            <g id="Group_3064" transform="translate(24.754 10.779)">
                <g id="Group_3059" transform="translate(.779)">
                    <path id="Path_2541" d="M57.651 14.688c0 .374-.566.805-1.481 1.125a13.392 13.392 0 0 1-7.689 0c-.914-.32-1.481-.751-1.481-1.125 0-.7 2.026-1.688 5.325-1.688s5.326.985 5.326 1.688z" class="cls-2" transform="translate(-47 -13)"/>
                </g>
                <g id="Group_3060" transform="translate(.779 5.931)">
                    <path id="Path_2542" d="M64.89 49.744a.116.116 0 0 0 .029 0V49.5a.966.966 0 0 1-.029.244z" class="cls-3" transform="translate(-60.243 -45.949)"/>
                    <path id="Path_2543" d="M64.89 49.744a.116.116 0 0 0 .029 0V49.5a.966.966 0 0 1-.029.244z" transform="translate(-60.243 -45.949)"/>
                    <path id="Path_2544" d="M57.651 35.83v1.733c0 .374-.566.805-1.481 1.125a12 12 0 0 1-3.845.564c-.223 0-.444-.005-.66-.016-.153-1.26-2.3-2.034-4.665-2.255V35.83l.023.016q.078.055.164.109a4.369 4.369 0 0 0 .584.307c.068.031.14.06.216.088s.153.06.234.088a14.219 14.219 0 0 0 8.209 0c.081-.029.158-.057.234-.088s.148-.057.216-.088a4.369 4.369 0 0 0 .584-.307q.086-.055.164-.109z" class="cls-2" transform="translate(-47 -35.83)"/>
                </g>
                <g id="Group_3061" transform="translate(3.759 11.905)">
                    <path id="Path_2545" d="M58.47 61.29c.057.01.114.021.174.029l.192.026q-.187-.024-.366-.055zm0 0c.057.01.114.021.174.029l.192.026q-.187-.024-.366-.055zm0 0c.057.01.114.021.174.029l.192.026q-.187-.024-.366-.055zm0 0c.057.01.114.021.174.029l.192.026q-.187-.024-.366-.055zm0 0c.057.01.114.021.174.029l.192.026q-.187-.024-.366-.055z" transform="translate(-58.47 -60.651)"/>
                    <path id="Path_2546" d="M70.975 58.83v1.733c0 .7-2.026 1.688-5.325 1.688-.223 0-.439-.005-.649-.013v-2.21q.136.008.273.008c.125.005.249.008.377.008a12.88 12.88 0 0 0 4.1-.605c.081-.029.158-.057.234-.088s.148-.057.216-.088a4.368 4.368 0 0 0 .584-.307q.086-.055.164-.109z" class="cls-2" transform="translate(-63.304 -58.83)"/>
                </g>
                <g id="Group_3062" transform="translate(.779 2.943)">
                    <path id="Path_2547" d="M57.651 24.33v1.733c0 .374-.566.805-1.481 1.125a13.392 13.392 0 0 1-7.689 0c-.914-.32-1.481-.751-1.481-1.125V24.33l.023.016q.078.055.164.109a4.712 4.712 0 0 0 .584.307c.068.031.14.06.216.088s.153.06.234.088a14.219 14.219 0 0 0 8.209 0c.081-.029.158-.057.234-.088s.148-.057.216-.088a4.712 4.712 0 0 0 .584-.307q.086-.055.164-.109z" class="cls-2" transform="translate(-47 -24.33)"/>
                </g>
                <g id="Group_3063" transform="translate(0 7.663)">
                    <path id="Path_2548" d="M44 42.5v.143h.008A1.314 1.314 0 0 1 44 42.5zm3.759 4.881c.057.01.114.021.174.029l.192.026q-.187-.024-.366-.055zm0 0c.057.01.114.021.174.029l.192.026q-.187-.024-.366-.055zm0 0c.057.01.114.021.174.029l.192.026q-.187-.024-.366-.055zm0 0c.057.01.114.021.174.029l.192.026q-.187-.024-.366-.055zm1.668-2.818a.116.116 0 0 0 .029 0v-.247a.966.966 0 0 1-.029.247zm-1.668 2.818c.057.01.114.021.174.029l.192.026q-.187-.024-.366-.055zm0 0c.057.01.114.021.174.029l.192.026q-.187-.024-.366-.055zm0 0c.057.01.114.021.174.029l.192.026q-.187-.024-.366-.055zm0 0c.057.01.114.021.174.029l.192.026q-.187-.024-.366-.055zm0 0c.057.01.114.021.174.029l.192.026q-.187-.024-.366-.055zm0 0c.057.01.114.021.174.029l.192.026q-.187-.024-.366-.055zm0 0c.057.01.114.021.174.029l.192.026q-.187-.024-.366-.055zm0 0c.057.01.114.021.174.029l.192.026q-.187-.024-.366-.055zm0 0c.057.01.114.021.174.029l.192.026q-.187-.024-.366-.055z" transform="translate(-44 -42.5)"/>
                    <path id="Path_2549" d="M70.975 47.33v1.733c0 .374-.566.805-1.481 1.125a12 12 0 0 1-3.845.564c-.14 0-.278 0-.416-.008-.073 0-.145 0-.216-.008H65v-2.208c.216.01.431.016.649.016a12.88 12.88 0 0 0 4.1-.605c.081-.029.158-.057.234-.088s.148-.057.216-.088a4.713 4.713 0 0 0 .584-.307q.086-.055.164-.109z" class="cls-2" transform="translate(-59.545 -46.075)"/>
                </g>
            </g>
            <g id="Group_3069" transform="translate(18 10)">
                <g id="Group_3065">
                    <path id="Path_2550" d="M44 42.5v.143h.008A1.314 1.314 0 0 1 44 42.5z" class="cls-3" transform="translate(-37.246 -34.057)"/>
                    <path id="Path_2551" d="M44 42.5v.143h.008A1.314 1.314 0 0 1 44 42.5z" transform="translate(-37.246 -34.057)"/>
                    <path id="Path_2552" d="M30.859 10c-2.959 0-6.1.865-6.1 2.468v5.341c-.216-.01-.434-.016-.649-.016-2.959 0-6.1.865-6.1 2.468v8.962c0 .748.712 1.408 2 1.863a12.881 12.881 0 0 0 4.1.605 12.88 12.88 0 0 0 4.1-.605c1.288-.455 2-1.114 2-1.863v-2.354c.216.01.434.016.649.016 2.959 0 6.1-.865 6.1-2.468V12.468c.004-1.603-3.142-2.468-6.1-2.468zM29.43 29.223c0 .374-.566.805-1.481 1.125a12 12 0 0 1-3.845.564 12 12 0 0 1-3.845-.564c-.914-.32-1.481-.751-1.481-1.125V27.49l.023.016c.052.039.107.073.164.109A5.263 5.263 0 0 0 20 28.1a12.881 12.881 0 0 0 4.1.605 12.881 12.881 0 0 0 4.1-.605 5.263 5.263 0 0 0 1.034-.483c.057-.036.112-.07.164-.109l.023-.016zm0-2.987a.323.323 0 0 1-.008.07.274.274 0 0 1-.016.062.265.265 0 0 1-.023.057.5.5 0 0 1-.049.088.892.892 0 0 1-.062.086 1.453 1.453 0 0 1-.192.182c-.018.016-.036.029-.055.042s-.057.042-.088.062a4.217 4.217 0 0 1-.987.475 12 12 0 0 1-3.845.564 12 12 0 0 1-3.845-.564c-.914-.32-1.481-.751-1.481-1.125V24.5l.023.016q.078.055.164.109a4.369 4.369 0 0 0 .584.307c.068.031.14.06.216.088s.153.06.234.088a12.881 12.881 0 0 0 4.1.605c.32 0 .634-.01.946-.029.039 0 .078 0 .117-.008.109-.005.218-.016.327-.026h.016c.21-.018.416-.042.618-.07.239-.029.47-.068.7-.109.252-.049.494-.1.725-.164.109-.029.216-.057.32-.091s.231-.07.34-.109c.081-.029.158-.057.234-.088s.148-.057.216-.088a4.369 4.369 0 0 0 .584-.307q.086-.055.164-.109l.023-.016zm0-2.987a.323.323 0 0 1-.008.07.274.274 0 0 1-.016.062.375.375 0 0 1-.023.057.43.43 0 0 1-.044.083.054.054 0 0 0-.01.016.588.588 0 0 1-.065.081.689.689 0 0 1-.086.091 1.229 1.229 0 0 1-.1.088 3.846 3.846 0 0 1-1.125.577 9.023 9.023 0 0 1-1.53.379c-.07.013-.143.023-.216.034s-.148.023-.223.031-.151.021-.229.029c-.151.018-.3.034-.457.044s-.286.021-.431.026c-.075.005-.151.008-.229.01a.112.112 0 0 1-.042 0h-.008c-.052.005-.1.005-.156.005-.109.005-.216.005-.325.005a12 12 0 0 1-3.845-.564c-.914-.32-1.481-.751-1.481-1.125v-1.732l.023.016q.078.055.164.109c.044.029.088.055.135.081a4.4 4.4 0 0 0 .47.234c.044.021.091.039.138.057.094.039.19.075.291.112a12.881 12.881 0 0 0 4.1.605c.127 0 .252 0 .377-.008q.136 0 .273-.008c.13 0 .26-.01.39-.018h.016c.083-.005.164-.013.247-.021.034 0 .068-.005.1-.008.21-.018.416-.042.618-.07.1-.013.2-.026.3-.042.135-.021.265-.044.395-.068.135-.026.27-.055.4-.086h.01c.107-.023.21-.049.312-.075.127-.034.252-.068.374-.107.1-.029.192-.06.286-.094s.2-.073.291-.112c.047-.018.094-.036.138-.057a4.4 4.4 0 0 0 .47-.234c.047-.026.091-.052.135-.081s.112-.073.164-.109l.023-.016zm-.008-2.917a.274.274 0 0 1-.016.062.265.265 0 0 1-.023.057.43.43 0 0 1-.044.083.054.054 0 0 0-.01.016 1.113 1.113 0 0 1-.151.171.883.883 0 0 1-.1.088 1.76 1.76 0 0 1-.216.153 1.376 1.376 0 0 1-.122.073 4.8 4.8 0 0 1-.787.351c-.065.023-.13.044-.2.065-.049.018-.1.031-.148.047s-.1.029-.148.042c-.073.021-.148.042-.226.06-.1.026-.205.049-.309.073s-.184.039-.281.055c-.158.031-.325.06-.491.083-.13.018-.262.036-.4.049l-.073.008c-.127.016-.257.026-.387.036a.148.148 0 0 1-.034 0 .845.845 0 0 1-.114.008c-.091.008-.184.013-.278.016-.036 0-.073.005-.112.005a.012.012 0 0 1-.013 0h-.005c-.07.005-.143.008-.216.008-.138.005-.275.008-.416.008a12 12 0 0 1-3.845-.564c-.914-.32-1.481-.751-1.481-1.125 0-.7 2.026-1.689 5.325-1.689.223 0 .439.005.649.013v-.143a1.316 1.316 0 0 0 .008.143q.195.008.382.023a.028.028 0 0 1 .021 0c.143.008.283.021.421.034 2.146.21 3.512.857 3.793 1.413a.471.471 0 0 1 .052.205.323.323 0 0 1-.005.072zm.759.174a.966.966 0 0 0 .029-.244v.247a.117.117 0 0 1-.029-.004zm6 3.912c0 .7-2.026 1.689-5.325 1.689-.223 0-.439-.005-.649-.013v-2.212q.136.008.273.008c.125.005.249.008.377.008a12.881 12.881 0 0 0 4.1-.605c.081-.029.158-.057.234-.088s.148-.057.216-.088a4.37 4.37 0 0 0 .593-.308q.086-.055.164-.109l.023-.016zm0-2.987c0 .374-.566.805-1.481 1.125a12 12 0 0 1-3.845.564c-.14 0-.278 0-.416-.008-.073 0-.145 0-.216-.008h-.018v-2.209c.216.01.431.016.649.016a12.881 12.881 0 0 0 4.1-.605c.081-.029.158-.057.234-.088s.148-.057.216-.088a4.712 4.712 0 0 0 .596-.308q.086-.055.164-.109l.023-.016zm0-2.987c0 .374-.566.805-1.481 1.125a12 12 0 0 1-3.845.564c-.223 0-.444-.005-.66-.016-.153-1.26-2.3-2.034-4.665-2.255V16.71l.023.016q.078.055.164.109a4.37 4.37 0 0 0 .584.307c.068.031.14.06.216.088s.153.06.234.088a12.88 12.88 0 0 0 4.1.605 12.881 12.881 0 0 0 4.1-.605c.081-.029.158-.057.234-.088s.148-.057.216-.088a4.37 4.37 0 0 0 .599-.307q.086-.055.164-.109l.023-.016zm0-2.987c0 .374-.566.805-1.481 1.125a12 12 0 0 1-3.845.564 12 12 0 0 1-3.845-.564c-.914-.32-1.481-.751-1.481-1.125v-1.735l.023.016q.078.055.164.109a4.713 4.713 0 0 0 .584.307c.068.031.14.06.216.088s.153.06.234.088a12.881 12.881 0 0 0 4.1.605 12.881 12.881 0 0 0 4.1-.605c.081-.029.158-.057.234-.088s.148-.057.216-.088a4.713 4.713 0 0 0 .6-.307q.086-.055.164-.109l.023-.016zM34.7 13.593a12 12 0 0 1-3.845.564 12 12 0 0 1-3.845-.564c-.914-.32-1.481-.751-1.481-1.125 0-.7 2.026-1.689 5.325-1.689s5.325.985 5.325 1.689c.005.374-.561.805-1.479 1.125z" class="cls-3" transform="translate(-18 -10)"/>
                    <path id="Path_2553" d="M44.412 43.073v.746a1.385 1.385 0 0 1-.382-.769q.195.008.382.023z" class="cls-2" transform="translate(-37.268 -34.465)"/>
                    <path id="Path_2554" d="M49.845 44.792a.321.321 0 0 1-.008.07.274.274 0 0 1-.016.062.265.265 0 0 1-.023.057c-.239-.023-.47-.052-.7-.086-.112-.016-.223-.034-.333-.055s-.216-.039-.32-.062-.208-.044-.309-.068c-.075-.018-.151-.036-.223-.057s-.145-.039-.216-.06-.138-.039-.205-.062-.132-.042-.2-.065-.132-.047-.195-.073-.127-.049-.187-.075-.119-.052-.177-.081-.132-.062-.192-.1c-.042-.021-.081-.044-.12-.068a2.392 2.392 0 0 1-.262-.169.72.72 0 0 1-.075-.057.63.63 0 0 1-.081-.065 1.11 1.11 0 0 1-.114-.107.679.679 0 0 1-.06-.062.168.168 0 0 1-.021-.023l-.047-.055-.023-.034a1.479 1.479 0 0 1-.1-.171.62.62 0 0 1-.039-.1c-.01-.031-.018-.065-.026-.1.143.008.283.021.421.034a2.546 2.546 0 0 0 1.429.925 10.192 10.192 0 0 0 2.364.488.471.471 0 0 1 .058.219z" class="cls-2" transform="translate(-38.416 -34.531)"/>
                    <path id="Path_2555" d="M49.739 44.976c-.013.029-.029.055-.044.083a.054.054 0 0 0-.01.016 1.114 1.114 0 0 1-.151.171.884.884 0 0 1-.1.088 10.946 10.946 0 0 1-2.32-.5c-.081-.029-.158-.057-.234-.088s-.148-.057-.216-.088a4.713 4.713 0 0 1-.584-.307q-.086-.055-.164-.109l-.023-.016a2.324 2.324 0 0 1-.39-.343v-.746a.029.029 0 0 1 .021 0 .44.44 0 0 0 .026.1.619.619 0 0 0 .039.1.9.9 0 0 0 .1.171l.023.034.047.055a.168.168 0 0 0 .021.023.677.677 0 0 0 .06.062 1.109 1.109 0 0 0 .114.107.63.63 0 0 0 .081.065.721.721 0 0 0 .075.057 2.391 2.391 0 0 0 .262.169c.039.023.078.047.119.068.06.034.125.065.192.1s.117.055.177.081.122.049.187.075.127.049.195.073.13.044.2.065.135.044.205.062.143.042.216.06.148.039.223.057c.1.023.205.047.309.068s.21.044.32.062.221.039.332.055c.222.018.453.047.692.07z" class="cls-2" transform="translate(-38.356 -34.526)"/>
                    <path id="Path_2556" d="M44.112 54.5c-.036 0-.073.005-.112.005V54a1.163 1.163 0 0 0 .112.5z" class="cls-2" transform="translate(-37.246 -42.57)"/>
                    <path id="Path_2557" d="M45.648 54.473a.148.148 0 0 1-.034 0 .845.845 0 0 1-.114.008V54a.567.567 0 0 0 .01.114.047.047 0 0 0 .005.026.421.421 0 0 0 .023.1.528.528 0 0 0 .036.1 1.115 1.115 0 0 0 .074.133z" class="cls-2" transform="translate(-38.356 -42.57)"/>
                    <path id="Path_2558" d="M45.89 46.353v1.733h-.39V46.01a2.324 2.324 0 0 0 .39.343z" class="cls-2" transform="translate(-38.356 -36.656)"/>
                    <path id="Path_2559" d="M46.108 54.429l-.073.008c-.127.016-.257.026-.387.036a1.115 1.115 0 0 1-.073-.132c-.013-.034-.026-.068-.036-.1a.421.421 0 0 1-.023-.1.047.047 0 0 1-.005-.026A.567.567 0 0 1 45.5 54h.39a.406.406 0 0 0 .026.143.826.826 0 0 0 .192.286z" class="cls-2" transform="translate(-38.356 -42.57)"/>
                    <path id="Path_2560" d="M44.39 54v.483c-.091.008-.184.013-.278.016A1.163 1.163 0 0 1 44 54z" class="cls-2" transform="translate(-37.246 -42.57)"/>
                    <path id="Path_2561" d="M44.39 43.819v2.076H44V43.05h.008a1.385 1.385 0 0 0 .382.769z" class="cls-2" transform="translate(-37.246 -34.465)"/>
                    <path id="Path_2562" d="M50.993 44.683a10.192 10.192 0 0 1-2.364-.488 2.546 2.546 0 0 1-1.429-.925c2.146.21 3.512.857 3.793 1.413z" class="cls-2" transform="translate(-39.615 -34.627)"/>
                    <path id="Path_2563" d="M50.541 48.442a1.761 1.761 0 0 1-.216.153 1.378 1.378 0 0 1-.122.073 4.8 4.8 0 0 1-.787.351c-.065.023-.13.044-.2.065-.049.018-.1.031-.148.047s-.1.029-.148.042c-.073.021-.148.042-.226.06-.1.026-.205.049-.309.073s-.184.039-.281.055c-.158.031-.325.06-.491.083-.13.018-.262.036-.4.049a.826.826 0 0 1-.192-.286.406.406 0 0 1-.021-.144V47.33l.023.016q.078.055.164.109a4.712 4.712 0 0 0 .584.307c.068.031.14.06.216.088s.153.06.234.088a10.946 10.946 0 0 0 2.32.504z" class="cls-2" transform="translate(-39.467 -37.633)"/>
                    <path id="Path_2564" d="M26.975 43.013v3.348a.012.012 0 0 1-.013 0h-.005c-.07.005-.143.008-.216.008-.138.005-.275.008-.416.008a12 12 0 0 1-3.845-.564c-.914-.32-1.481-.751-1.481-1.125 0-.7 2.026-1.688 5.325-1.688.225 0 .44.005.651.013z" class="cls-2" transform="translate(-20.221 -34.428)"/>
                </g>
                <g id="Group_3066" transform="translate(.779 12.685)">
                    <path id="Path_2565" d="M52.592 70.136v.195a.323.323 0 0 1-.008.07.275.275 0 0 1-.016.062.265.265 0 0 1-.023.057 9.068 9.068 0 0 1-3.255-.842c.239-.029.47-.068.7-.109a9.843 9.843 0 0 0 2.602.567z" class="cls-2" transform="translate(-41.941 -66.78)"/>
                    <path id="Path_2566" d="M50.783 70.832a.5.5 0 0 1-.049.088.891.891 0 0 1-.062.086 1.451 1.451 0 0 1-.192.182 8.022 8.022 0 0 1-3.57-1.128c.21-.018.416-.042.618-.07a9.068 9.068 0 0 0 3.255.842z" class="cls-2" transform="translate(-40.179 -67.091)"/>
                    <path id="Path_2567" d="M54.575 65.83v1.538a9.842 9.842 0 0 1-2.605-.568c.252-.049.494-.1.725-.164.109-.029.216-.057.32-.091s.231-.07.34-.109c.081-.029.158-.057.234-.088s.148-.057.216-.088a4.368 4.368 0 0 0 .584-.307q.086-.055.164-.109z" class="cls-2" transform="translate(-43.925 -64.012)"/>
                    <path id="Path_2568" d="M50.541 59.942a3.846 3.846 0 0 1-1.125.577 9.024 9.024 0 0 1-1.53.379c-.07.013-.143.023-.216.034s-.148.023-.223.031-.151.021-.229.029a.649.649 0 0 1-.218-.429V58.83l.023.016q.078.055.164.109a4.367 4.367 0 0 0 .584.307c.068.031.14.06.216.088s.153.06.234.088l.213.07c.062.021.125.039.187.057.184.055.377.1.574.148.135.031.27.06.41.088.1.018.2.036.307.052s.205.034.309.047.213.029.32.042z" class="cls-2" transform="translate(-40.246 -58.83)"/>
                    <path id="Path_2569" d="M31.3 68.108c-.018.016-.036.029-.055.042s-.057.042-.088.062a4.218 4.218 0 0 1-.987.475 12 12 0 0 1-3.845.564 12 12 0 0 1-3.845-.564c-.914-.32-1.481-.751-1.481-1.125V65.83l.023.016q.078.055.164.109a4.368 4.368 0 0 0 .584.307c.068.031.14.06.216.088s.153.06.234.088a12.881 12.881 0 0 0 4.1.605c.32 0 .634-.01.946-.029.039 0 .078 0 .117-.008.109-.005.218-.016.327-.026h.016a8.022 8.022 0 0 0 3.574 1.128z" class="cls-2" transform="translate(-21 -64.012)"/>
                </g>
                <g id="Group_3067" transform="translate(.779 10.261)">
                    <path id="Path_2570" d="M58.47 61.29c.057.01.114.021.174.029l.192.026q-.187-.024-.366-.055zm0 0c.057.01.114.021.174.029l.192.026q-.187-.024-.366-.055zm0 0c.057.01.114.021.174.029l.192.026q-.187-.024-.366-.055zm0 0c.057.01.114.021.174.029l.192.026q-.187-.024-.366-.055zm0 0c.057.01.114.021.174.029l.192.026q-.187-.024-.366-.055zm0 0c.057.01.114.021.174.029l.192.026q-.187-.024-.366-.055zm0 0c.057.01.114.021.174.029l.192.026q-.187-.024-.366-.055z" class="cls-3" transform="translate(-48.736 -58.227)"/>
                    <path id="Path_2571" d="M64.89 49.744a.116.116 0 0 0 .029 0V49.5a.966.966 0 0 1-.029.244z" transform="translate(-53.489 -49.5)"/>
                    <path id="Path_2572" d="M50.783 59.332c-.013.029-.029.055-.044.083a.054.054 0 0 0-.01.016.588.588 0 0 1-.065.081c-.026.031-.055.06-.086.091a1.228 1.228 0 0 1-.1.088c-.107-.013-.213-.026-.32-.042s-.208-.029-.309-.047l-.307-.052c-.14-.029-.275-.057-.41-.088-.2-.044-.39-.094-.574-.148-.062-.018-.125-.036-.187-.057l-.213-.07c-.081-.029-.158-.057-.234-.088s-.148-.057-.216-.088a4.37 4.37 0 0 1-.584-.307q-.086-.055-.164-.109l-.023-.016a.143.143 0 0 1-.023-.018c.21-.018.416-.042.618-.07.1.052.2.1.309.148l.143.062c.1.042.2.081.3.117.065.023.13.044.2.065s.135.044.205.062.143.042.216.06.174.044.265.065c.036.01.073.018.112.026.114.026.229.049.348.073.094.018.19.034.286.049.057.01.114.021.174.029l.192.026c.081.013.166.023.249.031s.169.02.252.028z" class="cls-2" transform="translate(-40.179 -56.155)"/>
                    <path id="Path_2573" d="M52.592 58.631v.2a.323.323 0 0 1-.008.07.275.275 0 0 1-.016.062.376.376 0 0 1-.023.057c-.086-.008-.171-.018-.255-.029s-.169-.018-.249-.031q-.187-.023-.366-.055c-.1-.016-.192-.031-.286-.049-.119-.023-.234-.047-.348-.073-.039-.008-.075-.016-.112-.026-.091-.021-.179-.042-.265-.065s-.145-.039-.216-.06-.138-.039-.205-.062-.132-.042-.2-.065c-.1-.036-.208-.075-.3-.117l-.143-.062c-.109-.047-.213-.1-.309-.148.1-.013.2-.026.3-.042.135-.021.265-.044.395-.068.06.023.122.044.187.068s.13.044.2.065.132.044.2.062c.208.062.429.117.657.164.06.013.117.026.179.036.27.052.553.1.844.13.115.017.227.03.339.038z" class="cls-2" transform="translate(-41.941 -55.844)"/>
                    <path id="Path_2574" d="M44.54 61.065c-.143.013-.286.021-.431.026a1.182 1.182 0 0 1-.109-.5v-1.7c.13 0 .26-.01.39-.018v1.722a.855.855 0 0 0 .15.47z" class="cls-2" transform="translate(-38.025 -56.436)"/>
                    <path id="Path_2575" d="M46.108 60.939c-.151.018-.3.034-.457.044a.855.855 0 0 1-.151-.473v-1.721h.016c.083-.005.164-.013.247-.021.034 0 .068-.005.1-.008a.142.142 0 0 0 .023.018v1.733a.649.649 0 0 0 .222.428z" class="cls-2" transform="translate(-39.136 -56.355)"/>
                    <path id="Path_2576" d="M54.583 54.33v1.533c-.114-.01-.226-.023-.335-.036-.291-.034-.574-.078-.844-.13-.062-.01-.119-.023-.179-.036-.229-.047-.449-.1-.657-.164q-.105-.027-.2-.062c-.068-.021-.132-.042-.2-.065s-.127-.044-.187-.068c.135-.026.27-.055.4-.086h.01c.107-.023.21-.049.312-.075.127-.034.252-.068.374-.107.1-.029.192-.06.286-.094s.2-.073.291-.112c.047-.018.094-.036.138-.057a4.4 4.4 0 0 0 .47-.234c.047-.026.091-.052.135-.081s.112-.073.164-.109z" class="cls-2" transform="translate(-43.932 -53.075)"/>
                    <path id="Path_2577" d="M27.084 57.73c-.075.005-.151.008-.229.01a.112.112 0 0 1-.042 0h-.008c-.052.005-.1.005-.156.005-.109.005-.216.005-.325.005a12 12 0 0 1-3.845-.564c-.914-.32-1.481-.751-1.481-1.125V54.33l.023.016q.078.055.164.109c.044.029.088.055.135.081a4.4 4.4 0 0 0 .47.234c.044.021.091.039.138.057.094.039.19.075.291.112a12.88 12.88 0 0 0 4.1.605c.127 0 .252 0 .377-.008q.136 0 .273-.008v1.7a1.182 1.182 0 0 0 .115.502z" class="cls-2" transform="translate(-21 -53.075)"/>
                </g>
                <g id="Group_3068" transform="translate(.779 17.49)">
                    <path id="Path_2578" d="M31.651 77.33v1.733c0 .374-.566.805-1.481 1.125a12 12 0 0 1-3.845.564 12 12 0 0 1-3.845-.564c-.914-.32-1.481-.751-1.481-1.125V77.33l.023.016c.052.039.107.073.164.109a5.263 5.263 0 0 0 1.034.483 12.881 12.881 0 0 0 4.1.605 12.881 12.881 0 0 0 4.1-.605 5.263 5.263 0 0 0 1.034-.483c.057-.036.112-.07.164-.109z" class="cls-2" transform="translate(-21 -77.33)"/>
                </g>
            </g>
        </g>
    </g>
</svg>
