<svg id="Layer_1" data-name="Layer 1" xmlns="http://www.w3.org/2000/svg" viewBox="0 0 462.79 463.16"><path d="M849.74,306.5l-29.38-29.38a65.84,65.84,0,0,0-93.12,0l-36.66,36.66L458.47,545.9a21.37,21.37,0,0,0-5.27,8.61l-46.13,143.3h0a17.73,17.73,0,0,0,22.32,22.32l142.29-45.8a21.59,21.59,0,0,0,8.6-5.25L812.5,436.86h0l37.24-37.24A65.91,65.91,0,0,0,849.74,306.5ZM470.55,578.28l77.62,78.62-114.82,37Zm99.73,67.14L482,556,705.92,332.1l88.84,88.84ZM832.92,382.79,812.5,403.21l-88.84-88.85L744.07,294a42,42,0,0,1,59.46,0l29.39,29.38A42.1,42.1,0,0,1,832.92,382.79Z" transform="translate(-406.21 -257.83)"/></svg>