<svg xmlns="http://www.w3.org/2000/svg" id="edit" width="24" height="24" viewBox="0 0 24 24">
    <path id="Vector" fill="#0c96ff" d="M16.053.73a2.5 2.5 0 0 0-3.529 0l-.883.888-9.4 9.4-.02.02s0 .01-.01.01c-.01.015-.025.03-.035.045s-.005 0-.005.01-.015.025-.025.04 0 .01-.01.015-.01.025-.015.04 0 0 0 .01L.027 17.481a.491.491 0 0 0 .12.509.5.5 0 0 0 .354.145.591.591 0 0 0 .16-.025l6.269-2.092h.01a.181.181 0 0 0 .045-.02.017.017 0 0 0 .01 0l.05-.03c.015-.01.03-.025.045-.035s.01-.005.01-.01.015-.01.02-.02L17.405 5.607a2.5 2.5 0 0 0 0-3.529zM6.769 14.846L3.3 11.372l8.694-8.7 3.474 3.474zM2.806 12.3l3.035 3.03-4.557 1.517zM16.7 4.908l-.529.534L12.7 1.968l.534-.534a1.5 1.5 0 0 1 2.116 0l1.357 1.358a1.5 1.5 0 0 1-.007 2.116z" transform="translate(3.293 3.293)"/>
    <path id="Rectangle_414" fill="none" d="M0 0H24V24H0z" data-name="Rectangle 414"/>
</svg>
