<svg xmlns="http://www.w3.org/2000/svg" id="Component_9_8" width="16" height="16" viewBox="0 0 16 16">
    <defs>
        <style>
            .cls-1{fill: currentColor}
        </style>
    </defs>
    <g id="Group_299" transform="translate(7.273 2.909)">
        <path id="Path_1415" d="M384.751 327.289a.728.728 0 0 1-.727-.727v-5.818a.727.727 0 0 1 1.455 0v5.818a.728.728 0 0 1-.728.727z" class="cls-1" transform="translate(-384.024 -320.016)"/>
        <path id="Path_1416" d="M384.748 449.536a.584.584 0 0 1-.276-.058.517.517 0 0 1-.233-.16.681.681 0 0 1-.218-.509.584.584 0 0 1 .058-.276.517.517 0 0 1 .16-.233.717.717 0 0 1 .785-.159.5.5 0 0 1 .233.159.517.517 0 0 1 .16.233.6.6 0 0 1 .058.276.681.681 0 0 1-.218.509.517.517 0 0 1-.233.16.585.585 0 0 1-.276.058z" class="cls-1" transform="translate(-384.021 -439.354)"/>
    </g>
    <path id="Path_1419" d="M285.358 293.35a8 8 0 1 1 8-8 8.01 8.01 0 0 1-8 8zm0-14.546a6.546 6.546 0 1 0 6.546 6.546 6.554 6.554 0 0 0-6.546-6.55z" class="cls-1" transform="translate(-277.358 -277.35)"/>
</svg>
