<svg xmlns="http://www.w3.org/2000/svg" viewBox="0 0 433.39 512"><g id="Layer_2" data-name="Layer 2"><g id="Capa_1" data-name="Capa 1"><path d="M226.87,501.92a10.09,10.09,0,1,1-10.09-10.08A10.1,10.1,0,0,1,226.87,501.92ZM5,501.92V489.17C5,422,50.62,385.33,70.57,373.37a335.48,335.48,0,0,1,86.66-36.58V320.56a92.44,92.44,0,0,1-13.82-15.25,241.56,241.56,0,0,1-29.35-54,21.12,21.12,0,0,1-16.2-12c-3-6.45-24.18-45.54-27.42-52.5-8.21-17.64,2.52-35.07,16.12-40.68a32,32,0,0,1,7-2A116.5,116.5,0,0,1,206.61,0,43.11,43.11,0,0,1,236.7,12.15a.22.22,0,0,0,.3,0A43.11,43.11,0,0,1,267.09,0,79.2,79.2,0,0,1,346.2,79.12V97.47a169.66,169.66,0,0,1-6.45,46.44,28.35,28.35,0,0,1,7.13,2.07c16.73,7.57,23.27,26.3,16.12,40.67-3.42,6.87-24.37,46-27.42,52.5a21.12,21.12,0,0,1-16.2,12A240.89,240.89,0,0,1,290,305.28a93.15,93.15,0,0,1-13.83,15.28v16.23a335.42,335.42,0,0,1,86.65,36.58c20,12,65.54,48.6,65.54,115.8v12.75A10.08,10.08,0,0,1,418.27,512H262.14a10.09,10.09,0,0,1-10.06-10.75,10.32,10.32,0,0,1,10.41-9.41h145.7c0-42.56-21.36-80.58-55.75-101.18A315.22,315.22,0,0,0,275,357.35a59.46,59.46,0,0,1-116.62,0,315.55,315.55,0,0,0-77.44,33.31C46.55,411.26,25.2,448.11,25.2,491.84H171.44a10.09,10.09,0,0,1,10,10.78A10.31,10.31,0,0,1,171.07,512H15.12A10.08,10.08,0,0,1,5,501.92ZM110.4,118c.93-1.09,14.84-18.17,38.77-18.17a51.38,51.38,0,0,1,32.49,11.58,47.52,47.52,0,0,0,30,10.59c26,0,46.79-20.89,47.38-47.56a10.08,10.08,0,0,1,20.15,0c.29,12.87,7.22,24,18.08,29.12a66.67,66.67,0,0,1,26.18,21.88,149.46,149.46,0,0,0,2.61-27.92V79.12a59,59,0,0,0-59-59A23.06,23.06,0,0,0,251,26.65a20.29,20.29,0,0,1-28.3,0,23,23,0,0,0-16.09-6.49C153.54,20.16,109.89,62.78,110.4,118ZM256,334c-23.86,11.27-51.43,12.57-78.61,0V345.7a39.31,39.31,0,1,0,78.61,0Zm17.65-40.5a220.46,220.46,0,0,0,29.43-56.36c1.23-3.52,5.92-8.85,13.85-5.73,3.74-8,24.79-46.9,27.84-53.35,2.33-4.91-.48-11.31-5.77-13.51a10.86,10.86,0,0,0-9.18.46c-6.26,3.19-14-.58-14.8-7.49-1.81-15.7-12-29-26.32-35.74a50.46,50.46,0,0,1-18.24-14.48,78.43,78.43,0,0,1-11.29,15C240,142.92,200.05,152.09,168.91,127c-12.15-9.8-30.21-9.21-41.36,2.1A33,33,0,0,0,117.92,152v4a10.1,10.1,0,0,1-14.6,9,10.93,10.93,0,0,0-8.89-.3c-4.57,1.82-8.47,7.73-5.77,13.51,3,6.47,24.55,46,27.73,53.2,8.88-3.09,13,3.25,14,5.88a220.91,220.91,0,0,0,29.4,56.24,70,70,0,0,0,113.89,0Zm159.74-233V10.08A10.08,10.08,0,0,0,423.31,0h-50.4a10.08,10.08,0,0,0,0,20.16h40.32V60.47a10.08,10.08,0,0,0,20.16,0Zm0,275.15V285.23a10.08,10.08,0,0,0-20.16,0v40.31H372.91a10.08,10.08,0,0,0,0,20.16h50.4A10.08,10.08,0,0,0,433.39,335.62ZM20.16,60.47V20.16H60.47A10.08,10.08,0,0,0,60.47,0H10.08A10.08,10.08,0,0,0,0,10.08V60.47a10.08,10.08,0,0,0,20.16,0ZM70.55,335.62a10.08,10.08,0,0,0-10.08-10.08H20.16V285.23a10.08,10.08,0,0,0-20.16,0v50.39A10.08,10.08,0,0,0,10.08,345.7H60.47A10.08,10.08,0,0,0,70.55,335.62Z"/></g></g></svg>