<svg id="svg6390" xmlns="http://www.w3.org/2000/svg" viewBox="0 0 41.96 49.99"><g id="layer1"><g id="g3"><path id="path6862" d="M-89.82,7.42a11.28,11.28,0,0,0-3,7.87,10.53,10.53,0,0,0,3,7.8l1.08-1.15a9.1,9.1,0,0,1-2.52-6.64A9.81,9.81,0,0,1-88.7,8.54Zm18.1,0-1.13,1.12a9.77,9.77,0,0,1,2.54,6.76,9.06,9.06,0,0,1-2.52,6.64l1.09,1.15a10.52,10.52,0,0,0,3-7.8A11.23,11.23,0,0,0-71.72,7.42ZM-87.58,9.67a8.05,8.05,0,0,0-2.16,5.61,7.53,7.53,0,0,0,2.16,5.57l1.08-1.15a6.08,6.08,0,0,1-1.65-4.41,6.57,6.57,0,0,1,1.69-4.51Zm13.61,0-1.11,1.11a6.57,6.57,0,0,1,1.68,4.51A6,6,0,0,1-75,19.7L-74,20.85a7.53,7.53,0,0,0,2.16-5.57A8,8,0,0,0-74,9.67ZM-85.34,11.9a4.78,4.78,0,0,0-1.29,3.37,4.53,4.53,0,0,0,1.31,3.36l1.08-1.15a3,3,0,0,1-.81-2.2A3.29,3.29,0,0,1-84.22,13Zm9.13,0L-77.33,13a3.29,3.29,0,0,1,.83,2.26,3,3,0,0,1-.81,2.2l1.08,1.15a4.54,4.54,0,0,0,1.32-3.36A4.74,4.74,0,0,0-76.21,11.9Zm-4.73,2.56c-.4,0-.8.16-.8,1V28.91c0,1.85-.79,3.43-.79,4.75v3.17h3.17V33.66c0-1.32-.79-2.9-.79-4.75h0V15.45c0-.83-.4-1-.79-1Zm-5.61,23.95a.74.74,0,0,0-.73.79v.68H-54V39.2a.74.74,0,0,0-.72-.79Zm-2.21,3.06a1.66,1.66,0,0,0-1.68,1.69v6.33a1.66,1.66,0,0,0,1.68,1.7h36.21a1.67,1.67,0,0,0,1.69-1.7V43.16a1.67,1.67,0,0,0-1.69-1.69Zm4.65,1.69a3.18,3.18,0,0,1,3.17,3.17,3.18,3.18,0,0,1-3.17,3.16,3.18,3.18,0,0,1-3.17-3.16A3.18,3.18,0,0,1-84.11,43.16Zm0,1.58a1.57,1.57,0,0,0-1.58,1.59,1.56,1.56,0,0,0,1.58,1.58,1.57,1.57,0,0,0,1.58-1.58A1.57,1.57,0,0,0-84.11,44.74ZM-77,46.33h1.58a.79.79,0,1,1,0,1.58H-77A.79.79,0,1,1-77,46.33Zm6.35,0h1.57a.79.79,0,1,1,0,1.58h-1.57A.79.79,0,1,1-70.64,46.33Zm4.75,0h1.57a.79.79,0,1,1,0,1.58h-1.57A.79.79,0,1,1-65.89,46.33Zm4.74,0h1.58a.79.79,0,1,1,0,1.58h-1.58A.79.79,0,1,1-61.15,46.33Zm-26.13,6.44v.68a.74.74,0,0,0,.73.79h31.8a.74.74,0,0,0,.72-.79v-.68Zm3.17,3.06v.66a.8.8,0,0,0,.8.92h1.57a.79.79,0,0,0,.79-.92v-.66h-3.16Zm23.75,0v.64a.79.79,0,0,0,.79.94H-58a.79.79,0,0,0,.8-.79v-.79h-3.16Z" transform="translate(92.82 -7.42)"/></g></g></svg>