<svg xmlns="http://www.w3.org/2000/svg" width="95.066" height="58.362" viewBox="0 0 95.066 58.362">
    <defs>
        <style>
            .cls-1{fill:#fff}
        </style>
    </defs>
    <g id="Group_2911" transform="translate(-140 -219)">
        <path id="Path_2445" d="M10472.156 8450.666h12.765v-8.485a49.757 49.757 0 0 1 55.347 4.032 26.835 26.835 0 0 0 14.189-4.032v8.485h12.766v-31.123-.284a441.1 441.1 0 0 1-68.112-26.955 26.953 26.953 0 0 0-26.954 26.955v.284zm68.111-45.6a14.189 14.189 0 1 1-14.189 14.19 14.19 14.19 0 0 1 14.19-14.188zm-54.5 19.138a14.237 14.237 0 0 1 22.635-15.718l6.668-.953-2.955 5.91a14.24 14.24 0 0 1-17.144 19.465c-1.645 1.518-4.458 2.841-8.639.751l2.613-2.612s-9.406.521-9.928-6.793c-.002.002 3.997.802 6.747-.048z" class="cls-1" transform="translate(-10332.156 -8173.304)"/>
        <circle id="Ellipse_814" cx="1.5" cy="1.5" r="1.5" class="cls-1" transform="translate(170 237)"/>
    </g>
</svg>
