<svg xmlns="http://www.w3.org/2000/svg" width="59.224" height="12.073" viewBox="0 0 59.224 12.073">
    <defs>
        <linearGradient id="linear-gradient" x1=".5" x2=".5" y2="1" gradientUnits="objectBoundingBox">
            <stop offset="0" stop-color="#397fff"/>
            <stop offset="1" stop-color="#bb6aff"/>
        </linearGradient>
        <style>
            .cls-2{fill:url(#linear-gradient)}
        </style>
    </defs>
    <g id="Group_2909" style="isolation:isolate">
        <path id="Path_2448" d="M7192.5 9119.226c.967 0 1.854.612 1.854 6.254 0 5.046-.709 5.674-1.709 5.674-.967 0-1.289-.58-1.289-1.562 0-.9.274-1.983.274-3.16 0-.29-.017-.6-.194-.6s-.386.338-.854 1.16a2.645 2.645 0 0 1-2.1 1.563 2.522 2.522 0 0 1-2.031-1.563c-.452-.757-.677-1.16-.887-1.16-.178 0-.226.273-.226.66 0 .951.306 2.161.306 3.111 0 .984-.322 1.547-1.289 1.547-1.017 0-1.726-.628-1.726-5.657 0-5.627.887-6.271 1.87-6.271a1.852 1.852 0 0 1 1.66 1.032 33.833 33.833 0 0 1 1.612 3.9c.193.468.469 1.145.71 1.145.21 0 .483-.547.726-1.145a23.933 23.933 0 0 1 1.612-3.9 1.891 1.891 0 0 1 1.681-1.028z" class="cls-2" transform="translate(-7182.63 -9119.226)"/>
        <path id="Path_2449" d="M7209.479 9119.226c3.481 0 5.206 2.675 5.206 5.965s-1.725 5.963-5.206 5.963-5.224-2.676-5.224-5.963 1.745-5.965 5.224-5.965zm0 9.56c1.467 0 2.24-1.613 2.24-3.595s-.773-3.6-2.24-3.6c-1.517 0-2.258 1.612-2.258 3.6s.742 3.594 2.258 3.594z" class="cls-2" transform="translate(-7190.309 -9119.226)"/>
        <path id="Path_2450" d="M7230.1 9124.577c.693 1.032.807 1.241.968 1.241.127 0 .127-.146.127-.628 0-2.563-.306-3.628-.306-4.433 0-.936.323-1.532 1.274-1.532.982 0 1.934.612 1.934 5.932 0 5.288-.935 5.98-1.838 5.98-.757 0-1.111-.482-1.611-1.226l-2.821-4.19c-.693-1.031-.822-1.241-.983-1.241-.129 0-.129.145-.129.628 0 2.307.307 3.6.307 4.563 0 .871-.307 1.467-1.273 1.467-1.016 0-1.918-.645-1.918-5.947s.9-5.965 1.838-5.965c.726 0 1.047.4 1.595 1.16z" class="cls-2" transform="translate(-7197.258 -9119.226)"/>
        <path id="Path_2451" d="M7244.1 9125.277c0-2.917.1-4.353.42-5.061a1.221 1.221 0 0 1 1.258-.743h3.981c2.128 0 2.45.4 2.45 1.242 0 .806-.581 1.16-1.5 1.16h-3.53a18.189 18.189 0 0 0-.178 2.8h2.258c.886 0 1.466.307 1.466 1.129 0 .936-.887 1.241-3.675 1.257.048.79.129 1.4.161 1.661.468.017.854.031 1.226.031 1.595 0 2.385-.24 3.144-.24a.909.909 0 0 1 1.015.966c0 1.146-1.387 1.711-5.319 1.711-2.946.01-3.177-.35-3.177-5.913z" class="cls-2" transform="translate(-7204.454 -9119.313)"/>
        <path id="Path_2452" d="M7261.251 9128.752a10.254 10.254 0 0 0 2.177-2.031c-3.095-2.159-4.224-4.772-4.224-6.029a1.318 1.318 0 0 1 1.306-1.466c1.064 0 1.4.757 1.886 1.8a10.133 10.133 0 0 0 1.129 1.983c.322.42 1.1 1.208 1.354 1.208s.58-1.128 1.112-2.691c.484-1.418.692-2.3 1.789-2.3a1.108 1.108 0 0 1 1.259 1.095 13.364 13.364 0 0 1-1.807 5.176c-1.8 3.384-4.191 5.8-5.755 5.8a1.129 1.129 0 0 1-1.21-1.159c.001-.644.389-.938.984-1.386z" class="cls-2" transform="translate(-7209.815 -9119.226)"/>
    </g>
</svg>
