<svg xmlns="http://www.w3.org/2000/svg" width="91.821" height="18.72" viewBox="0 0 91.821 18.72">
    <defs>
        <style>
            .cls-1{isolation:isolate}.cls-2{fill:#fff}
        </style>
    </defs>
    <g id="Money" class="cls-1" transform="translate(-7182.631 -9119.226)">
        <g id="Group_2909" class="cls-1">
            <path id="Path_2448" d="M7197.927 9119.226c1.5 0 2.874.949 2.874 9.7 0 7.823-1.1 8.8-2.649 8.8-1.5 0-2-.9-2-2.425 0-1.4.425-3.074.425-4.9 0-.45-.025-.925-.3-.925s-.6.524-1.324 1.8c-.7 1.149-1.7 2.424-3.249 2.424s-2.475-1.274-3.149-2.424c-.7-1.175-1.05-1.8-1.375-1.8-.275 0-.35.425-.35 1.024 0 1.475.475 3.35.475 4.824 0 1.524-.5 2.4-2 2.4-1.575 0-2.674-.975-2.674-8.772 0-8.724 1.374-9.723 2.9-9.723a2.876 2.876 0 0 1 2.574 1.6c.851 1.374 1.175 2.849 2.5 6.048.3.725.725 1.774 1.1 1.774.325 0 .75-.85 1.125-1.774.774-1.924 1.424-4.4 2.5-6.048a2.934 2.934 0 0 1 2.597-1.603z" class="cls-2"/>
            <path id="Path_2449" d="M7212.354 9119.226c5.4 0 8.073 4.148 8.073 9.247s-2.675 9.248-8.073 9.248-8.1-4.149-8.1-9.248 2.701-9.247 8.1-9.247zm0 14.821c2.274 0 3.474-2.5 3.474-5.574s-1.2-5.573-3.474-5.573c-2.35 0-3.5 2.5-3.5 5.573s1.146 5.574 3.5 5.574z" class="cls-2"/>
            <path id="Path_2450" d="M7233.553 9127.523c1.075 1.6 1.25 1.924 1.5 1.924.2 0 .2-.225.2-.975 0-3.974-.474-5.623-.474-6.873 0-1.449.5-2.374 1.974-2.374 1.525 0 3 .949 3 9.2 0 8.2-1.449 9.272-2.849 9.272-1.174 0-1.724-.749-2.5-1.9l-4.374-6.5c-1.075-1.6-1.275-1.925-1.525-1.925-.2 0-.2.225-.2.975 0 3.574.475 5.574.475 7.073 0 1.351-.475 2.274-1.974 2.274-1.575 0-2.974-1-2.974-9.223 0-8.2 1.4-9.247 2.849-9.247 1.125 0 1.624.624 2.474 1.8z" class="cls-2"/>
            <path id="Path_2451" d="M7244.1 9128.473c0-4.523.15-6.748.65-7.848a1.894 1.894 0 0 1 1.95-1.15h6.173c3.3 0 3.8.625 3.8 1.925 0 1.25-.9 1.8-2.324 1.8h-5.474a28.317 28.317 0 0 0-.275 4.349h3.5c1.374 0 2.274.476 2.274 1.75 0 1.449-1.375 1.925-5.7 1.949.075 1.225.2 2.175.25 2.574.725.025 1.325.05 1.9.05 2.474 0 3.7-.374 4.874-.374a1.411 1.411 0 0 1 1.574 1.5c0 1.775-2.149 2.65-8.248 2.65-4.569-.002-4.924-.548-4.924-9.175z" class="cls-2"/>
            <path id="Path_2452" d="M7262.379 9134a15.958 15.958 0 0 0 3.374-3.148c-4.8-3.35-6.548-7.4-6.548-9.348a2.043 2.043 0 0 1 2.024-2.274c1.65 0 2.175 1.174 2.925 2.8a15.707 15.707 0 0 0 1.749 3.074c.5.65 1.7 1.875 2.1 1.875s.9-1.75 1.725-4.175c.75-2.2 1.074-3.573 2.774-3.573a1.718 1.718 0 0 1 1.95 1.7c0 1.25-.75 4.2-2.8 8.023-2.8 5.248-6.5 9-8.923 9a1.75 1.75 0 0 1-1.874-1.8c0-1.008.6-1.454 1.524-2.154z" class="cls-2"/>
        </g>
    </g>
</svg>
