<svg xmlns="http://www.w3.org/2000/svg" width="56" height="56" viewBox="0 0 56 56">
    <circle cx="28" cy="28" r="28" fill="#00afff" opacity="0.097"/>
    <path fill="#00afff" d="M7.187 15.81h1.438v1.439h1.438v1.438H2.876v-1.439h1.438v-2.876H7.19v1.438zm18.684 12.933h1.435v-1.437h-1.435zM8.624 15.81h1.438v-1.438H8.624zm20.118 12.933h1.439v-1.437h-1.439zM11.5 30.18h2.873v-1.438H11.5v1.438zm12.933 0v-1.438h-1.439v1.438zm-5.748 0h1.438V27.3h-1.438zM7.187 11.5v1.438H11.5V11.5zm-1.436 1.435V11.5H2.875v2.875h1.438v-1.44h1.438zm4.311-2.875H0V0h10.06zM8.624 1.439H1.438v7.184h7.186zM2.875 27.306h4.311v-4.312H2.875zm14.371-1.439v1.439h1.44v-1.439zM7.187 2.876H2.876v4.31h4.311v-4.31zM30.18 0v10.06H20.12V0zm-1.438 1.439h-7.184v7.184h7.185V1.439zM0 20.118h10.061v10.06H0zm1.439 8.625h7.186v-7.186H1.439zm0-17.245H0v7.187h1.439zm18.681 7.185v1.435h1.438v-1.435zm-4.312 5.749v-1.438h-1.436v1.439H11.5v2.876h2.873v1.438h1.437V25.87h1.439v-1.437h-1.44zM11.5 5.75h2.873V4.311H11.5V5.75zM23 17.247h2.877v1.438h1.437v-4.311h-1.442V11.5h-1.44v4.31h-4.308v1.439h1.438v1.438H23v-1.439zm1.438 4.31h-1.444v-1.439h-1.437v2.876h-4.311v1.439h2.877v2.876h1.438v1.438H23V25.87h5.747v-1.437h-4.312v-2.876zm0 0h1.44v-2.874h-1.44zm-11.5 0v-1.439h1.435v-1.435h1.437v-1.438h1.439v-2.876h4.311v-2.876h-1.441v1.438h-1.437V7.183h-1.438V4.306h1.438V0h-1.438v2.875h-1.437V0H11.5v2.875h1.438V1.438h1.435v2.873h1.438v4.311h1.438v1.438h-1.442v2.875h-1.438V10.06h-1.435V8.623H11.5V11.5h1.438v1.438H11.5v4.313h1.438v-2.879h1.435v2.876h-1.439v1.438H11.5v4.309h2.873v-1.438zm15.807 1.438v-1.438h-2.876v1.438zM27.3 2.876H23v4.31h4.3zM15.8 21.557h2.877v-1.439h-1.44v-1.435h-1.429v2.874zm2.876-2.874v-1.438h-1.44v1.438zm8.62-5.748h2.876V11.5H27.3zm1.438 11.5h1.439v-1.441h-1.431zm0-8.622h1.439v-1.441h-1.431zm-12.925-7.19h-1.437v1.438h1.437z" transform="translate(13 13)"/>
</svg>
