<svg xmlns="http://www.w3.org/2000/svg" width="56" height="56" viewBox="0 0 56 56">
    <g fill="#00afff" transform="translate(-72 -139)">
        <circle cx="28" cy="28" r="28" opacity="0.097" transform="translate(72 139)"/>
        <path fill-rule="evenodd" d="M66.586 31.949a2.337 2.337 0 0 0-2.338 2.338v23.38A2.337 2.337 0 0 0 66.586 60h19.288a2.337 2.337 0 0 0 2.338-2.338v-9.347H87.16a1.283 1.283 0 0 1-1.286-1.286v-3.273a1.283 1.283 0 0 1 1.286-1.286h1.052v-4.723a2.8 2.8 0 0 0-.807-1.981l-2.969-2.958a2.906 2.906 0 0 0-2.069-.859zm2.923 4.092V41.3a1.169 1.169 0 0 1-2.338 0v-5.26a1.169 1.169 0 1 1 2.338 0zm5.26 0V41.3a1.169 1.169 0 0 1-2.338 0v-5.26a1.169 1.169 0 1 1 2.338 0zm5.26 0V41.3a1.169 1.169 0 1 1-2.338 0v-5.26a1.169 1.169 0 1 1 2.338 0zM68.456 50.653H82.25a1.282 1.282 0 0 1 1.286 1.286V55.8a1.282 1.282 0 0 1-1.286 1.286H68.456A1.282 1.282 0 0 1 67.17 55.8v-3.861a1.282 1.282 0 0 1 1.286-1.286z" transform="translate(23.752 121.051)"/>
    </g>
</svg>
