<svg xmlns="http://www.w3.org/2000/svg" width="56" height="56" viewBox="0 0 56 56">
    <g transform="translate(-249 -314)">
        <circle cx="28" cy="28" r="28" fill="#00afff" opacity="0.097" transform="translate(249 314)"/>
        <g>
            <g>
                <path fill="#00afff" d="M13.892-.572A7.1 7.1 0 0 0 12 4.394a6.666 6.666 0 0 0 1.9 4.926l.683-.728A5.726 5.726 0 0 1 13 4.4 6.18 6.18 0 0 1 14.6.134l-.709-.707zm11.427 0l-.709.706a6.175 6.175 0 0 1 1.6 4.266 5.723 5.723 0 0 1-1.589 4.192l.685.728a6.666 6.666 0 0 0 1.9-4.926 7.1 7.1 0 0 0-1.888-4.966zM15.307.843a5.062 5.062 0 0 0-1.361 3.543A4.74 4.74 0 0 0 15.309 7.9l.683-.728a3.808 3.808 0 0 1-1.046-2.784 4.145 4.145 0 0 1 1.068-2.838l-.707-.707zm8.6 0l-.707.707a4.132 4.132 0 0 1 1.066 2.843 3.8 3.8 0 0 1-1.044 2.784l.678.723a4.742 4.742 0 0 0 1.361-3.518A5.064 5.064 0 0 0 23.9.843zm-7.18 1.411a3.017 3.017 0 0 0-.827 2.129 2.873 2.873 0 0 0 .83 2.122l.683-.73a1.913 1.913 0 0 1-.513-1.387 2.08 2.08 0 0 1 .527-1.427l-.709-.707zm5.763 0l-.707.707a2.094 2.094 0 0 1 .527 1.427 1.926 1.926 0 0 1-.515 1.386l.685.73a2.856 2.856 0 0 0 .83-2.122 3 3 0 0 0-.82-2.128zM19.5 3.873c-.25 0-.5.1-.5.625v8.5c0 1.166-.5 2.166-.5 3v2h2v-2c0-.833-.5-1.831-.5-3V4.5c0-.528-.25-.625-.5-.625zm-3.545 15.118a.469.469 0 0 0-.457.5v.43h20.991v-.43a.469.469 0 0 0-.457-.5H15.955zm-1.394 1.929a1.055 1.055 0 0 0-1.061 1.072v4a1.055 1.055 0 0 0 1.062 1.072h22.864a1.055 1.055 0 0 0 1.062-1.072v-4a1.055 1.055 0 0 0-1.062-1.072zm2.939 1.07a2 2 0 1 1-2 2 2.007 2.007 0 0 1 2-2zm0 1a1 1 0 1 0 1 1 .992.992 0 0 0-1-1zm4.5 1h1a.5.5 0 1 1 0 1h-1a.5.5 0 1 1-.006-1.001zm4.008 0H27a.5.5 0 1 1 0 1h-1a.5.5 0 1 1 0-1.001zm3 0h.994a.5.5 0 1 1 0 1H29a.5.5 0 1 1 0-1.001zm2.995 0h.994a.5.5 0 1 1 0 1H32a.5.5 0 1 1 0-1.001zM15.5 28.06v.428a.469.469 0 0 0 .457.5h20.076a.469.469 0 0 0 .457-.5v-.428H15.5zm2 1.927v.42a.5.5 0 0 0 .5.58h1a.5.5 0 0 0 .5-.582v-.418h-2zm14.993 0v.408a.5.5 0 0 0 .5.592h.988a.5.5 0 0 0 .508-.5v-.5H32.5z" transform="translate(259 -694.824) translate(5 1020.824) translate(-12 .572)"/>
            </g>
        </g>
    </g>
</svg>
