<svg xmlns="http://www.w3.org/2000/svg" width="54" height="54" viewBox="0 0 54 54">
    <defs>
        <style>
            .cls-2{fill:#00afff}
        </style>
    </defs>
    <g id="Group_3112" transform="translate(-124 -9307)">
        <g id="Group_3111" opacity="0.097" transform="translate(-37 8807)">
            <path id="Path_1602" d="M27 0A27 27 0 1 1 0 27 27 27 0 0 1 27 0z" class="cls-2" transform="translate(161 500)"/>
        </g>
        <path id="iconfinder_barcode_1608570" d="M.972 149.715H0V128h.972zm.972-.015H1.45V128h.494zm1.45 0h-.479V128h.478zm2.421 0h-.479V128h.478zm2.421 0H7.28V128h.956zm1.943 0H9.7V128h.478zm.972 0h-.478V128h.478zm.972 0h-.478V128h.478zm2.421 0h-.972V128h.972zm2.421 0h-.972V128h.972zm1.943 0h-.972V128h.972zm1.943 0h-.971V128h.972zm1.45 0h-.971V128h.97zm2.915 0h-1.45V128h1.45zm.972 0h-.494V128h.494zm1.45.015h-.972V128h.972z" class="cls-2" transform="translate(138 9195.284)"/>
    </g>
</svg>
