<svg xmlns="http://www.w3.org/2000/svg" id="show" width="20.126" height="20" viewBox="0 0 20.126 20">
    <defs>
        <style>
            .cls-1{fill:#cbcbcb}
        </style>
    </defs>
    <g id="eye" transform="translate(0 -88.835)">
        <g id="Group_349" transform="translate(0 92.835)">
            <g id="Group_348">
                <path id="Path_1454" d="M20 98.857c-.18-.246-4.464-6.022-9.935-6.022S.307 98.611.128 98.857a.664.664 0 0 0 0 .783c.18.246 4.464 6.022 9.935 6.022S19.818 99.886 20 99.64a.663.663 0 0 0 0-.783zm-9.935 5.478c-4.03 0-7.521-3.834-8.554-5.087 1.032-1.254 4.515-5.086 8.554-5.086s7.52 3.833 8.554 5.087c-1.034 1.251-4.519 5.087-8.556 5.087z" class="cls-1" transform="translate(0 -92.835)"/>
            </g>
        </g>
        <g id="Group_351" transform="translate(6.082 95.268)">
            <g id="Group_350">
                <path id="Path_1455" d="M158.7 154.725a3.981 3.981 0 1 0 3.981 3.981 3.986 3.986 0 0 0-3.981-3.981zm0 6.635a2.654 2.654 0 1 1 2.654-2.654 2.657 2.657 0 0 1-2.654 2.654z" class="cls-1" transform="translate(-154.722 -154.725)"/>
            </g>
        </g>
    </g>
    <path id="Rectangle_665" fill="none" d="M0 0H20V20H0z"/>
</svg>
