<svg xmlns="http://www.w3.org/2000/svg" id="qr-code" width="97.199" height="97.199" viewBox="0 0 97.199 97.199">
    <defs>
        <style>
            .cls-1{fill:#00015d}
        </style>
    </defs>
    <path id="Path_1477" d="M390.175 0h-16.683a3.492 3.492 0 0 0 0 6.984h16.683a5.906 5.906 0 0 1 5.9 5.9v16.683a3.492 3.492 0 0 0 6.984 0V12.884A12.9 12.9 0 0 0 390.175 0z" class="cls-1" transform="translate(-305.86)"/>
    <path id="Path_1478" d="M3.492 33.059a3.492 3.492 0 0 0 3.492-3.492V12.884a5.906 5.906 0 0 1 5.9-5.9h16.683a3.492 3.492 0 1 0 0-6.984H12.884A12.9 12.9 0 0 0 0 12.884v16.683a3.492 3.492 0 0 0 3.492 3.492z" class="cls-1"/>
    <path id="Path_1479" d="M29.567 396.075H12.884a5.906 5.906 0 0 1-5.9-5.9v-16.683a3.492 3.492 0 0 0-6.984 0v16.683a12.9 12.9 0 0 0 12.884 12.884h16.683a3.492 3.492 0 0 0 0-6.984z" class="cls-1" transform="translate(0 -305.86)"/>
    <path id="Path_1480" d="M399.567 370a3.492 3.492 0 0 0-3.492 3.492v16.683a5.906 5.906 0 0 1-5.9 5.9h-16.683a3.492 3.492 0 0 0 0 6.984h16.683a12.9 12.9 0 0 0 12.884-12.884v-16.683a3.492 3.492 0 0 0-3.492-3.492z" class="cls-1" transform="translate(-305.86 -305.86)"/>
    <path id="Path_1481" d="M330.135 86.984h11.076a2.746 2.746 0 0 1 2.743 2.743V100.8a3.492 3.492 0 0 0 6.984 0V89.727A9.738 9.738 0 0 0 341.211 80h-11.076a3.492 3.492 0 1 0 0 6.984z" class="cls-1" transform="translate(-268.226 -65.693)"/>
    <path id="Path_1482" d="M81 89.727V100.8a3.492 3.492 0 0 0 6.984 0V89.727a2.746 2.746 0 0 1 2.743-2.743H101.8a3.492 3.492 0 1 0 0-6.984H90.727A9.738 9.738 0 0 0 81 89.727z" class="cls-1" transform="translate(-66.514 -65.693)"/>
    <path id="Path_1483" d="M101.8 342.955H90.727a2.746 2.746 0 0 1-2.743-2.743v-11.076a3.492 3.492 0 0 0-6.984 0v11.076a9.738 9.738 0 0 0 9.727 9.727H101.8a3.492 3.492 0 0 0 0-6.984z" class="cls-1" transform="translate(-66.514 -267.405)"/>
    <path id="Path_1484" d="M350.938 340.212v-11.076a3.492 3.492 0 0 0-6.984 0v11.076a2.746 2.746 0 0 1-2.743 2.743h-11.076a3.492 3.492 0 0 0 0 6.984h11.076a9.738 9.738 0 0 0 9.727-9.727z" class="cls-1" transform="translate(-268.226 -267.405)"/>
    <path id="Path_1485" fill="#c9cbcc" d="M1 244.492c0 1.929 1.274 3.492 2.845 3.492h91.043c1.571 0 2.845-1.564 2.845-3.492S96.46 241 94.888 241H3.845C2.274 241 1 242.564 1 244.492z" transform="translate(-.767 -195.893)"/>
</svg>
