<svg xmlns="http://www.w3.org/2000/svg" width="56" height="56" viewBox="0 0 56 56">
    <defs>
        <style>
            .cls-3{fill:#00afff}
        </style>
    </defs>
    <g id="Group_3960" transform="translate(-248 -125)">
        <g id="Group_2917" transform="translate(248 125)">
            <circle id="Ellipse_815" cx="28" cy="28" r="28" fill="#00afff" opacity="0.097"/>
        </g>
        <g id="spending" transform="translate(260 137)">
            <g id="bx-money" transform="translate(1 4)">
                <path id="Path_2957" d="M27.123 4H3.322A1.194 1.194 0 0 0 2 5v14a1.194 1.194 0 0 0 1.322 1h23.8a1.194 1.194 0 0 0 1.322-1V5a1.194 1.194 0 0 0-1.321-1zM25.8 15c-2.191 0-3.967 1.343-3.967 3H8.611c0-1.657-1.776-3-3.967-3V9c2.192 0 3.967-1.343 3.967-3h13.223c0 1.657 1.776 3 3.967 3z" class="cls-3"/>
                <path id="Path_2958" d="M12 8a4 4 0 1 0 4 4 4 4 0 0 0-4-4zm0 6a2 2 0 1 1 2-2 2 2 0 0 1-2 2z" class="cls-3" transform="translate(3.223)"/>
            </g>
        </g>
    </g>
</svg>
