<svg xmlns="http://www.w3.org/2000/svg" viewBox="0 0 17.77 16.81"><g id="Layer_2" data-name="Layer 2"><g id="Layer_1-2" data-name="Layer 1"><path d="M2.88,13.69a1.2,1.2,0,0,1-1.2-1.2V6.72a1.2,1.2,0,0,1,2.4,0v5.77A1.2,1.2,0,0,1,2.88,13.69Zm0-7.45a.49.49,0,0,0-.48.48v5.77a.49.49,0,0,0,.48.48.48.48,0,0,0,.48-.48V6.72A.48.48,0,0,0,2.88,6.24Z"/><path d="M2,12.73c-1.14,0-2-1.38-2-3.13S.9,6.48,2,6.48V7.2C1.33,7.2.72,8.3.72,9.6S1.33,12,2,12Z"/><path d="M14.89,13.69a1.2,1.2,0,0,1-1.2-1.2V6.72a1.2,1.2,0,1,1,2.4,0v5.77A1.2,1.2,0,0,1,14.89,13.69Zm0-7.45a.48.48,0,0,0-.48.48v5.77a.48.48,0,0,0,.48.48.49.49,0,0,0,.48-.48V6.72A.49.49,0,0,0,14.89,6.24Z"/><path d="M13.25,15.85H10.68v-.72h2.57A1.16,1.16,0,0,0,14.41,14v-.65h.72V14A1.88,1.88,0,0,1,13.25,15.85Z"/><path d="M9.84,16.81H8.16a1.2,1.2,0,0,1,0-2.4H9.84a1.2,1.2,0,0,1,0,2.4ZM8.16,15.13a.48.48,0,0,0-.48.48.49.49,0,0,0,.48.48H9.84a.48.48,0,0,0,.48-.48.47.47,0,0,0-.48-.48Z"/><path d="M15.73,12.73V12c.71,0,1.32-1.1,1.32-2.41s-.61-2.4-1.32-2.4V6.48c1.14,0,2,1.37,2,3.12S16.87,12.73,15.73,12.73Z"/><path d="M14.64,5.9A5.57,5.57,0,0,0,8.88.72,5.58,5.58,0,0,0,3.12,5.9l-.72,0A6.3,6.3,0,0,1,8.88,0a6.29,6.29,0,0,1,6.48,5.88Z"/></g></g></svg>