<svg xmlns="http://www.w3.org/2000/svg" viewBox="0 0 17.18 19.52"><g id="Layer_2" data-name="Layer 2"><g id="Layer_1-2" data-name="Layer 1"><path d="M14.84,6.72H2.34A2.35,2.35,0,0,1,2.34,2h12.5a2.35,2.35,0,0,1,0,4.69ZM2.34,3a1.41,1.41,0,0,0,0,2.81h12.5a1.41,1.41,0,0,0,0-2.81Z"/><path d="M10.71,2.61a2.13,2.13,0,0,0-.58-1,2.17,2.17,0,0,0-3.08,0,2.23,2.23,0,0,0-.59,1l-.91-.22A3.17,3.17,0,0,1,6.38.92,3.14,3.14,0,0,1,8.59,0a3.1,3.1,0,0,1,2.2.92,3,3,0,0,1,.83,1.47Z"/><path d="M11.9,19.52H5a3.41,3.41,0,0,1-3.41-3.41v-8a.47.47,0,0,1,.94,0v8A2.47,2.47,0,0,0,5,18.58H11.9a2.47,2.47,0,0,0,2.47-2.47v-8a.47.47,0,0,1,.47-.47.46.46,0,0,1,.46.47v8A3.41,3.41,0,0,1,11.9,19.52Z"/><rect x="4.84" y="8.12" width="0.94" height="8.75" rx="0.47"/><rect x="7.96" y="8.12" width="0.94" height="8.75" rx="0.47"/><rect x="11.09" y="8.12" width="0.94" height="8.75" rx="0.47"/></g></g></svg>