<svg xmlns="http://www.w3.org/2000/svg" width="100" height="100" viewBox="0 0 100 100">
    <defs>
        <style>
            .cls-2{fill:#00015d}
        </style>
    </defs>
    <g id="Group_2330" transform="translate(-174 -251)">
        <path id="Rectangle_17285" fill="none" d="M0 0H100V100H0z" transform="translate(174 251)"/>
        <g id="restart" transform="translate(177.894 262)">
            <g id="Group_2328" transform="translate(8.106)">
                <g id="Group_2327">
                    <path id="Path_2018" d="M83.2 43.885a1.153 1.153 0 1 0-2.257.472C84.737 62.494 66.015 77.038 49.46 69.11a22.341 22.341 0 1 1 30.174-28.927 1.153 1.153 0 0 0 2.12-.905 24.652 24.652 0 0 0-32.294-13.02V5.576A5.583 5.583 0 0 0 43.884 0h-30.2a5.582 5.582 0 0 0-5.578 5.575v66.964a5.582 5.582 0 0 0 5.577 5.575h30.2a5.583 5.583 0 0 0 5.577-5.575v-.9c18.155 7.732 37.828-8.202 33.74-27.754zM10.412 13.132a3.264 3.264 0 0 1 2.466-3.171 1.154 1.154 0 0 0-.566-2.237 5.549 5.549 0 0 0-1.9.889V5.575a3.273 3.273 0 0 1 3.271-3.27h30.2a3.274 3.274 0 0 1 3.271 3.27v3.044a5.544 5.544 0 0 0-3.271-1.064H17.194a1.153 1.153 0 0 0 0 2.306h26.69a3.275 3.275 0 0 1 3.271 3.271v14.253a24.643 24.643 0 0 0-1.33 42.334 3.253 3.253 0 0 1-1.941.641h-30.2a3.275 3.275 0 0 1-3.271-3.271V13.132zm36.743 59.407a3.274 3.274 0 0 1-3.271 3.27h-30.2a3.273 3.273 0 0 1-3.271-3.27V71.6a5.541 5.541 0 0 0 3.271 1.064h30.2a5.544 5.544 0 0 0 3.271-1.064v.938z" class="cls-2" transform="translate(-8.106)"/>
                    <path id="Path_2019" d="M231.22 227.575a18.261 18.261 0 0 0 23.1-27.838 3.531 3.531 0 0 0-5.191 4.787 11.209 11.209 0 0 1-2.8 17.293 1.153 1.153 0 0 0 1.134 2.007 13.518 13.518 0 0 0 3.371-20.852 1.259 1.259 0 0 1-.333-.85 1.224 1.224 0 0 1 2.115-.83c9.282 10.151 2.1 26.721-11.781 26.721a15.958 15.958 0 0 1-3.513-31.523 1.153 1.153 0 0 0 .724-1.735 1.242 1.242 0 0 1-.183-.7 1.226 1.226 0 0 1 2.123-.781c4.445 5.045 4.439 3.129-.106 8.058a1.228 1.228 0 0 1-1.768.066 1.287 1.287 0 0 1-.372-.916 1.153 1.153 0 0 0-1.549-1.111 13.508 13.508 0 0 0 6.524 26.06 1.152 1.152 0 1 0-.32-2.283 11.2 11.2 0 0 1-6.61-21.09 3.535 3.535 0 0 0 5.752.878l3.057-3.157a3.531 3.531 0 0 0 .057-4.85l-2.971-3.219a3.535 3.535 0 0 0-6.095 2.85c-14.951 4.491-17.796 24.687-4.365 33.015z" class="cls-2" transform="translate(-189.866 -161.502)"/>
                    <path id="Path_2020" d="M81.065 28.115h11.483a1.153 1.153 0 1 0 0-2.306H81.065a1.153 1.153 0 0 0 0 2.306z" class="cls-2" transform="translate(-68.957 -21.871)"/>
                    <circle id="Ellipse_719" cx="1.458" cy="1.458" r="1.458" class="cls-2" transform="translate(26.33 3.633)"/>
                </g>
            </g>
        </g>
    </g>
</svg>
