<svg xmlns="http://www.w3.org/2000/svg" xmlns:xlink="http://www.w3.org/1999/xlink" viewBox="0 0 90.35 156.66"><defs><style>.cls-1{isolation:isolate;}.cls-2,.cls-3,.cls-4{mix-blend-mode:soft-light;}.cls-2{fill:url(#New_Gradient_Swatch_copy);}.cls-3{fill:url(#New_Gradient_Swatch);}.cls-4{fill:url(#linear-gradient);}</style><linearGradient id="New_Gradient_Swatch_copy" x1="1412.82" y1="21.11" x2="1455.01" y2="21.11" gradientTransform="matrix(-1, 0, 0, 1, 1490.04, 119.18)" gradientUnits="userSpaceOnUse"><stop offset="0" stop-color="#21d4fd"/><stop offset="1" stop-color="#b721ff"/></linearGradient><linearGradient id="New_Gradient_Swatch" x1="1399.69" y1="-15.89" x2="1471.5" y2="-15.89" gradientTransform="matrix(-1, 0, 0, 1, 1490.04, 119.18)" gradientUnits="userSpaceOnUse"><stop offset="0" stop-color="#fbda61"/><stop offset="1" stop-color="#ff5acd"/></linearGradient><linearGradient id="linear-gradient" x1="1427.65" y1="-40.85" x2="1490.04" y2="-40.85" gradientTransform="matrix(-1, 0, 0, 1, 1490.04, 119.18)" gradientUnits="userSpaceOnUse"><stop offset="0" stop-color="#08aeea"/><stop offset="1" stop-color="#2af598"/></linearGradient></defs><g class="cls-1"><g id="Layer_2" data-name="Layer 2"><g id="Layer_1-2" data-name="Layer 1"><path class="cls-2" d="M35,156.66l.6-.68a142.61,142.61,0,0,1,41.58-32.06A128.18,128.18,0,0,0,53.5,147c-2.59,3.28-4.88,6.5-6.92,9.62Z"/><path class="cls-3" d="M18.54,156.66a183.54,183.54,0,0,1,12.63-37.87A165.27,165.27,0,0,1,61.22,74.24,163,163,0,0,1,90.35,49.93c-14,15.25-36.79,44.69-44.82,87.12A165,165,0,0,0,43.05,156v.68Z"/><path class="cls-4" d="M0,156.66C.91,126.1,7.39,80.82,34.82,36.19A228.57,228.57,0,0,1,62.39,0C52,15.86,28.72,56.15,30.7,110.68c.09,2.74.25,5.42.47,8.06a183.23,183.23,0,0,0,7.15,37.92Z"/></g></g></g></svg>