<svg xmlns="http://www.w3.org/2000/svg" preserveAspectRatio="none" width="250.148" height="666.901" viewBox="0 0 250.148 666.901">
    <defs>
        <clipPath id="clip-path">
            <path fill="none" d="M0 0H250.149V666.901H0z"/>
        </clipPath>
        <style>
            .cls-3{fill:none;stroke:rgba(255,255,255,.05);stroke-linecap:round;stroke-width:3px}
        </style>
    </defs>
    <g id="Repeat_Grid_2" clip-path="url(#clip-path)">
        <g transform="translate(1226.458 -2110.239)">
            <path id="Path_1665" d="M-618.927 1951.037s8.634-.145 8.631 8.818-8.631 8.783-8.631 8.783" class="cls-3" transform="translate(-597 167)"/>
            <path id="Path_1667" d="M-618.927 1951.037s8.634-.145 8.631 8.818-8.631 8.783-8.631 8.783" class="cls-3" transform="translate(-606 265)"/>
            <path id="Path_1654" d="M-618.927 1951.037s8.634-.145 8.631 8.818-8.631 8.783-8.631 8.783" class="cls-3" transform="translate(-461 267)"/>
            <path id="Path_1666" d="M-618.927 1951.037s8.634-.145 8.631 8.818-8.631 8.783-8.631 8.783" class="cls-3" transform="rotate(-90 -727.612 2341.838)"/>
            <path id="Path_1655" d="M-618.927 1951.037s8.634-.145 8.631 8.818-8.631 8.783-8.631 8.783" class="cls-3" transform="rotate(-90 -762.112 2325.338)"/>
            <path id="Path_1643" d="M-618.927 1951.037s8.634-.145 8.631 8.818-8.631 8.783-8.631 8.783" class="cls-3" transform="rotate(-90 -693.612 2262.838)"/>
            <path id="Path_1644" d="M-618.927 1951.037s8.634-.145 8.631 8.818-8.631 8.783-8.631 8.783" class="cls-3" transform="rotate(90 -907.612 1860.838)"/>
            <path id="Path_1645" d="M-618.927 1951.037s8.634-.145 8.631 8.818-8.631 8.783-8.631 8.783" class="cls-3" transform="rotate(90 -947.612 1825.838)"/>
            <path id="Path_1661" d="M-618.927 1951.037s8.634-.145 8.631 8.818-8.631 8.783-8.631 8.783" class="cls-3" transform="rotate(90 -1019.612 1821.838)"/>
            <path id="Path_1646" d="M-618.927 1951.037s8.634-.145 8.631 8.818-8.631 8.783-8.631 8.783" class="cls-3" transform="rotate(180 -837.612 2075.338)"/>
            <path id="Path_1656" d="M-618.927 1951.037s8.634-.145 8.631 8.818-8.631 8.783-8.631 8.783" class="cls-3" transform="rotate(180 -805.612 2093.338)"/>
            <path id="Path_1647" d="M-618.927 1951.037s8.634-.145 8.631 8.818-8.631 8.783-8.631 8.783" class="cls-3" transform="rotate(180 -865.612 2045.838)"/>
            <path id="Path_1668" d="M-618.927 1951.037s8.634-.145 8.631 8.818-8.631 8.783-8.631 8.783" class="cls-3" transform="rotate(180 -916.112 2067.338)"/>
            <path id="Path_1657" d="M-618.927 1951.037s8.634-.145 8.631 8.818-8.631 8.783-8.631 8.783" class="cls-3" transform="rotate(30 -1316.7 1033.96)"/>
            <path id="Path_1648" d="M-618.927 1951.037s8.634-.145 8.631 8.818-8.631 8.783-8.631 8.783" class="cls-3" transform="rotate(-90 -745.612 2255.838)"/>
            <path id="Path_1658" d="M-571.3 1949.637s-2.458 8.792 4.656 8.842 15.576 0 15.576 0" class="cls-3" transform="translate(-597 168)"/>
            <path id="Path_1649" d="M-571.3 1949.637s-2.458 8.792 4.656 8.842 15.576 0 15.576 0" class="cls-3" transform="translate(-441 170)"/>
            <path id="Path_1662" d="M-571.3 1949.637s-2.458 8.792 4.656 8.842 15.576 0 15.576 0" class="cls-3" transform="translate(-469 274)"/>
            <path id="Path_1659" d="M-571.3 1949.637s-2.458 8.792 4.656 8.842 15.576 0 15.576 0" class="cls-3" transform="rotate(180 -854.889 2053.57)"/>
            <path id="Path_1660" d="M-571.3 1949.637s-2.458 8.792 4.656 8.842 15.576 0 15.576 0" class="cls-3" transform="rotate(180 -847.889 2081.57)"/>
            <path id="Path_1650" d="M-571.3 1949.637s-2.458 8.792 4.656 8.842 15.576 0 15.576 0" class="cls-3" transform="rotate(180 -801.389 2060.07)"/>
            <path id="Path_1651" d="M-571.3 1949.637s-2.458 8.792 4.656 8.842 15.576 0 15.576 0" class="cls-3" transform="rotate(-90 -735.388 2296.07)"/>
            <path id="Path_1652" d="M-571.3 1949.637s-2.458 8.792 4.656 8.842 15.576 0 15.576 0" class="cls-3" transform="rotate(-90 -670.888 2312.57)"/>
            <path id="Path_1663" d="M-571.3 1949.637s-2.458 8.792 4.656 8.842 15.576 0 15.576 0" class="cls-3" transform="rotate(-90 -776.888 2369.57)"/>
            <path id="Path_1653" d="M-571.3 1949.637s-2.458 8.792 4.656 8.842 15.576 0 15.576 0" class="cls-3" transform="rotate(90 -943.889 1808.57)"/>
            <path id="Path_1664" d="M-571.3 1949.637s-2.458 8.792 4.656 8.842 15.576 0 15.576 0" class="cls-3" transform="rotate(90 -1009.889 1775.57)"/>
        </g>
        <g transform="translate(1476.458 -2110.239)">
            <path id="Path_1665-2" d="M-618.927 1951.037s8.634-.145 8.631 8.818-8.631 8.783-8.631 8.783" class="cls-3" transform="translate(-597 167)"/>
            <path id="Path_1667-2" d="M-618.927 1951.037s8.634-.145 8.631 8.818-8.631 8.783-8.631 8.783" class="cls-3" transform="translate(-606 265)"/>
            <path id="Path_1654-2" d="M-618.927 1951.037s8.634-.145 8.631 8.818-8.631 8.783-8.631 8.783" class="cls-3" transform="translate(-461 267)"/>
            <path id="Path_1666-2" d="M-618.927 1951.037s8.634-.145 8.631 8.818-8.631 8.783-8.631 8.783" class="cls-3" transform="rotate(-90 -727.612 2341.838)"/>
            <path id="Path_1655-2" d="M-618.927 1951.037s8.634-.145 8.631 8.818-8.631 8.783-8.631 8.783" class="cls-3" transform="rotate(-90 -762.112 2325.338)"/>
            <path id="Path_1643-2" d="M-618.927 1951.037s8.634-.145 8.631 8.818-8.631 8.783-8.631 8.783" class="cls-3" transform="rotate(-90 -693.612 2262.838)"/>
            <path id="Path_1644-2" d="M-618.927 1951.037s8.634-.145 8.631 8.818-8.631 8.783-8.631 8.783" class="cls-3" transform="rotate(90 -907.612 1860.838)"/>
            <path id="Path_1645-2" d="M-618.927 1951.037s8.634-.145 8.631 8.818-8.631 8.783-8.631 8.783" class="cls-3" transform="rotate(90 -947.612 1825.838)"/>
            <path id="Path_1661-2" d="M-618.927 1951.037s8.634-.145 8.631 8.818-8.631 8.783-8.631 8.783" class="cls-3" transform="rotate(90 -1019.612 1821.838)"/>
            <path id="Path_1646-2" d="M-618.927 1951.037s8.634-.145 8.631 8.818-8.631 8.783-8.631 8.783" class="cls-3" transform="rotate(180 -837.612 2075.338)"/>
            <path id="Path_1656-2" d="M-618.927 1951.037s8.634-.145 8.631 8.818-8.631 8.783-8.631 8.783" class="cls-3" transform="rotate(180 -805.612 2093.338)"/>
            <path id="Path_1647-2" d="M-618.927 1951.037s8.634-.145 8.631 8.818-8.631 8.783-8.631 8.783" class="cls-3" transform="rotate(180 -865.612 2045.838)"/>
            <path id="Path_1668-2" d="M-618.927 1951.037s8.634-.145 8.631 8.818-8.631 8.783-8.631 8.783" class="cls-3" transform="rotate(180 -916.112 2067.338)"/>
            <path id="Path_1657-2" d="M-618.927 1951.037s8.634-.145 8.631 8.818-8.631 8.783-8.631 8.783" class="cls-3" transform="rotate(30 -1316.7 1033.96)"/>
            <path id="Path_1648-2" d="M-618.927 1951.037s8.634-.145 8.631 8.818-8.631 8.783-8.631 8.783" class="cls-3" transform="rotate(-90 -745.612 2255.838)"/>
            <path id="Path_1658-2" d="M-571.3 1949.637s-2.458 8.792 4.656 8.842 15.576 0 15.576 0" class="cls-3" transform="translate(-597 168)"/>
            <path id="Path_1649-2" d="M-571.3 1949.637s-2.458 8.792 4.656 8.842 15.576 0 15.576 0" class="cls-3" transform="translate(-441 170)"/>
            <path id="Path_1662-2" d="M-571.3 1949.637s-2.458 8.792 4.656 8.842 15.576 0 15.576 0" class="cls-3" transform="translate(-469 274)"/>
            <path id="Path_1659-2" d="M-571.3 1949.637s-2.458 8.792 4.656 8.842 15.576 0 15.576 0" class="cls-3" transform="rotate(180 -854.889 2053.57)"/>
            <path id="Path_1660-2" d="M-571.3 1949.637s-2.458 8.792 4.656 8.842 15.576 0 15.576 0" class="cls-3" transform="rotate(180 -847.889 2081.57)"/>
            <path id="Path_1650-2" d="M-571.3 1949.637s-2.458 8.792 4.656 8.842 15.576 0 15.576 0" class="cls-3" transform="rotate(180 -801.389 2060.07)"/>
            <path id="Path_1651-2" d="M-571.3 1949.637s-2.458 8.792 4.656 8.842 15.576 0 15.576 0" class="cls-3" transform="rotate(-90 -735.388 2296.07)"/>
            <path id="Path_1652-2" d="M-571.3 1949.637s-2.458 8.792 4.656 8.842 15.576 0 15.576 0" class="cls-3" transform="rotate(-90 -670.888 2312.57)"/>
            <path id="Path_1663-2" d="M-571.3 1949.637s-2.458 8.792 4.656 8.842 15.576 0 15.576 0" class="cls-3" transform="rotate(-90 -776.888 2369.57)"/>
            <path id="Path_1653-2" d="M-571.3 1949.637s-2.458 8.792 4.656 8.842 15.576 0 15.576 0" class="cls-3" transform="rotate(90 -943.889 1808.57)"/>
            <path id="Path_1664-2" d="M-571.3 1949.637s-2.458 8.792 4.656 8.842 15.576 0 15.576 0" class="cls-3" transform="rotate(90 -1009.889 1775.57)"/>
        </g>
        <g transform="translate(1226.458 -1981.239)">
            <path id="Path_1665-3" d="M-618.927 1951.037s8.634-.145 8.631 8.818-8.631 8.783-8.631 8.783" class="cls-3" transform="translate(-597 167)"/>
            <path id="Path_1667-3" d="M-618.927 1951.037s8.634-.145 8.631 8.818-8.631 8.783-8.631 8.783" class="cls-3" transform="translate(-606 265)"/>
            <path id="Path_1654-3" d="M-618.927 1951.037s8.634-.145 8.631 8.818-8.631 8.783-8.631 8.783" class="cls-3" transform="translate(-461 267)"/>
            <path id="Path_1666-3" d="M-618.927 1951.037s8.634-.145 8.631 8.818-8.631 8.783-8.631 8.783" class="cls-3" transform="rotate(-90 -727.612 2341.838)"/>
            <path id="Path_1655-3" d="M-618.927 1951.037s8.634-.145 8.631 8.818-8.631 8.783-8.631 8.783" class="cls-3" transform="rotate(-90 -762.112 2325.338)"/>
            <path id="Path_1643-3" d="M-618.927 1951.037s8.634-.145 8.631 8.818-8.631 8.783-8.631 8.783" class="cls-3" transform="rotate(-90 -693.612 2262.838)"/>
            <path id="Path_1644-3" d="M-618.927 1951.037s8.634-.145 8.631 8.818-8.631 8.783-8.631 8.783" class="cls-3" transform="rotate(90 -907.612 1860.838)"/>
            <path id="Path_1645-3" d="M-618.927 1951.037s8.634-.145 8.631 8.818-8.631 8.783-8.631 8.783" class="cls-3" transform="rotate(90 -947.612 1825.838)"/>
            <path id="Path_1661-3" d="M-618.927 1951.037s8.634-.145 8.631 8.818-8.631 8.783-8.631 8.783" class="cls-3" transform="rotate(90 -1019.612 1821.838)"/>
            <path id="Path_1646-3" d="M-618.927 1951.037s8.634-.145 8.631 8.818-8.631 8.783-8.631 8.783" class="cls-3" transform="rotate(180 -837.612 2075.338)"/>
            <path id="Path_1656-3" d="M-618.927 1951.037s8.634-.145 8.631 8.818-8.631 8.783-8.631 8.783" class="cls-3" transform="rotate(180 -805.612 2093.338)"/>
            <path id="Path_1647-3" d="M-618.927 1951.037s8.634-.145 8.631 8.818-8.631 8.783-8.631 8.783" class="cls-3" transform="rotate(180 -865.612 2045.838)"/>
            <path id="Path_1668-3" d="M-618.927 1951.037s8.634-.145 8.631 8.818-8.631 8.783-8.631 8.783" class="cls-3" transform="rotate(180 -916.112 2067.338)"/>
            <path id="Path_1657-3" d="M-618.927 1951.037s8.634-.145 8.631 8.818-8.631 8.783-8.631 8.783" class="cls-3" transform="rotate(30 -1316.7 1033.96)"/>
            <path id="Path_1648-3" d="M-618.927 1951.037s8.634-.145 8.631 8.818-8.631 8.783-8.631 8.783" class="cls-3" transform="rotate(-90 -745.612 2255.838)"/>
            <path id="Path_1658-3" d="M-571.3 1949.637s-2.458 8.792 4.656 8.842 15.576 0 15.576 0" class="cls-3" transform="translate(-597 168)"/>
            <path id="Path_1649-3" d="M-571.3 1949.637s-2.458 8.792 4.656 8.842 15.576 0 15.576 0" class="cls-3" transform="translate(-441 170)"/>
            <path id="Path_1662-3" d="M-571.3 1949.637s-2.458 8.792 4.656 8.842 15.576 0 15.576 0" class="cls-3" transform="translate(-469 274)"/>
            <path id="Path_1659-3" d="M-571.3 1949.637s-2.458 8.792 4.656 8.842 15.576 0 15.576 0" class="cls-3" transform="rotate(180 -854.889 2053.57)"/>
            <path id="Path_1660-3" d="M-571.3 1949.637s-2.458 8.792 4.656 8.842 15.576 0 15.576 0" class="cls-3" transform="rotate(180 -847.889 2081.57)"/>
            <path id="Path_1650-3" d="M-571.3 1949.637s-2.458 8.792 4.656 8.842 15.576 0 15.576 0" class="cls-3" transform="rotate(180 -801.389 2060.07)"/>
            <path id="Path_1651-3" d="M-571.3 1949.637s-2.458 8.792 4.656 8.842 15.576 0 15.576 0" class="cls-3" transform="rotate(-90 -735.388 2296.07)"/>
            <path id="Path_1652-3" d="M-571.3 1949.637s-2.458 8.792 4.656 8.842 15.576 0 15.576 0" class="cls-3" transform="rotate(-90 -670.888 2312.57)"/>
            <path id="Path_1663-3" d="M-571.3 1949.637s-2.458 8.792 4.656 8.842 15.576 0 15.576 0" class="cls-3" transform="rotate(-90 -776.888 2369.57)"/>
            <path id="Path_1653-3" d="M-571.3 1949.637s-2.458 8.792 4.656 8.842 15.576 0 15.576 0" class="cls-3" transform="rotate(90 -943.889 1808.57)"/>
            <path id="Path_1664-3" d="M-571.3 1949.637s-2.458 8.792 4.656 8.842 15.576 0 15.576 0" class="cls-3" transform="rotate(90 -1009.889 1775.57)"/>
        </g>
        <g transform="translate(1476.458 -1981.239)">
            <path id="Path_1665-4" d="M-618.927 1951.037s8.634-.145 8.631 8.818-8.631 8.783-8.631 8.783" class="cls-3" transform="translate(-597 167)"/>
            <path id="Path_1667-4" d="M-618.927 1951.037s8.634-.145 8.631 8.818-8.631 8.783-8.631 8.783" class="cls-3" transform="translate(-606 265)"/>
            <path id="Path_1654-4" d="M-618.927 1951.037s8.634-.145 8.631 8.818-8.631 8.783-8.631 8.783" class="cls-3" transform="translate(-461 267)"/>
            <path id="Path_1666-4" d="M-618.927 1951.037s8.634-.145 8.631 8.818-8.631 8.783-8.631 8.783" class="cls-3" transform="rotate(-90 -727.612 2341.838)"/>
            <path id="Path_1655-4" d="M-618.927 1951.037s8.634-.145 8.631 8.818-8.631 8.783-8.631 8.783" class="cls-3" transform="rotate(-90 -762.112 2325.338)"/>
            <path id="Path_1643-4" d="M-618.927 1951.037s8.634-.145 8.631 8.818-8.631 8.783-8.631 8.783" class="cls-3" transform="rotate(-90 -693.612 2262.838)"/>
            <path id="Path_1644-4" d="M-618.927 1951.037s8.634-.145 8.631 8.818-8.631 8.783-8.631 8.783" class="cls-3" transform="rotate(90 -907.612 1860.838)"/>
            <path id="Path_1645-4" d="M-618.927 1951.037s8.634-.145 8.631 8.818-8.631 8.783-8.631 8.783" class="cls-3" transform="rotate(90 -947.612 1825.838)"/>
            <path id="Path_1661-4" d="M-618.927 1951.037s8.634-.145 8.631 8.818-8.631 8.783-8.631 8.783" class="cls-3" transform="rotate(90 -1019.612 1821.838)"/>
            <path id="Path_1646-4" d="M-618.927 1951.037s8.634-.145 8.631 8.818-8.631 8.783-8.631 8.783" class="cls-3" transform="rotate(180 -837.612 2075.338)"/>
            <path id="Path_1656-4" d="M-618.927 1951.037s8.634-.145 8.631 8.818-8.631 8.783-8.631 8.783" class="cls-3" transform="rotate(180 -805.612 2093.338)"/>
            <path id="Path_1647-4" d="M-618.927 1951.037s8.634-.145 8.631 8.818-8.631 8.783-8.631 8.783" class="cls-3" transform="rotate(180 -865.612 2045.838)"/>
            <path id="Path_1668-4" d="M-618.927 1951.037s8.634-.145 8.631 8.818-8.631 8.783-8.631 8.783" class="cls-3" transform="rotate(180 -916.112 2067.338)"/>
            <path id="Path_1657-4" d="M-618.927 1951.037s8.634-.145 8.631 8.818-8.631 8.783-8.631 8.783" class="cls-3" transform="rotate(30 -1316.7 1033.96)"/>
            <path id="Path_1648-4" d="M-618.927 1951.037s8.634-.145 8.631 8.818-8.631 8.783-8.631 8.783" class="cls-3" transform="rotate(-90 -745.612 2255.838)"/>
            <path id="Path_1658-4" d="M-571.3 1949.637s-2.458 8.792 4.656 8.842 15.576 0 15.576 0" class="cls-3" transform="translate(-597 168)"/>
            <path id="Path_1649-4" d="M-571.3 1949.637s-2.458 8.792 4.656 8.842 15.576 0 15.576 0" class="cls-3" transform="translate(-441 170)"/>
            <path id="Path_1662-4" d="M-571.3 1949.637s-2.458 8.792 4.656 8.842 15.576 0 15.576 0" class="cls-3" transform="translate(-469 274)"/>
            <path id="Path_1659-4" d="M-571.3 1949.637s-2.458 8.792 4.656 8.842 15.576 0 15.576 0" class="cls-3" transform="rotate(180 -854.889 2053.57)"/>
            <path id="Path_1660-4" d="M-571.3 1949.637s-2.458 8.792 4.656 8.842 15.576 0 15.576 0" class="cls-3" transform="rotate(180 -847.889 2081.57)"/>
            <path id="Path_1650-4" d="M-571.3 1949.637s-2.458 8.792 4.656 8.842 15.576 0 15.576 0" class="cls-3" transform="rotate(180 -801.389 2060.07)"/>
            <path id="Path_1651-4" d="M-571.3 1949.637s-2.458 8.792 4.656 8.842 15.576 0 15.576 0" class="cls-3" transform="rotate(-90 -735.388 2296.07)"/>
            <path id="Path_1652-4" d="M-571.3 1949.637s-2.458 8.792 4.656 8.842 15.576 0 15.576 0" class="cls-3" transform="rotate(-90 -670.888 2312.57)"/>
            <path id="Path_1663-4" d="M-571.3 1949.637s-2.458 8.792 4.656 8.842 15.576 0 15.576 0" class="cls-3" transform="rotate(-90 -776.888 2369.57)"/>
            <path id="Path_1653-4" d="M-571.3 1949.637s-2.458 8.792 4.656 8.842 15.576 0 15.576 0" class="cls-3" transform="rotate(90 -943.889 1808.57)"/>
            <path id="Path_1664-4" d="M-571.3 1949.637s-2.458 8.792 4.656 8.842 15.576 0 15.576 0" class="cls-3" transform="rotate(90 -1009.889 1775.57)"/>
        </g>
        <g transform="translate(1226.458 -1852.239)">
            <path id="Path_1665-5" d="M-618.927 1951.037s8.634-.145 8.631 8.818-8.631 8.783-8.631 8.783" class="cls-3" transform="translate(-597 167)"/>
            <path id="Path_1667-5" d="M-618.927 1951.037s8.634-.145 8.631 8.818-8.631 8.783-8.631 8.783" class="cls-3" transform="translate(-606 265)"/>
            <path id="Path_1654-5" d="M-618.927 1951.037s8.634-.145 8.631 8.818-8.631 8.783-8.631 8.783" class="cls-3" transform="translate(-461 267)"/>
            <path id="Path_1666-5" d="M-618.927 1951.037s8.634-.145 8.631 8.818-8.631 8.783-8.631 8.783" class="cls-3" transform="rotate(-90 -727.612 2341.838)"/>
            <path id="Path_1655-5" d="M-618.927 1951.037s8.634-.145 8.631 8.818-8.631 8.783-8.631 8.783" class="cls-3" transform="rotate(-90 -762.112 2325.338)"/>
            <path id="Path_1643-5" d="M-618.927 1951.037s8.634-.145 8.631 8.818-8.631 8.783-8.631 8.783" class="cls-3" transform="rotate(-90 -693.612 2262.838)"/>
            <path id="Path_1644-5" d="M-618.927 1951.037s8.634-.145 8.631 8.818-8.631 8.783-8.631 8.783" class="cls-3" transform="rotate(90 -907.612 1860.838)"/>
            <path id="Path_1645-5" d="M-618.927 1951.037s8.634-.145 8.631 8.818-8.631 8.783-8.631 8.783" class="cls-3" transform="rotate(90 -947.612 1825.838)"/>
            <path id="Path_1661-5" d="M-618.927 1951.037s8.634-.145 8.631 8.818-8.631 8.783-8.631 8.783" class="cls-3" transform="rotate(90 -1019.612 1821.838)"/>
            <path id="Path_1646-5" d="M-618.927 1951.037s8.634-.145 8.631 8.818-8.631 8.783-8.631 8.783" class="cls-3" transform="rotate(180 -837.612 2075.338)"/>
            <path id="Path_1656-5" d="M-618.927 1951.037s8.634-.145 8.631 8.818-8.631 8.783-8.631 8.783" class="cls-3" transform="rotate(180 -805.612 2093.338)"/>
            <path id="Path_1647-5" d="M-618.927 1951.037s8.634-.145 8.631 8.818-8.631 8.783-8.631 8.783" class="cls-3" transform="rotate(180 -865.612 2045.838)"/>
            <path id="Path_1668-5" d="M-618.927 1951.037s8.634-.145 8.631 8.818-8.631 8.783-8.631 8.783" class="cls-3" transform="rotate(180 -916.112 2067.338)"/>
            <path id="Path_1657-5" d="M-618.927 1951.037s8.634-.145 8.631 8.818-8.631 8.783-8.631 8.783" class="cls-3" transform="rotate(30 -1316.7 1033.96)"/>
            <path id="Path_1648-5" d="M-618.927 1951.037s8.634-.145 8.631 8.818-8.631 8.783-8.631 8.783" class="cls-3" transform="rotate(-90 -745.612 2255.838)"/>
            <path id="Path_1658-5" d="M-571.3 1949.637s-2.458 8.792 4.656 8.842 15.576 0 15.576 0" class="cls-3" transform="translate(-597 168)"/>
            <path id="Path_1649-5" d="M-571.3 1949.637s-2.458 8.792 4.656 8.842 15.576 0 15.576 0" class="cls-3" transform="translate(-441 170)"/>
            <path id="Path_1662-5" d="M-571.3 1949.637s-2.458 8.792 4.656 8.842 15.576 0 15.576 0" class="cls-3" transform="translate(-469 274)"/>
            <path id="Path_1659-5" d="M-571.3 1949.637s-2.458 8.792 4.656 8.842 15.576 0 15.576 0" class="cls-3" transform="rotate(180 -854.889 2053.57)"/>
            <path id="Path_1660-5" d="M-571.3 1949.637s-2.458 8.792 4.656 8.842 15.576 0 15.576 0" class="cls-3" transform="rotate(180 -847.889 2081.57)"/>
            <path id="Path_1650-5" d="M-571.3 1949.637s-2.458 8.792 4.656 8.842 15.576 0 15.576 0" class="cls-3" transform="rotate(180 -801.389 2060.07)"/>
            <path id="Path_1651-5" d="M-571.3 1949.637s-2.458 8.792 4.656 8.842 15.576 0 15.576 0" class="cls-3" transform="rotate(-90 -735.388 2296.07)"/>
            <path id="Path_1652-5" d="M-571.3 1949.637s-2.458 8.792 4.656 8.842 15.576 0 15.576 0" class="cls-3" transform="rotate(-90 -670.888 2312.57)"/>
            <path id="Path_1663-5" d="M-571.3 1949.637s-2.458 8.792 4.656 8.842 15.576 0 15.576 0" class="cls-3" transform="rotate(-90 -776.888 2369.57)"/>
            <path id="Path_1653-5" d="M-571.3 1949.637s-2.458 8.792 4.656 8.842 15.576 0 15.576 0" class="cls-3" transform="rotate(90 -943.889 1808.57)"/>
            <path id="Path_1664-5" d="M-571.3 1949.637s-2.458 8.792 4.656 8.842 15.576 0 15.576 0" class="cls-3" transform="rotate(90 -1009.889 1775.57)"/>
        </g>
        <g transform="translate(1476.458 -1852.239)">
            <path id="Path_1665-6" d="M-618.927 1951.037s8.634-.145 8.631 8.818-8.631 8.783-8.631 8.783" class="cls-3" transform="translate(-597 167)"/>
            <path id="Path_1667-6" d="M-618.927 1951.037s8.634-.145 8.631 8.818-8.631 8.783-8.631 8.783" class="cls-3" transform="translate(-606 265)"/>
            <path id="Path_1654-6" d="M-618.927 1951.037s8.634-.145 8.631 8.818-8.631 8.783-8.631 8.783" class="cls-3" transform="translate(-461 267)"/>
            <path id="Path_1666-6" d="M-618.927 1951.037s8.634-.145 8.631 8.818-8.631 8.783-8.631 8.783" class="cls-3" transform="rotate(-90 -727.612 2341.838)"/>
            <path id="Path_1655-6" d="M-618.927 1951.037s8.634-.145 8.631 8.818-8.631 8.783-8.631 8.783" class="cls-3" transform="rotate(-90 -762.112 2325.338)"/>
            <path id="Path_1643-6" d="M-618.927 1951.037s8.634-.145 8.631 8.818-8.631 8.783-8.631 8.783" class="cls-3" transform="rotate(-90 -693.612 2262.838)"/>
            <path id="Path_1644-6" d="M-618.927 1951.037s8.634-.145 8.631 8.818-8.631 8.783-8.631 8.783" class="cls-3" transform="rotate(90 -907.612 1860.838)"/>
            <path id="Path_1645-6" d="M-618.927 1951.037s8.634-.145 8.631 8.818-8.631 8.783-8.631 8.783" class="cls-3" transform="rotate(90 -947.612 1825.838)"/>
            <path id="Path_1661-6" d="M-618.927 1951.037s8.634-.145 8.631 8.818-8.631 8.783-8.631 8.783" class="cls-3" transform="rotate(90 -1019.612 1821.838)"/>
            <path id="Path_1646-6" d="M-618.927 1951.037s8.634-.145 8.631 8.818-8.631 8.783-8.631 8.783" class="cls-3" transform="rotate(180 -837.612 2075.338)"/>
            <path id="Path_1656-6" d="M-618.927 1951.037s8.634-.145 8.631 8.818-8.631 8.783-8.631 8.783" class="cls-3" transform="rotate(180 -805.612 2093.338)"/>
            <path id="Path_1647-6" d="M-618.927 1951.037s8.634-.145 8.631 8.818-8.631 8.783-8.631 8.783" class="cls-3" transform="rotate(180 -865.612 2045.838)"/>
            <path id="Path_1668-6" d="M-618.927 1951.037s8.634-.145 8.631 8.818-8.631 8.783-8.631 8.783" class="cls-3" transform="rotate(180 -916.112 2067.338)"/>
            <path id="Path_1657-6" d="M-618.927 1951.037s8.634-.145 8.631 8.818-8.631 8.783-8.631 8.783" class="cls-3" transform="rotate(30 -1316.7 1033.96)"/>
            <path id="Path_1648-6" d="M-618.927 1951.037s8.634-.145 8.631 8.818-8.631 8.783-8.631 8.783" class="cls-3" transform="rotate(-90 -745.612 2255.838)"/>
            <path id="Path_1658-6" d="M-571.3 1949.637s-2.458 8.792 4.656 8.842 15.576 0 15.576 0" class="cls-3" transform="translate(-597 168)"/>
            <path id="Path_1649-6" d="M-571.3 1949.637s-2.458 8.792 4.656 8.842 15.576 0 15.576 0" class="cls-3" transform="translate(-441 170)"/>
            <path id="Path_1662-6" d="M-571.3 1949.637s-2.458 8.792 4.656 8.842 15.576 0 15.576 0" class="cls-3" transform="translate(-469 274)"/>
            <path id="Path_1659-6" d="M-571.3 1949.637s-2.458 8.792 4.656 8.842 15.576 0 15.576 0" class="cls-3" transform="rotate(180 -854.889 2053.57)"/>
            <path id="Path_1660-6" d="M-571.3 1949.637s-2.458 8.792 4.656 8.842 15.576 0 15.576 0" class="cls-3" transform="rotate(180 -847.889 2081.57)"/>
            <path id="Path_1650-6" d="M-571.3 1949.637s-2.458 8.792 4.656 8.842 15.576 0 15.576 0" class="cls-3" transform="rotate(180 -801.389 2060.07)"/>
            <path id="Path_1651-6" d="M-571.3 1949.637s-2.458 8.792 4.656 8.842 15.576 0 15.576 0" class="cls-3" transform="rotate(-90 -735.388 2296.07)"/>
            <path id="Path_1652-6" d="M-571.3 1949.637s-2.458 8.792 4.656 8.842 15.576 0 15.576 0" class="cls-3" transform="rotate(-90 -670.888 2312.57)"/>
            <path id="Path_1663-6" d="M-571.3 1949.637s-2.458 8.792 4.656 8.842 15.576 0 15.576 0" class="cls-3" transform="rotate(-90 -776.888 2369.57)"/>
            <path id="Path_1653-6" d="M-571.3 1949.637s-2.458 8.792 4.656 8.842 15.576 0 15.576 0" class="cls-3" transform="rotate(90 -943.889 1808.57)"/>
            <path id="Path_1664-6" d="M-571.3 1949.637s-2.458 8.792 4.656 8.842 15.576 0 15.576 0" class="cls-3" transform="rotate(90 -1009.889 1775.57)"/>
        </g>
        <g transform="translate(1226.458 -1723.239)">
            <path id="Path_1665-7" d="M-618.927 1951.037s8.634-.145 8.631 8.818-8.631 8.783-8.631 8.783" class="cls-3" transform="translate(-597 167)"/>
            <path id="Path_1667-7" d="M-618.927 1951.037s8.634-.145 8.631 8.818-8.631 8.783-8.631 8.783" class="cls-3" transform="translate(-606 265)"/>
            <path id="Path_1654-7" d="M-618.927 1951.037s8.634-.145 8.631 8.818-8.631 8.783-8.631 8.783" class="cls-3" transform="translate(-461 267)"/>
            <path id="Path_1666-7" d="M-618.927 1951.037s8.634-.145 8.631 8.818-8.631 8.783-8.631 8.783" class="cls-3" transform="rotate(-90 -727.612 2341.838)"/>
            <path id="Path_1655-7" d="M-618.927 1951.037s8.634-.145 8.631 8.818-8.631 8.783-8.631 8.783" class="cls-3" transform="rotate(-90 -762.112 2325.338)"/>
            <path id="Path_1643-7" d="M-618.927 1951.037s8.634-.145 8.631 8.818-8.631 8.783-8.631 8.783" class="cls-3" transform="rotate(-90 -693.612 2262.838)"/>
            <path id="Path_1644-7" d="M-618.927 1951.037s8.634-.145 8.631 8.818-8.631 8.783-8.631 8.783" class="cls-3" transform="rotate(90 -907.612 1860.838)"/>
            <path id="Path_1645-7" d="M-618.927 1951.037s8.634-.145 8.631 8.818-8.631 8.783-8.631 8.783" class="cls-3" transform="rotate(90 -947.612 1825.838)"/>
            <path id="Path_1661-7" d="M-618.927 1951.037s8.634-.145 8.631 8.818-8.631 8.783-8.631 8.783" class="cls-3" transform="rotate(90 -1019.612 1821.838)"/>
            <path id="Path_1646-7" d="M-618.927 1951.037s8.634-.145 8.631 8.818-8.631 8.783-8.631 8.783" class="cls-3" transform="rotate(180 -837.612 2075.338)"/>
            <path id="Path_1656-7" d="M-618.927 1951.037s8.634-.145 8.631 8.818-8.631 8.783-8.631 8.783" class="cls-3" transform="rotate(180 -805.612 2093.338)"/>
            <path id="Path_1647-7" d="M-618.927 1951.037s8.634-.145 8.631 8.818-8.631 8.783-8.631 8.783" class="cls-3" transform="rotate(180 -865.612 2045.838)"/>
            <path id="Path_1668-7" d="M-618.927 1951.037s8.634-.145 8.631 8.818-8.631 8.783-8.631 8.783" class="cls-3" transform="rotate(180 -916.112 2067.338)"/>
            <path id="Path_1657-7" d="M-618.927 1951.037s8.634-.145 8.631 8.818-8.631 8.783-8.631 8.783" class="cls-3" transform="rotate(30 -1316.7 1033.96)"/>
            <path id="Path_1648-7" d="M-618.927 1951.037s8.634-.145 8.631 8.818-8.631 8.783-8.631 8.783" class="cls-3" transform="rotate(-90 -745.612 2255.838)"/>
            <path id="Path_1658-7" d="M-571.3 1949.637s-2.458 8.792 4.656 8.842 15.576 0 15.576 0" class="cls-3" transform="translate(-597 168)"/>
            <path id="Path_1649-7" d="M-571.3 1949.637s-2.458 8.792 4.656 8.842 15.576 0 15.576 0" class="cls-3" transform="translate(-441 170)"/>
            <path id="Path_1662-7" d="M-571.3 1949.637s-2.458 8.792 4.656 8.842 15.576 0 15.576 0" class="cls-3" transform="translate(-469 274)"/>
            <path id="Path_1659-7" d="M-571.3 1949.637s-2.458 8.792 4.656 8.842 15.576 0 15.576 0" class="cls-3" transform="rotate(180 -854.889 2053.57)"/>
            <path id="Path_1660-7" d="M-571.3 1949.637s-2.458 8.792 4.656 8.842 15.576 0 15.576 0" class="cls-3" transform="rotate(180 -847.889 2081.57)"/>
            <path id="Path_1650-7" d="M-571.3 1949.637s-2.458 8.792 4.656 8.842 15.576 0 15.576 0" class="cls-3" transform="rotate(180 -801.389 2060.07)"/>
            <path id="Path_1651-7" d="M-571.3 1949.637s-2.458 8.792 4.656 8.842 15.576 0 15.576 0" class="cls-3" transform="rotate(-90 -735.388 2296.07)"/>
            <path id="Path_1652-7" d="M-571.3 1949.637s-2.458 8.792 4.656 8.842 15.576 0 15.576 0" class="cls-3" transform="rotate(-90 -670.888 2312.57)"/>
            <path id="Path_1663-7" d="M-571.3 1949.637s-2.458 8.792 4.656 8.842 15.576 0 15.576 0" class="cls-3" transform="rotate(-90 -776.888 2369.57)"/>
            <path id="Path_1653-7" d="M-571.3 1949.637s-2.458 8.792 4.656 8.842 15.576 0 15.576 0" class="cls-3" transform="rotate(90 -943.889 1808.57)"/>
            <path id="Path_1664-7" d="M-571.3 1949.637s-2.458 8.792 4.656 8.842 15.576 0 15.576 0" class="cls-3" transform="rotate(90 -1009.889 1775.57)"/>
        </g>
        <g transform="translate(1476.458 -1723.239)">
            <path id="Path_1665-8" d="M-618.927 1951.037s8.634-.145 8.631 8.818-8.631 8.783-8.631 8.783" class="cls-3" transform="translate(-597 167)"/>
            <path id="Path_1667-8" d="M-618.927 1951.037s8.634-.145 8.631 8.818-8.631 8.783-8.631 8.783" class="cls-3" transform="translate(-606 265)"/>
            <path id="Path_1654-8" d="M-618.927 1951.037s8.634-.145 8.631 8.818-8.631 8.783-8.631 8.783" class="cls-3" transform="translate(-461 267)"/>
            <path id="Path_1666-8" d="M-618.927 1951.037s8.634-.145 8.631 8.818-8.631 8.783-8.631 8.783" class="cls-3" transform="rotate(-90 -727.612 2341.838)"/>
            <path id="Path_1655-8" d="M-618.927 1951.037s8.634-.145 8.631 8.818-8.631 8.783-8.631 8.783" class="cls-3" transform="rotate(-90 -762.112 2325.338)"/>
            <path id="Path_1643-8" d="M-618.927 1951.037s8.634-.145 8.631 8.818-8.631 8.783-8.631 8.783" class="cls-3" transform="rotate(-90 -693.612 2262.838)"/>
            <path id="Path_1644-8" d="M-618.927 1951.037s8.634-.145 8.631 8.818-8.631 8.783-8.631 8.783" class="cls-3" transform="rotate(90 -907.612 1860.838)"/>
            <path id="Path_1645-8" d="M-618.927 1951.037s8.634-.145 8.631 8.818-8.631 8.783-8.631 8.783" class="cls-3" transform="rotate(90 -947.612 1825.838)"/>
            <path id="Path_1661-8" d="M-618.927 1951.037s8.634-.145 8.631 8.818-8.631 8.783-8.631 8.783" class="cls-3" transform="rotate(90 -1019.612 1821.838)"/>
            <path id="Path_1646-8" d="M-618.927 1951.037s8.634-.145 8.631 8.818-8.631 8.783-8.631 8.783" class="cls-3" transform="rotate(180 -837.612 2075.338)"/>
            <path id="Path_1656-8" d="M-618.927 1951.037s8.634-.145 8.631 8.818-8.631 8.783-8.631 8.783" class="cls-3" transform="rotate(180 -805.612 2093.338)"/>
            <path id="Path_1647-8" d="M-618.927 1951.037s8.634-.145 8.631 8.818-8.631 8.783-8.631 8.783" class="cls-3" transform="rotate(180 -865.612 2045.838)"/>
            <path id="Path_1668-8" d="M-618.927 1951.037s8.634-.145 8.631 8.818-8.631 8.783-8.631 8.783" class="cls-3" transform="rotate(180 -916.112 2067.338)"/>
            <path id="Path_1657-8" d="M-618.927 1951.037s8.634-.145 8.631 8.818-8.631 8.783-8.631 8.783" class="cls-3" transform="rotate(30 -1316.7 1033.96)"/>
            <path id="Path_1648-8" d="M-618.927 1951.037s8.634-.145 8.631 8.818-8.631 8.783-8.631 8.783" class="cls-3" transform="rotate(-90 -745.612 2255.838)"/>
            <path id="Path_1658-8" d="M-571.3 1949.637s-2.458 8.792 4.656 8.842 15.576 0 15.576 0" class="cls-3" transform="translate(-597 168)"/>
            <path id="Path_1649-8" d="M-571.3 1949.637s-2.458 8.792 4.656 8.842 15.576 0 15.576 0" class="cls-3" transform="translate(-441 170)"/>
            <path id="Path_1662-8" d="M-571.3 1949.637s-2.458 8.792 4.656 8.842 15.576 0 15.576 0" class="cls-3" transform="translate(-469 274)"/>
            <path id="Path_1659-8" d="M-571.3 1949.637s-2.458 8.792 4.656 8.842 15.576 0 15.576 0" class="cls-3" transform="rotate(180 -854.889 2053.57)"/>
            <path id="Path_1660-8" d="M-571.3 1949.637s-2.458 8.792 4.656 8.842 15.576 0 15.576 0" class="cls-3" transform="rotate(180 -847.889 2081.57)"/>
            <path id="Path_1650-8" d="M-571.3 1949.637s-2.458 8.792 4.656 8.842 15.576 0 15.576 0" class="cls-3" transform="rotate(180 -801.389 2060.07)"/>
            <path id="Path_1651-8" d="M-571.3 1949.637s-2.458 8.792 4.656 8.842 15.576 0 15.576 0" class="cls-3" transform="rotate(-90 -735.388 2296.07)"/>
            <path id="Path_1652-8" d="M-571.3 1949.637s-2.458 8.792 4.656 8.842 15.576 0 15.576 0" class="cls-3" transform="rotate(-90 -670.888 2312.57)"/>
            <path id="Path_1663-8" d="M-571.3 1949.637s-2.458 8.792 4.656 8.842 15.576 0 15.576 0" class="cls-3" transform="rotate(-90 -776.888 2369.57)"/>
            <path id="Path_1653-8" d="M-571.3 1949.637s-2.458 8.792 4.656 8.842 15.576 0 15.576 0" class="cls-3" transform="rotate(90 -943.889 1808.57)"/>
            <path id="Path_1664-8" d="M-571.3 1949.637s-2.458 8.792 4.656 8.842 15.576 0 15.576 0" class="cls-3" transform="rotate(90 -1009.889 1775.57)"/>
        </g>
        <g transform="translate(1226.458 -1594.239)">
            <path id="Path_1665-9" d="M-618.927 1951.037s8.634-.145 8.631 8.818-8.631 8.783-8.631 8.783" class="cls-3" transform="translate(-597 167)"/>
            <path id="Path_1667-9" d="M-618.927 1951.037s8.634-.145 8.631 8.818-8.631 8.783-8.631 8.783" class="cls-3" transform="translate(-606 265)"/>
            <path id="Path_1654-9" d="M-618.927 1951.037s8.634-.145 8.631 8.818-8.631 8.783-8.631 8.783" class="cls-3" transform="translate(-461 267)"/>
            <path id="Path_1666-9" d="M-618.927 1951.037s8.634-.145 8.631 8.818-8.631 8.783-8.631 8.783" class="cls-3" transform="rotate(-90 -727.612 2341.838)"/>
            <path id="Path_1655-9" d="M-618.927 1951.037s8.634-.145 8.631 8.818-8.631 8.783-8.631 8.783" class="cls-3" transform="rotate(-90 -762.112 2325.338)"/>
            <path id="Path_1643-9" d="M-618.927 1951.037s8.634-.145 8.631 8.818-8.631 8.783-8.631 8.783" class="cls-3" transform="rotate(-90 -693.612 2262.838)"/>
            <path id="Path_1644-9" d="M-618.927 1951.037s8.634-.145 8.631 8.818-8.631 8.783-8.631 8.783" class="cls-3" transform="rotate(90 -907.612 1860.838)"/>
            <path id="Path_1645-9" d="M-618.927 1951.037s8.634-.145 8.631 8.818-8.631 8.783-8.631 8.783" class="cls-3" transform="rotate(90 -947.612 1825.838)"/>
            <path id="Path_1661-9" d="M-618.927 1951.037s8.634-.145 8.631 8.818-8.631 8.783-8.631 8.783" class="cls-3" transform="rotate(90 -1019.612 1821.838)"/>
            <path id="Path_1646-9" d="M-618.927 1951.037s8.634-.145 8.631 8.818-8.631 8.783-8.631 8.783" class="cls-3" transform="rotate(180 -837.612 2075.338)"/>
            <path id="Path_1656-9" d="M-618.927 1951.037s8.634-.145 8.631 8.818-8.631 8.783-8.631 8.783" class="cls-3" transform="rotate(180 -805.612 2093.338)"/>
            <path id="Path_1647-9" d="M-618.927 1951.037s8.634-.145 8.631 8.818-8.631 8.783-8.631 8.783" class="cls-3" transform="rotate(180 -865.612 2045.838)"/>
            <path id="Path_1668-9" d="M-618.927 1951.037s8.634-.145 8.631 8.818-8.631 8.783-8.631 8.783" class="cls-3" transform="rotate(180 -916.112 2067.338)"/>
            <path id="Path_1657-9" d="M-618.927 1951.037s8.634-.145 8.631 8.818-8.631 8.783-8.631 8.783" class="cls-3" transform="rotate(30 -1316.7 1033.96)"/>
            <path id="Path_1648-9" d="M-618.927 1951.037s8.634-.145 8.631 8.818-8.631 8.783-8.631 8.783" class="cls-3" transform="rotate(-90 -745.612 2255.838)"/>
            <path id="Path_1658-9" d="M-571.3 1949.637s-2.458 8.792 4.656 8.842 15.576 0 15.576 0" class="cls-3" transform="translate(-597 168)"/>
            <path id="Path_1649-9" d="M-571.3 1949.637s-2.458 8.792 4.656 8.842 15.576 0 15.576 0" class="cls-3" transform="translate(-441 170)"/>
            <path id="Path_1662-9" d="M-571.3 1949.637s-2.458 8.792 4.656 8.842 15.576 0 15.576 0" class="cls-3" transform="translate(-469 274)"/>
            <path id="Path_1659-9" d="M-571.3 1949.637s-2.458 8.792 4.656 8.842 15.576 0 15.576 0" class="cls-3" transform="rotate(180 -854.889 2053.57)"/>
            <path id="Path_1660-9" d="M-571.3 1949.637s-2.458 8.792 4.656 8.842 15.576 0 15.576 0" class="cls-3" transform="rotate(180 -847.889 2081.57)"/>
            <path id="Path_1650-9" d="M-571.3 1949.637s-2.458 8.792 4.656 8.842 15.576 0 15.576 0" class="cls-3" transform="rotate(180 -801.389 2060.07)"/>
            <path id="Path_1651-9" d="M-571.3 1949.637s-2.458 8.792 4.656 8.842 15.576 0 15.576 0" class="cls-3" transform="rotate(-90 -735.388 2296.07)"/>
            <path id="Path_1652-9" d="M-571.3 1949.637s-2.458 8.792 4.656 8.842 15.576 0 15.576 0" class="cls-3" transform="rotate(-90 -670.888 2312.57)"/>
            <path id="Path_1663-9" d="M-571.3 1949.637s-2.458 8.792 4.656 8.842 15.576 0 15.576 0" class="cls-3" transform="rotate(-90 -776.888 2369.57)"/>
            <path id="Path_1653-9" d="M-571.3 1949.637s-2.458 8.792 4.656 8.842 15.576 0 15.576 0" class="cls-3" transform="rotate(90 -943.889 1808.57)"/>
            <path id="Path_1664-9" d="M-571.3 1949.637s-2.458 8.792 4.656 8.842 15.576 0 15.576 0" class="cls-3" transform="rotate(90 -1009.889 1775.57)"/>
        </g>
        <g transform="translate(1476.458 -1594.239)">
            <path id="Path_1665-10" d="M-618.927 1951.037s8.634-.145 8.631 8.818-8.631 8.783-8.631 8.783" class="cls-3" transform="translate(-597 167)"/>
            <path id="Path_1667-10" d="M-618.927 1951.037s8.634-.145 8.631 8.818-8.631 8.783-8.631 8.783" class="cls-3" transform="translate(-606 265)"/>
            <path id="Path_1654-10" d="M-618.927 1951.037s8.634-.145 8.631 8.818-8.631 8.783-8.631 8.783" class="cls-3" transform="translate(-461 267)"/>
            <path id="Path_1666-10" d="M-618.927 1951.037s8.634-.145 8.631 8.818-8.631 8.783-8.631 8.783" class="cls-3" transform="rotate(-90 -727.612 2341.838)"/>
            <path id="Path_1655-10" d="M-618.927 1951.037s8.634-.145 8.631 8.818-8.631 8.783-8.631 8.783" class="cls-3" transform="rotate(-90 -762.112 2325.338)"/>
            <path id="Path_1643-10" d="M-618.927 1951.037s8.634-.145 8.631 8.818-8.631 8.783-8.631 8.783" class="cls-3" transform="rotate(-90 -693.612 2262.838)"/>
            <path id="Path_1644-10" d="M-618.927 1951.037s8.634-.145 8.631 8.818-8.631 8.783-8.631 8.783" class="cls-3" transform="rotate(90 -907.612 1860.838)"/>
            <path id="Path_1645-10" d="M-618.927 1951.037s8.634-.145 8.631 8.818-8.631 8.783-8.631 8.783" class="cls-3" transform="rotate(90 -947.612 1825.838)"/>
            <path id="Path_1661-10" d="M-618.927 1951.037s8.634-.145 8.631 8.818-8.631 8.783-8.631 8.783" class="cls-3" transform="rotate(90 -1019.612 1821.838)"/>
            <path id="Path_1646-10" d="M-618.927 1951.037s8.634-.145 8.631 8.818-8.631 8.783-8.631 8.783" class="cls-3" transform="rotate(180 -837.612 2075.338)"/>
            <path id="Path_1656-10" d="M-618.927 1951.037s8.634-.145 8.631 8.818-8.631 8.783-8.631 8.783" class="cls-3" transform="rotate(180 -805.612 2093.338)"/>
            <path id="Path_1647-10" d="M-618.927 1951.037s8.634-.145 8.631 8.818-8.631 8.783-8.631 8.783" class="cls-3" transform="rotate(180 -865.612 2045.838)"/>
            <path id="Path_1668-10" d="M-618.927 1951.037s8.634-.145 8.631 8.818-8.631 8.783-8.631 8.783" class="cls-3" transform="rotate(180 -916.112 2067.338)"/>
            <path id="Path_1657-10" d="M-618.927 1951.037s8.634-.145 8.631 8.818-8.631 8.783-8.631 8.783" class="cls-3" transform="rotate(30 -1316.7 1033.96)"/>
            <path id="Path_1648-10" d="M-618.927 1951.037s8.634-.145 8.631 8.818-8.631 8.783-8.631 8.783" class="cls-3" transform="rotate(-90 -745.612 2255.838)"/>
            <path id="Path_1658-10" d="M-571.3 1949.637s-2.458 8.792 4.656 8.842 15.576 0 15.576 0" class="cls-3" transform="translate(-597 168)"/>
            <path id="Path_1649-10" d="M-571.3 1949.637s-2.458 8.792 4.656 8.842 15.576 0 15.576 0" class="cls-3" transform="translate(-441 170)"/>
            <path id="Path_1662-10" d="M-571.3 1949.637s-2.458 8.792 4.656 8.842 15.576 0 15.576 0" class="cls-3" transform="translate(-469 274)"/>
            <path id="Path_1659-10" d="M-571.3 1949.637s-2.458 8.792 4.656 8.842 15.576 0 15.576 0" class="cls-3" transform="rotate(180 -854.889 2053.57)"/>
            <path id="Path_1660-10" d="M-571.3 1949.637s-2.458 8.792 4.656 8.842 15.576 0 15.576 0" class="cls-3" transform="rotate(180 -847.889 2081.57)"/>
            <path id="Path_1650-10" d="M-571.3 1949.637s-2.458 8.792 4.656 8.842 15.576 0 15.576 0" class="cls-3" transform="rotate(180 -801.389 2060.07)"/>
            <path id="Path_1651-10" d="M-571.3 1949.637s-2.458 8.792 4.656 8.842 15.576 0 15.576 0" class="cls-3" transform="rotate(-90 -735.388 2296.07)"/>
            <path id="Path_1652-10" d="M-571.3 1949.637s-2.458 8.792 4.656 8.842 15.576 0 15.576 0" class="cls-3" transform="rotate(-90 -670.888 2312.57)"/>
            <path id="Path_1663-10" d="M-571.3 1949.637s-2.458 8.792 4.656 8.842 15.576 0 15.576 0" class="cls-3" transform="rotate(-90 -776.888 2369.57)"/>
            <path id="Path_1653-10" d="M-571.3 1949.637s-2.458 8.792 4.656 8.842 15.576 0 15.576 0" class="cls-3" transform="rotate(90 -943.889 1808.57)"/>
            <path id="Path_1664-10" d="M-571.3 1949.637s-2.458 8.792 4.656 8.842 15.576 0 15.576 0" class="cls-3" transform="rotate(90 -1009.889 1775.57)"/>
        </g>
        <g transform="translate(1226.458 -1465.239)">
            <path id="Path_1665-11" d="M-618.927 1951.037s8.634-.145 8.631 8.818-8.631 8.783-8.631 8.783" class="cls-3" transform="translate(-597 167)"/>
            <path id="Path_1667-11" d="M-618.927 1951.037s8.634-.145 8.631 8.818-8.631 8.783-8.631 8.783" class="cls-3" transform="translate(-606 265)"/>
            <path id="Path_1654-11" d="M-618.927 1951.037s8.634-.145 8.631 8.818-8.631 8.783-8.631 8.783" class="cls-3" transform="translate(-461 267)"/>
            <path id="Path_1666-11" d="M-618.927 1951.037s8.634-.145 8.631 8.818-8.631 8.783-8.631 8.783" class="cls-3" transform="rotate(-90 -727.612 2341.838)"/>
            <path id="Path_1655-11" d="M-618.927 1951.037s8.634-.145 8.631 8.818-8.631 8.783-8.631 8.783" class="cls-3" transform="rotate(-90 -762.112 2325.338)"/>
            <path id="Path_1643-11" d="M-618.927 1951.037s8.634-.145 8.631 8.818-8.631 8.783-8.631 8.783" class="cls-3" transform="rotate(-90 -693.612 2262.838)"/>
            <path id="Path_1644-11" d="M-618.927 1951.037s8.634-.145 8.631 8.818-8.631 8.783-8.631 8.783" class="cls-3" transform="rotate(90 -907.612 1860.838)"/>
            <path id="Path_1645-11" d="M-618.927 1951.037s8.634-.145 8.631 8.818-8.631 8.783-8.631 8.783" class="cls-3" transform="rotate(90 -947.612 1825.838)"/>
            <path id="Path_1661-11" d="M-618.927 1951.037s8.634-.145 8.631 8.818-8.631 8.783-8.631 8.783" class="cls-3" transform="rotate(90 -1019.612 1821.838)"/>
            <path id="Path_1646-11" d="M-618.927 1951.037s8.634-.145 8.631 8.818-8.631 8.783-8.631 8.783" class="cls-3" transform="rotate(180 -837.612 2075.338)"/>
            <path id="Path_1656-11" d="M-618.927 1951.037s8.634-.145 8.631 8.818-8.631 8.783-8.631 8.783" class="cls-3" transform="rotate(180 -805.612 2093.338)"/>
            <path id="Path_1647-11" d="M-618.927 1951.037s8.634-.145 8.631 8.818-8.631 8.783-8.631 8.783" class="cls-3" transform="rotate(180 -865.612 2045.838)"/>
            <path id="Path_1668-11" d="M-618.927 1951.037s8.634-.145 8.631 8.818-8.631 8.783-8.631 8.783" class="cls-3" transform="rotate(180 -916.112 2067.338)"/>
            <path id="Path_1657-11" d="M-618.927 1951.037s8.634-.145 8.631 8.818-8.631 8.783-8.631 8.783" class="cls-3" transform="rotate(30 -1316.7 1033.96)"/>
            <path id="Path_1648-11" d="M-618.927 1951.037s8.634-.145 8.631 8.818-8.631 8.783-8.631 8.783" class="cls-3" transform="rotate(-90 -745.612 2255.838)"/>
            <path id="Path_1658-11" d="M-571.3 1949.637s-2.458 8.792 4.656 8.842 15.576 0 15.576 0" class="cls-3" transform="translate(-597 168)"/>
            <path id="Path_1649-11" d="M-571.3 1949.637s-2.458 8.792 4.656 8.842 15.576 0 15.576 0" class="cls-3" transform="translate(-441 170)"/>
            <path id="Path_1662-11" d="M-571.3 1949.637s-2.458 8.792 4.656 8.842 15.576 0 15.576 0" class="cls-3" transform="translate(-469 274)"/>
            <path id="Path_1659-11" d="M-571.3 1949.637s-2.458 8.792 4.656 8.842 15.576 0 15.576 0" class="cls-3" transform="rotate(180 -854.889 2053.57)"/>
            <path id="Path_1660-11" d="M-571.3 1949.637s-2.458 8.792 4.656 8.842 15.576 0 15.576 0" class="cls-3" transform="rotate(180 -847.889 2081.57)"/>
            <path id="Path_1650-11" d="M-571.3 1949.637s-2.458 8.792 4.656 8.842 15.576 0 15.576 0" class="cls-3" transform="rotate(180 -801.389 2060.07)"/>
            <path id="Path_1651-11" d="M-571.3 1949.637s-2.458 8.792 4.656 8.842 15.576 0 15.576 0" class="cls-3" transform="rotate(-90 -735.388 2296.07)"/>
            <path id="Path_1652-11" d="M-571.3 1949.637s-2.458 8.792 4.656 8.842 15.576 0 15.576 0" class="cls-3" transform="rotate(-90 -670.888 2312.57)"/>
            <path id="Path_1663-11" d="M-571.3 1949.637s-2.458 8.792 4.656 8.842 15.576 0 15.576 0" class="cls-3" transform="rotate(-90 -776.888 2369.57)"/>
            <path id="Path_1653-11" d="M-571.3 1949.637s-2.458 8.792 4.656 8.842 15.576 0 15.576 0" class="cls-3" transform="rotate(90 -943.889 1808.57)"/>
            <path id="Path_1664-11" d="M-571.3 1949.637s-2.458 8.792 4.656 8.842 15.576 0 15.576 0" class="cls-3" transform="rotate(90 -1009.889 1775.57)"/>
        </g>
        <g transform="translate(1476.458 -1465.239)">
            <path id="Path_1665-12" d="M-618.927 1951.037s8.634-.145 8.631 8.818-8.631 8.783-8.631 8.783" class="cls-3" transform="translate(-597 167)"/>
            <path id="Path_1667-12" d="M-618.927 1951.037s8.634-.145 8.631 8.818-8.631 8.783-8.631 8.783" class="cls-3" transform="translate(-606 265)"/>
            <path id="Path_1654-12" d="M-618.927 1951.037s8.634-.145 8.631 8.818-8.631 8.783-8.631 8.783" class="cls-3" transform="translate(-461 267)"/>
            <path id="Path_1666-12" d="M-618.927 1951.037s8.634-.145 8.631 8.818-8.631 8.783-8.631 8.783" class="cls-3" transform="rotate(-90 -727.612 2341.838)"/>
            <path id="Path_1655-12" d="M-618.927 1951.037s8.634-.145 8.631 8.818-8.631 8.783-8.631 8.783" class="cls-3" transform="rotate(-90 -762.112 2325.338)"/>
            <path id="Path_1643-12" d="M-618.927 1951.037s8.634-.145 8.631 8.818-8.631 8.783-8.631 8.783" class="cls-3" transform="rotate(-90 -693.612 2262.838)"/>
            <path id="Path_1644-12" d="M-618.927 1951.037s8.634-.145 8.631 8.818-8.631 8.783-8.631 8.783" class="cls-3" transform="rotate(90 -907.612 1860.838)"/>
            <path id="Path_1645-12" d="M-618.927 1951.037s8.634-.145 8.631 8.818-8.631 8.783-8.631 8.783" class="cls-3" transform="rotate(90 -947.612 1825.838)"/>
            <path id="Path_1661-12" d="M-618.927 1951.037s8.634-.145 8.631 8.818-8.631 8.783-8.631 8.783" class="cls-3" transform="rotate(90 -1019.612 1821.838)"/>
            <path id="Path_1646-12" d="M-618.927 1951.037s8.634-.145 8.631 8.818-8.631 8.783-8.631 8.783" class="cls-3" transform="rotate(180 -837.612 2075.338)"/>
            <path id="Path_1656-12" d="M-618.927 1951.037s8.634-.145 8.631 8.818-8.631 8.783-8.631 8.783" class="cls-3" transform="rotate(180 -805.612 2093.338)"/>
            <path id="Path_1647-12" d="M-618.927 1951.037s8.634-.145 8.631 8.818-8.631 8.783-8.631 8.783" class="cls-3" transform="rotate(180 -865.612 2045.838)"/>
            <path id="Path_1668-12" d="M-618.927 1951.037s8.634-.145 8.631 8.818-8.631 8.783-8.631 8.783" class="cls-3" transform="rotate(180 -916.112 2067.338)"/>
            <path id="Path_1657-12" d="M-618.927 1951.037s8.634-.145 8.631 8.818-8.631 8.783-8.631 8.783" class="cls-3" transform="rotate(30 -1316.7 1033.96)"/>
            <path id="Path_1648-12" d="M-618.927 1951.037s8.634-.145 8.631 8.818-8.631 8.783-8.631 8.783" class="cls-3" transform="rotate(-90 -745.612 2255.838)"/>
            <path id="Path_1658-12" d="M-571.3 1949.637s-2.458 8.792 4.656 8.842 15.576 0 15.576 0" class="cls-3" transform="translate(-597 168)"/>
            <path id="Path_1649-12" d="M-571.3 1949.637s-2.458 8.792 4.656 8.842 15.576 0 15.576 0" class="cls-3" transform="translate(-441 170)"/>
            <path id="Path_1662-12" d="M-571.3 1949.637s-2.458 8.792 4.656 8.842 15.576 0 15.576 0" class="cls-3" transform="translate(-469 274)"/>
            <path id="Path_1659-12" d="M-571.3 1949.637s-2.458 8.792 4.656 8.842 15.576 0 15.576 0" class="cls-3" transform="rotate(180 -854.889 2053.57)"/>
            <path id="Path_1660-12" d="M-571.3 1949.637s-2.458 8.792 4.656 8.842 15.576 0 15.576 0" class="cls-3" transform="rotate(180 -847.889 2081.57)"/>
            <path id="Path_1650-12" d="M-571.3 1949.637s-2.458 8.792 4.656 8.842 15.576 0 15.576 0" class="cls-3" transform="rotate(180 -801.389 2060.07)"/>
            <path id="Path_1651-12" d="M-571.3 1949.637s-2.458 8.792 4.656 8.842 15.576 0 15.576 0" class="cls-3" transform="rotate(-90 -735.388 2296.07)"/>
            <path id="Path_1652-12" d="M-571.3 1949.637s-2.458 8.792 4.656 8.842 15.576 0 15.576 0" class="cls-3" transform="rotate(-90 -670.888 2312.57)"/>
            <path id="Path_1663-12" d="M-571.3 1949.637s-2.458 8.792 4.656 8.842 15.576 0 15.576 0" class="cls-3" transform="rotate(-90 -776.888 2369.57)"/>
            <path id="Path_1653-12" d="M-571.3 1949.637s-2.458 8.792 4.656 8.842 15.576 0 15.576 0" class="cls-3" transform="rotate(90 -943.889 1808.57)"/>
            <path id="Path_1664-12" d="M-571.3 1949.637s-2.458 8.792 4.656 8.842 15.576 0 15.576 0" class="cls-3" transform="rotate(90 -1009.889 1775.57)"/>
        </g>
    </g>
</svg>