<svg xmlns="http://www.w3.org/2000/svg" xmlns:xlink="http://www.w3.org/1999/xlink" viewBox="0 0 91.42 158.52"><defs><style>.cls-1{isolation:isolate;}.cls-2,.cls-3,.cls-4{mix-blend-mode:overlay;}.cls-2{fill:url(#linear-gradient);}.cls-3{fill:url(#linear-gradient-2);}.cls-4{fill:url(#linear-gradient-3);}</style><linearGradient id="linear-gradient" x1="13.29" y1="690.13" x2="55.98" y2="690.13" gradientTransform="matrix(1, 0, 0, -1, 0, 706.69)" gradientUnits="userSpaceOnUse"><stop offset="0" stop-color="#fbda61"/><stop offset="1" stop-color="#ff5acd"/></linearGradient><linearGradient id="linear-gradient-2" y1="652.69" x2="72.66" y2="652.69" gradientTransform="matrix(1, 0, 0, -1, 0, 706.69)" gradientUnits="userSpaceOnUse"><stop offset="0" stop-color="#21d4fd"/><stop offset="1" stop-color="#b721ff"/></linearGradient><linearGradient id="linear-gradient-3" x1="28.29" y1="627.43" x2="91.42" y2="627.43" gradientTransform="matrix(1, 0, 0, -1, 0, 706.69)" gradientUnits="userSpaceOnUse"><stop offset="0" stop-color="#08aeea"/><stop offset="1" stop-color="#2af598"/></linearGradient></defs><g class="cls-1"><g id="Layer_2" data-name="Layer 2"><g id="Layer_1-2" data-name="Layer 1"><path class="cls-2" d="M56,0l-.61.69A147.34,147.34,0,0,1,31.78,21.87,146,146,0,0,1,13.29,33.13a130.34,130.34,0,0,0,24-23.4c2.62-3.32,4.93-6.58,7-9.73Z"/><path class="cls-3" d="M72.66,0A185.5,185.5,0,0,1,59.88,38.32,167,167,0,0,1,29.47,83.4,164.93,164.93,0,0,1,0,108C14.17,92.56,37.22,62.77,45.35,19.84A168.89,168.89,0,0,0,47.86.69V0Z"/><path class="cls-4" d="M91.42,0c-.92,30.92-7.48,76.74-35.23,121.9a231.9,231.9,0,0,1-27.9,36.62c10.53-16.05,34.07-56.82,32.07-112-.1-2.77-.26-5.48-.48-8.15A184.82,184.82,0,0,0,52.64,0Z"/></g></g></g></svg>