<svg xmlns="http://www.w3.org/2000/svg" width="38.937" height="46" viewBox="0 0 38.937 46">
    <g>
        <path fill="#00015d" d="M59.383 45.094a.906.906 0 1 1-.906-.906.907.907 0 0 1 .906.906zm-19.93 0v-1.145a12.163 12.163 0 0 1 5.888-10.4 30.167 30.167 0 0 1 7.786-3.286V28.8a8.328 8.328 0 0 1-1.241-1.37 21.678 21.678 0 0 1-2.637-4.85 1.9 1.9 0 0 1-1.456-1.08c-.274-.579-2.173-4.092-2.463-4.717a2.732 2.732 0 0 1 1.448-3.654 2.881 2.881 0 0 1 .625-.181A10.468 10.468 0 0 1 57.563 0a3.873 3.873 0 0 1 2.7 1.092.02.02 0 0 0 .028 0A3.874 3.874 0 0 1 63 0a7.116 7.116 0 0 1 7.1 7.108v1.649a15.239 15.239 0 0 1-.58 4.173 2.527 2.527 0 0 1 .64.185 2.734 2.734 0 0 1 1.448 3.654c-.307.617-2.19 4.137-2.463 4.717a1.9 1.9 0 0 1-1.455 1.08 21.679 21.679 0 0 1-2.641 4.862 8.337 8.337 0 0 1-1.238 1.372v1.458a30.169 30.169 0 0 1 7.789 3.287 12.163 12.163 0 0 1 5.888 10.4v1.146a.905.905 0 0 1-.906.906H62.551a.906.906 0 0 1-.9-.966.927.927 0 0 1 .935-.845h13.09a10.5 10.5 0 0 0-5.008-9.09 28.343 28.343 0 0 0-6.958-2.992 5.342 5.342 0 0 1-10.478 0 28.351 28.351 0 0 0-6.96 2.996 10.372 10.372 0 0 0-5.008 9.09H54.4a.906.906 0 0 1 .9.968.927.927 0 0 1-.93.842H40.358a.905.905 0 0 1-.906-.906zm9.466-34.5A4.688 4.688 0 0 1 52.4 8.965 4.616 4.616 0 0 1 55.321 10a4.265 4.265 0 0 0 6.951-3.321.906.906 0 0 1 1.811 0A2.909 2.909 0 0 0 65.707 9.3a5.985 5.985 0 0 1 2.352 1.966 13.48 13.48 0 0 0 .234-2.508v-1.65a5.3 5.3 0 0 0-5.3-5.3 2.071 2.071 0 0 0-1.445.584 1.824 1.824 0 0 1-2.543 0 2.071 2.071 0 0 0-1.445-.584 8.626 8.626 0 0 0-8.641 8.792zM62 30.006a8.163 8.163 0 0 1-7.063 0v1.052a3.531 3.531 0 1 0 7.063 0zm1.585-3.638A19.829 19.829 0 0 0 66.23 21.3a.9.9 0 0 1 1.244-.515c.336-.716 2.228-4.214 2.5-4.793a.937.937 0 0 0-.518-1.214.976.976 0 0 0-.825.041.91.91 0 0 1-1.331-.669 4.09 4.09 0 0 0-2.365-3.211 4.539 4.539 0 0 1-1.639-1.3 7.027 7.027 0 0 1-1.015 1.35 6.038 6.038 0 0 1-8.109.419 2.786 2.786 0 0 0-3.716.188 2.963 2.963 0 0 0-.865 2.061v.356a.908.908 0 0 1-1.312.809.979.979 0 0 0-.8-.027.922.922 0 0 0-.518 1.214c.272.581 2.205 4.131 2.491 4.78a.927.927 0 0 1 1.254.528 19.857 19.857 0 0 0 2.641 5.053 6.294 6.294 0 0 0 10.232 0zM77.937 5.433V.905A.905.905 0 0 0 77.031 0H72.5a.906.906 0 0 0 0 1.811h3.622v3.622a.906.906 0 1 0 1.811 0zm0 24.72v-4.527a.906.906 0 1 0-1.811 0v3.622H72.5a.906.906 0 0 0 0 1.811h4.528a.905.905 0 0 0 .909-.905zM40.811 5.433V1.811h3.622a.906.906 0 0 0 0-1.811h-4.527A.905.905 0 0 0 39 .905v4.528a.906.906 0 0 0 1.811 0zm4.528 24.72a.905.905 0 0 0-.906-.906h-3.622v-3.621a.906.906 0 0 0-1.811 0v4.528a.905.905 0 0 0 .906.906h4.528a.905.905 0 0 0 .905-.906z" transform="translate(-39)"/>
    </g>
</svg>
